<?xml version="1.0" encoding="UTF-8" standalone="no"?>
<!DOCTYPE svg PUBLIC "-//W3C//DTD SVG 1.1//EN" "http://www.w3.org/Graphics/SVG/1.1/DTD/svg11.dtd">
<svg width="100%" height="100%" viewBox="0 0 1000 1000" version="1.1" xmlns="http://www.w3.org/2000/svg" xmlns:xlink="http://www.w3.org/1999/xlink" xml:space="preserve" xmlns:serif="http://www.serif.com/" style="fill-rule:evenodd;clip-rule:evenodd;stroke-linecap:round;stroke-linejoin:round;stroke-miterlimit:1.5;">
    <g transform="matrix(1.09561,0,0,1.09561,-24.1962,-24.4099)">
        <path d="M247.732,251.637C213.631,226.937 171.378,214.069 125.985,205.912C129.924,177.717 130.454,146.907 124.655,108.028L247.732,251.637Z" style="fill:white;stroke:white;stroke-width:3.8px;"/>
        <g transform="matrix(1,0,0,1,3.11971,-2.8169)">
            <path d="M104.421,75.479C104.421,75.479 98.162,63.482 96.171,57.054C93.793,49.372 90.151,29.391 90.151,29.391C90.151,29.391 78.758,49.019 70.921,55.616C63.084,62.214 43.128,68.979 43.128,68.979C43.128,68.979 59.98,73.838 66.975,77.411C73.598,80.794 85.1,90.418 85.1,90.418L104.421,75.479Z" style="fill:white;stroke:white;stroke-width:3.8px;"/>
        </g>
        <path d="M67.98,103.633C67.98,103.633 57.049,97.087 49.321,102.394C45.006,105.358 42.121,121.466 42.121,121.466C42.121,121.466 36.026,99.46 41.841,95.405C55.506,85.876 76.838,96.89 76.838,96.89L67.98,103.633Z" style="fill:white;stroke:white;stroke-width:3.8px;"/>
        <g transform="matrix(1,0,0,1,0.378262,-0.604148)">
            <path d="M217.764,111.992C217.764,111.992 216.95,164.968 222.771,188.954C228.535,212.708 252.687,255.904 252.687,255.904C252.687,255.904 210.153,231.463 188.712,223.876C167.951,216.53 124.417,209.96 124.039,210.381C123.645,210.821 126.464,178.558 126.41,162.617C126.351,144.947 123.684,104.364 123.684,104.364C123.684,104.364 160.41,119.122 176.09,120.394C190.214,121.539 217.764,111.992 217.764,111.992Z" style="fill:none;stroke:white;stroke-width:3.8px;"/>
        </g>
        <path d="M87.531,134.128L156.04,77.409L134.946,51.617L65.051,106.275L87.531,134.128Z" style="fill:none;stroke:white;stroke-width:3.8px;"/>
        <g transform="matrix(0.98832,0,0,1,1.63668,0)">
            <path d="M151.992,80.908C151.25,81.696 168.441,88.684 176.211,78.763C180.85,72.841 179.071,44.807 179.071,44.807C179.071,44.807 242.349,47.033 215.278,93.515C210.022,102.54 193.152,108.406 171.639,106.852C159.851,106 140.123,90.603 140.123,90.603C140.123,90.603 152.602,80.26 151.992,80.908Z" style="fill:none;stroke:white;stroke-width:3.83px;"/>
        </g>
        <path d="M179.959,46.086C179.959,46.086 194.246,71.784 185.659,81.972C172.807,97.218 150.343,82.519 150.72,82.243C150.72,82.243 169.636,89.426 176.144,78.62C181.113,70.368 179.959,46.086 179.959,46.086Z" style="fill:white;stroke:white;stroke-width:3.8px;"/>
        <g transform="matrix(-0.184999,0.970851,0.986339,0.18795,39.4464,-31.5566)">
            <path d="M151.992,80.908C151.25,81.696 159.962,88.576 173.886,76.518C188.613,63.765 189.204,24.024 189.204,24.024C189.204,24.024 229.593,55.072 210.434,93.889C204.704,105.497 185.473,106.129 173.744,106.339C153.579,106.701 140.123,90.603 140.123,90.603C140.123,90.603 152.602,80.26 151.992,80.908Z" style="fill:none;stroke:white;stroke-width:3.82px;"/>
        </g>
        <path d="M85.158,160.052C101.927,149.59 94.16,128.646 94.16,128.646C94.16,128.646 96.474,144.718 80.288,154.059C64.142,163.377 29.175,157.702 29.175,157.702C29.175,157.702 70.387,169.269 85.158,160.052Z" style="fill:white;stroke:white;stroke-width:3.8px;"/>
        <path d="M115.835,66.189C115.835,66.189 106.469,42.222 110.781,34.342C115.728,25.302 134.666,31.584 134.325,31.847C134.012,32.088 121.581,33.486 118.547,40.881C115.388,48.581 121.838,61.698 121.838,61.698L115.835,66.189Z" style="fill:white;stroke:white;stroke-width:3.8px;"/>
    </g>
    <g id="Layer2">
    </g>
    <g id="Layer1">
    </g>
    <g transform="matrix(-0.00529947,1.0956,-1.0956,-0.00529947,1023.35,-21.3674)">
        <path d="M247.732,251.637C213.631,226.937 171.378,214.069 125.985,205.912C129.924,177.717 130.454,146.907 124.655,108.028L247.732,251.637Z" style="fill:white;stroke:white;stroke-width:3.8px;"/>
        <g transform="matrix(1,0,0,1,3.11971,-2.8169)">
            <path d="M104.421,75.479C104.421,75.479 98.162,63.482 96.171,57.054C93.793,49.372 90.151,29.391 90.151,29.391C90.151,29.391 78.758,49.019 70.921,55.616C63.084,62.214 43.128,68.979 43.128,68.979C43.128,68.979 59.98,73.838 66.975,77.411C73.598,80.794 85.1,90.418 85.1,90.418L104.421,75.479Z" style="fill:white;stroke:white;stroke-width:3.8px;"/>
        </g>
        <path d="M67.98,103.633C67.98,103.633 57.049,97.087 49.321,102.394C45.006,105.358 42.121,121.466 42.121,121.466C42.121,121.466 36.026,99.46 41.841,95.405C55.506,85.876 76.838,96.89 76.838,96.89L67.98,103.633Z" style="fill:white;stroke:white;stroke-width:3.8px;"/>
        <g transform="matrix(1,0,0,1,0.378262,-0.604148)">
            <path d="M217.764,111.992C217.764,111.992 216.95,164.968 222.771,188.954C228.535,212.708 252.687,255.904 252.687,255.904C252.687,255.904 210.153,231.463 188.712,223.876C167.951,216.53 124.417,209.96 124.039,210.381C123.645,210.821 126.464,178.558 126.41,162.617C126.351,144.947 123.684,104.364 123.684,104.364C123.684,104.364 160.41,119.122 176.09,120.394C190.214,121.539 217.764,111.992 217.764,111.992Z" style="fill:none;stroke:white;stroke-width:3.8px;"/>
        </g>
        <path d="M87.531,134.128L156.04,77.409L134.946,51.617L65.051,106.275L87.531,134.128Z" style="fill:none;stroke:white;stroke-width:3.8px;"/>
        <g transform="matrix(0.98832,0,0,1,1.63668,0)">
            <path d="M151.992,80.908C151.25,81.696 168.441,88.684 176.211,78.763C180.85,72.841 179.071,44.807 179.071,44.807C179.071,44.807 242.349,47.033 215.278,93.515C210.022,102.54 193.152,108.406 171.639,106.852C159.851,106 140.123,90.603 140.123,90.603C140.123,90.603 152.602,80.26 151.992,80.908Z" style="fill:none;stroke:white;stroke-width:3.83px;"/>
        </g>
        <path d="M179.959,46.086C179.959,46.086 194.246,71.784 185.659,81.972C172.807,97.218 150.343,82.519 150.72,82.243C150.72,82.243 169.636,89.426 176.144,78.62C181.113,70.368 179.959,46.086 179.959,46.086Z" style="fill:white;stroke:white;stroke-width:3.8px;"/>
        <g transform="matrix(-0.184999,0.970851,0.986339,0.18795,39.4464,-31.5566)">
            <path d="M151.992,80.908C151.25,81.696 159.962,88.576 173.886,76.518C188.613,63.765 189.204,24.024 189.204,24.024C189.204,24.024 229.593,55.072 210.434,93.889C204.704,105.497 185.473,106.129 173.744,106.339C153.579,106.701 140.123,90.603 140.123,90.603C140.123,90.603 152.602,80.26 151.992,80.908Z" style="fill:none;stroke:white;stroke-width:3.82px;"/>
        </g>
        <path d="M85.158,160.052C101.927,149.59 94.16,128.646 94.16,128.646C94.16,128.646 96.474,144.718 80.288,154.059C64.142,163.377 29.175,157.702 29.175,157.702C29.175,157.702 70.387,169.269 85.158,160.052Z" style="fill:white;stroke:white;stroke-width:3.8px;"/>
        <path d="M115.835,66.189C115.835,66.189 106.469,42.222 110.781,34.342C115.728,25.302 134.666,31.584 134.325,31.847C134.012,32.088 121.581,33.486 118.547,40.881C115.388,48.581 121.838,61.698 121.838,61.698L115.835,66.189Z" style="fill:white;stroke:white;stroke-width:3.8px;"/>
    </g>
    <g transform="matrix(-0.00946295,-1.09557,1.09557,-0.00946295,-18.3991,1019.46)">
        <path d="M247.732,251.637C213.631,226.937 171.378,214.069 125.985,205.912C129.924,177.717 130.454,146.907 124.655,108.028L247.732,251.637Z" style="fill:white;stroke:white;stroke-width:3.8px;"/>
        <g transform="matrix(1,0,0,1,3.11971,-2.8169)">
            <path d="M104.421,75.479C104.421,75.479 98.162,63.482 96.171,57.054C93.793,49.372 90.151,29.391 90.151,29.391C90.151,29.391 78.758,49.019 70.921,55.616C63.084,62.214 43.128,68.979 43.128,68.979C43.128,68.979 59.98,73.838 66.975,77.411C73.598,80.794 85.1,90.418 85.1,90.418L104.421,75.479Z" style="fill:white;stroke:white;stroke-width:3.8px;"/>
        </g>
        <path d="M67.98,103.633C67.98,103.633 57.049,97.087 49.321,102.394C45.006,105.358 42.121,121.466 42.121,121.466C42.121,121.466 36.026,99.46 41.841,95.405C55.506,85.876 76.838,96.89 76.838,96.89L67.98,103.633Z" style="fill:white;stroke:white;stroke-width:3.8px;"/>
        <g transform="matrix(1,0,0,1,0.378262,-0.604148)">
            <path d="M217.764,111.992C217.764,111.992 216.95,164.968 222.771,188.954C228.535,212.708 252.687,255.904 252.687,255.904C252.687,255.904 210.153,231.463 188.712,223.876C167.951,216.53 124.417,209.96 124.039,210.381C123.645,210.821 126.464,178.558 126.41,162.617C126.351,144.947 123.684,104.364 123.684,104.364C123.684,104.364 160.41,119.122 176.09,120.394C190.214,121.539 217.764,111.992 217.764,111.992Z" style="fill:none;stroke:white;stroke-width:3.8px;"/>
        </g>
        <path d="M87.531,134.128L156.04,77.409L134.946,51.617L65.051,106.275L87.531,134.128Z" style="fill:none;stroke:white;stroke-width:3.8px;"/>
        <g transform="matrix(0.98832,0,0,1,1.63668,0)">
            <path d="M151.992,80.908C151.25,81.696 168.441,88.684 176.211,78.763C180.85,72.841 179.071,44.807 179.071,44.807C179.071,44.807 242.349,47.033 215.278,93.515C210.022,102.54 193.152,108.406 171.639,106.852C159.851,106 140.123,90.603 140.123,90.603C140.123,90.603 152.602,80.26 151.992,80.908Z" style="fill:none;stroke:white;stroke-width:3.83px;"/>
        </g>
        <path d="M179.959,46.086C179.959,46.086 194.246,71.784 185.659,81.972C172.807,97.218 150.343,82.519 150.72,82.243C150.72,82.243 169.636,89.426 176.144,78.62C181.113,70.368 179.959,46.086 179.959,46.086Z" style="fill:white;stroke:white;stroke-width:3.8px;"/>
        <g transform="matrix(-0.184999,0.970851,0.986339,0.18795,39.4464,-31.5566)">
            <path d="M151.992,80.908C151.25,81.696 159.962,88.576 173.886,76.518C188.613,63.765 189.204,24.024 189.204,24.024C189.204,24.024 229.593,55.072 210.434,93.889C204.704,105.497 185.473,106.129 173.744,106.339C153.579,106.701 140.123,90.603 140.123,90.603C140.123,90.603 152.602,80.26 151.992,80.908Z" style="fill:none;stroke:white;stroke-width:3.82px;"/>
        </g>
        <path d="M85.158,160.052C101.927,149.59 94.16,128.646 94.16,128.646C94.16,128.646 96.474,144.718 80.288,154.059C64.142,163.377 29.175,157.702 29.175,157.702C29.175,157.702 70.387,169.269 85.158,160.052Z" style="fill:white;stroke:white;stroke-width:3.8px;"/>
        <path d="M115.835,66.189C115.835,66.189 106.469,42.222 110.781,34.342C115.728,25.302 134.666,31.584 134.325,31.847C134.012,32.088 121.581,33.486 118.547,40.881C115.388,48.581 121.838,61.698 121.838,61.698L115.835,66.189Z" style="fill:white;stroke:white;stroke-width:3.8px;"/>
    </g>
    <g transform="matrix(-1.09558,-0.00841019,0.00841019,-1.09558,1020.09,1023.51)">
        <path d="M247.732,251.637C213.631,226.937 171.378,214.069 125.985,205.912C129.924,177.717 130.454,146.907 124.655,108.028L247.732,251.637Z" style="fill:white;stroke:white;stroke-width:3.8px;"/>
        <g transform="matrix(1,0,0,1,3.11971,-2.8169)">
            <path d="M104.421,75.479C104.421,75.479 98.162,63.482 96.171,57.054C93.793,49.372 90.151,29.391 90.151,29.391C90.151,29.391 78.758,49.019 70.921,55.616C63.084,62.214 43.128,68.979 43.128,68.979C43.128,68.979 59.98,73.838 66.975,77.411C73.598,80.794 85.1,90.418 85.1,90.418L104.421,75.479Z" style="fill:white;stroke:white;stroke-width:3.8px;"/>
        </g>
        <path d="M67.98,103.633C67.98,103.633 57.049,97.087 49.321,102.394C45.006,105.358 42.121,121.466 42.121,121.466C42.121,121.466 36.026,99.46 41.841,95.405C55.506,85.876 76.838,96.89 76.838,96.89L67.98,103.633Z" style="fill:white;stroke:white;stroke-width:3.8px;"/>
        <g transform="matrix(1,0,0,1,0.378262,-0.604148)">
            <path d="M217.764,111.992C217.764,111.992 216.95,164.968 222.771,188.954C228.535,212.708 252.687,255.904 252.687,255.904C252.687,255.904 210.153,231.463 188.712,223.876C167.951,216.53 124.417,209.96 124.039,210.381C123.645,210.821 126.464,178.558 126.41,162.617C126.351,144.947 123.684,104.364 123.684,104.364C123.684,104.364 160.41,119.122 176.09,120.394C190.214,121.539 217.764,111.992 217.764,111.992Z" style="fill:none;stroke:white;stroke-width:3.8px;"/>
        </g>
        <path d="M87.531,134.128L156.04,77.409L134.946,51.617L65.051,106.275L87.531,134.128Z" style="fill:none;stroke:white;stroke-width:3.8px;"/>
        <g transform="matrix(0.98832,0,0,1,1.63668,0)">
            <path d="M151.992,80.908C151.25,81.696 168.441,88.684 176.211,78.763C180.85,72.841 179.071,44.807 179.071,44.807C179.071,44.807 242.349,47.033 215.278,93.515C210.022,102.54 193.152,108.406 171.639,106.852C159.851,106 140.123,90.603 140.123,90.603C140.123,90.603 152.602,80.26 151.992,80.908Z" style="fill:none;stroke:white;stroke-width:3.83px;"/>
        </g>
        <path d="M179.959,46.086C179.959,46.086 194.246,71.784 185.659,81.972C172.807,97.218 150.343,82.519 150.72,82.243C150.72,82.243 169.636,89.426 176.144,78.62C181.113,70.368 179.959,46.086 179.959,46.086Z" style="fill:white;stroke:white;stroke-width:3.8px;"/>
        <g transform="matrix(-0.184999,0.970851,0.986339,0.18795,39.4464,-31.5566)">
            <path d="M151.992,80.908C151.25,81.696 159.962,88.576 173.886,76.518C188.613,63.765 189.204,24.024 189.204,24.024C189.204,24.024 229.593,55.072 210.434,93.889C204.704,105.497 185.473,106.129 173.744,106.339C153.579,106.701 140.123,90.603 140.123,90.603C140.123,90.603 152.602,80.26 151.992,80.908Z" style="fill:none;stroke:white;stroke-width:3.82px;"/>
        </g>
        <path d="M85.158,160.052C101.927,149.59 94.16,128.646 94.16,128.646C94.16,128.646 96.474,144.718 80.288,154.059C64.142,163.377 29.175,157.702 29.175,157.702C29.175,157.702 70.387,169.269 85.158,160.052Z" style="fill:white;stroke:white;stroke-width:3.8px;"/>
        <path d="M115.835,66.189C115.835,66.189 106.469,42.222 110.781,34.342C115.728,25.302 134.666,31.584 134.325,31.847C134.012,32.088 121.581,33.486 118.547,40.881C115.388,48.581 121.838,61.698 121.838,61.698L115.835,66.189Z" style="fill:white;stroke:white;stroke-width:3.8px;"/>
    </g>
    <g transform="matrix(1,0,0,1,-89.4213,-18.2934)">
        <path d="M304.498,268.263L303.739,768.424" style="fill:none;stroke:white;stroke-width:6.32px;"/>
    </g>
    <g transform="matrix(1,-0.000532768,-0.000532768,1.19716,-76.2785,-58.5298)">
        <path d="M304.739,265.432L305.038,667.845" style="fill:none;stroke:white;stroke-width:9.13px;"/>
    </g>
    <g transform="matrix(6.12323e-17,1,-1,6.12323e-17,1012.93,-88.3341)">
        <path d="M304.498,268.263L303.739,768.424" style="fill:none;stroke:white;stroke-width:6.32px;"/>
    </g>
    <g transform="matrix(0.000532768,1,-1.19716,-0.000532768,1053.17,-75.1913)">
        <path d="M304.739,265.432L305.038,667.845" style="fill:none;stroke:white;stroke-width:9.13px;"/>
    </g>
    <g transform="matrix(6.12323e-17,-1,1,6.12323e-17,-16.9635,1090.75)">
        <path d="M304.498,268.263L303.739,768.424" style="fill:none;stroke:white;stroke-width:6.32px;"/>
    </g>
    <g transform="matrix(-0.000532768,-1,1.19716,0.000532768,-57.1999,1077.61)">
        <path d="M304.739,265.432L305.038,667.845" style="fill:none;stroke:white;stroke-width:9.13px;"/>
    </g>
    <g transform="matrix(-1,0,0,-1,1092.7,1018.02)">
        <path d="M304.498,268.263L303.739,768.424" style="fill:none;stroke:white;stroke-width:6.32px;"/>
    </g>
    <g transform="matrix(-1,0.000532768,0.000532768,-1.19716,1079.55,1058.26)">
        <path d="M304.739,265.432L305.038,667.845" style="fill:none;stroke:white;stroke-width:9.13px;"/>
    </g>
</svg>
