<?xml version="1.0" encoding="UTF-8" standalone="no"?>
<!DOCTYPE svg PUBLIC "-//W3C//DTD SVG 1.1//EN" "http://www.w3.org/Graphics/SVG/1.1/DTD/svg11.dtd">
<svg width="100%" height="100%" viewBox="0 0 1000 1000" version="1.1" xmlns="http://www.w3.org/2000/svg" xmlns:xlink="http://www.w3.org/1999/xlink" xml:space="preserve" xmlns:serif="http://www.serif.com/" style="fill-rule:evenodd;clip-rule:evenodd;stroke-linecap:round;stroke-linejoin:round;stroke-miterlimit:1.5;">
    <g transform="matrix(1,0,0,1,-0.896792,0.542261)">
        <g transform="matrix(1.1493,0,0,1.1493,-8.75854,-11.0943)">
            <ellipse cx="132.81" cy="86.135" rx="2.659" ry="1.759" style="fill:white;"/>
        </g>
        <g transform="matrix(1.1493,0,0,1.1493,-8.75854,-11.0943)">
            <path d="M52.488,49.727C52.488,49.727 77.647,72.187 108.959,80.973C140.272,89.758 111.52,79.203 110.556,78.925C81.552,70.551 52.488,49.727 52.488,49.727Z" style="fill:white;"/>
        </g>
        <g transform="matrix(1.1493,0,0,1.1493,-8.75854,-11.0943)">
            <path d="M51.527,62.367C51.527,62.367 76.214,125.258 58.837,182.038C41.46,238.818 76.249,220.311 81.9,198.049C98.37,133.172 51.527,62.367 51.527,62.367Z" style="fill:white;"/>
        </g>
        <g transform="matrix(1.1493,0,0,1.1493,-8.75854,-11.0943)">
            <path d="M62.711,62.092C62.711,62.092 120.978,112.731 156.964,114.233C197.632,115.93 193.646,88.579 159.595,91.461C111.361,95.543 62.657,61.819 62.711,62.092Z" style="fill:white;"/>
        </g>
        <g transform="matrix(1.1493,0,0,1.1493,-8.75854,-11.0943)">
            <path d="M61.386,52.172C61.386,52.172 115.101,95.09 191.123,83.528C231.523,77.384 226.104,42.847 190.493,54.702C116.33,79.391 61.386,52.172 61.386,52.172Z" style="fill:white;"/>
        </g>
        <g transform="matrix(1.1493,0,0,1.1493,-8.75854,-11.0943)">
            <path d="M48.358,52.512C48.358,52.512 75.09,90.271 80.013,113.392C84.936,136.514 84.811,123.137 81.708,112.364C71.306,76.26 48.358,52.512 48.358,52.512Z" style="fill:white;"/>
        </g>
        <g transform="matrix(1.11273,-0.287602,0.287602,1.11273,-44.9583,17.5597)">
            <ellipse cx="86.263" cy="133.733" rx="1.672" ry="2.659" style="fill:white;"/>
        </g>
        <g transform="matrix(1.1493,0,0,1.1493,-8.75854,-11.0943)">
            <path d="M62.714,64.624C62.714,64.624 95.376,114.924 90.969,157.503C86.562,200.081 114.34,189.113 113.751,165.18C112.463,112.903 62.714,64.624 62.714,64.624Z" style="fill:white;"/>
        </g>
        <g transform="matrix(1.75326,0,0,1.26,-138.975,-20.5933)">
            <ellipse cx="213.532" cy="93.709" rx="5.969" ry="7.899" style="fill:white;"/>
        </g>
        <g transform="matrix(14.3198,0,0,10.8728,-2832.3,-898.524)">
            <ellipse cx="213.453" cy="94.254" rx="0.661" ry="0.817" style="fill:white;"/>
        </g>
        <g transform="matrix(1.22449,0,0,1.23633,-22.0669,-22.6566)">
            <ellipse cx="181.818" cy="127.943" rx="4.831" ry="4.905" style="fill:white;"/>
        </g>
        <g transform="matrix(1.1493,0,0,1.1493,-8.75854,-11.0943)">
            <ellipse cx="126.817" cy="183.122" rx="4.899" ry="4.968" style="fill:white;"/>
        </g>
        <g transform="matrix(1.1493,0,0,1.1493,-8.75854,-11.0943)">
            <ellipse cx="118.477" cy="203.895" rx="8.017" ry="7.903" style="fill:white;"/>
        </g>
        <g transform="matrix(1.1493,0,0,1.1493,-8.75854,-11.0943)">
            <ellipse cx="93.267" cy="213.542" rx="8.888" ry="8.461" style="fill:white;"/>
        </g>
        <g transform="matrix(1.14279,0,0,1.26261,-8.88576,-26.8733)">
            <path d="M123.622,110.761C132.357,110.761 139.448,117.289 139.448,125.33C139.448,133.37 132.357,139.898 123.622,139.898C114.888,139.898 107.797,133.37 107.797,125.33C107.797,117.289 114.888,110.761 123.622,110.761ZM121.968,114.994C116.491,114.994 112.045,119.091 112.045,124.137C112.045,129.183 116.491,133.279 121.968,133.279C127.444,133.279 131.891,129.183 131.891,124.137C131.891,119.091 127.444,114.994 121.968,114.994Z" style="fill:white;"/>
        </g>
        <g transform="matrix(1.1493,0,0,1.1493,-8.75854,-11.0943)">
            <path d="M89.865,93.034C89.865,93.034 102.033,114.99 105.281,119.404C106.085,120.498 109.352,119.517 109.352,119.517L111.189,115.209L89.865,93.034Z" style="fill:white;"/>
        </g>
        <g transform="matrix(1.1493,0,0,1.1493,-8.75854,-11.0943)">
            <path d="M88.96,88.052L113.571,112.465L119.059,109.672C119.059,109.672 119.794,106.581 118.751,105.832C113.735,102.228 88.96,88.052 88.96,88.052Z" style="fill:white;"/>
        </g>
        <g transform="matrix(1.1493,0,0,1.1493,-8.75854,-11.0943)">
            <path d="M139.049,133.748C139.049,133.748 175.338,128.525 171.167,142.565C166.996,156.605 139.049,133.748 139.049,133.748Z" style="fill:white;"/>
        </g>
        <g transform="matrix(1.1493,0,0,1.1493,-8.75854,-11.0943)">
            <path d="M135.626,137.053C134.985,137.019 173.815,152.898 162.777,163.324C151.739,173.751 135.914,137.068 135.626,137.053Z" style="fill:white;"/>
        </g>
        <g transform="matrix(1.1493,0,0,1.1493,-8.75854,-11.0943)">
            <path d="M132.355,140.794C132.642,140.507 154.435,169.393 141.652,172.453C128.869,175.514 132.068,141.081 132.355,140.794Z" style="fill:white;"/>
        </g>
        <g transform="matrix(1.1493,0,0,1.1493,-8.75854,-11.0943)">
            <path d="M38.908,44.69C38.908,44.69 26.549,62.092 21.04,89.224C16.672,110.736 24.308,129.823 24.308,129.823C24.308,129.823 24.416,125.823 28.555,120.697C32.397,115.938 37.133,115.211 37.133,115.211C37.133,115.211 34.037,119.689 32.949,127.137C31.833,134.776 36.149,139.617 36.149,139.617C36.149,139.617 37.802,131.445 39.405,129.09C40.775,127.075 45.762,125.484 45.762,125.484C45.762,125.484 44.951,133.462 45.388,137.105C45.812,140.634 48.384,147.34 48.384,147.34C48.384,147.34 49.057,141.392 51.183,138.251C53.425,134.937 56.895,132.422 56.933,133.059C57.007,134.299 57.74,145.279 57.576,146.29C57.508,146.707 63.665,131.494 58.718,98.314C54.365,69.124 38.908,44.69 38.908,44.69Z" style="fill:white;"/>
        </g>
        <g transform="matrix(-0.0135296,1.14922,1.14922,0.0135296,-9.2786,-11.3002)">
            <path d="M38.908,44.69C38.908,44.69 26.549,62.092 21.04,89.224C16.672,110.736 24.308,129.823 24.308,129.823C24.308,129.823 24.416,125.823 28.555,120.697C32.397,115.938 37.133,115.211 37.133,115.211C37.133,115.211 34.037,119.689 32.949,127.137C31.833,134.776 36.149,139.617 36.149,139.617C36.149,139.617 37.802,131.445 39.405,129.09C40.775,127.075 45.762,125.484 45.762,125.484C45.762,125.484 44.951,133.462 45.388,137.105C45.812,140.634 48.384,147.34 48.384,147.34C48.384,147.34 49.057,141.392 51.183,138.251C53.425,134.937 56.895,132.422 56.933,133.059C57.007,134.299 57.74,145.279 57.576,146.29C57.508,146.707 63.665,131.494 58.718,98.314C54.365,69.124 38.908,44.69 38.908,44.69Z" style="fill:white;"/>
        </g>
        <g transform="matrix(1.1493,0,0,1.1493,-8.75854,-11.0943)">
            <path d="M34.931,35.623C34.931,35.623 65.166,11.773 98.581,12.856C152.605,14.606 140.009,28.684 140.009,28.684C140.009,28.684 146.049,32.637 147.06,34.752C148.023,36.765 146.077,41.373 146.077,41.373C146.077,41.373 151.851,43.155 153.625,45.385C158.293,51.25 151.572,54.243 151.572,54.243C153.644,55.392 155.298,57.097 155.991,60.078" style="fill:none;stroke:white;stroke-width:3.83px;"/>
        </g>
        <g transform="matrix(0.00283491,1.1493,1.1493,-0.00283491,-10.1162,-9.49659)">
            <path d="M34.322,36.028C34.322,36.028 65.166,11.773 98.581,12.856C152.605,14.606 140.009,28.684 140.009,28.684C140.009,28.684 146.049,32.637 147.06,34.752C148.023,36.765 146.077,41.373 146.077,41.373C146.077,41.373 151.851,43.155 153.625,45.385C158.293,51.25 151.572,54.243 151.572,54.243C153.644,55.392 155.298,57.097 155.991,60.078" style="fill:none;stroke:white;stroke-width:3.83px;"/>
        </g>
    </g>
    <g transform="matrix(1,0,0,1,-0.896792,0.542261)">
        <g transform="matrix(7.03742e-17,1.1493,-1.1493,7.03742e-17,1011.63,-10.4208)">
            <ellipse cx="132.81" cy="86.135" rx="2.659" ry="1.759" style="fill:white;"/>
        </g>
        <g transform="matrix(7.03742e-17,1.1493,-1.1493,7.03742e-17,1011.63,-10.4208)">
            <path d="M52.488,49.727C52.488,49.727 77.647,72.187 108.959,80.973C140.272,89.758 111.52,79.203 110.556,78.925C81.552,70.551 52.488,49.727 52.488,49.727Z" style="fill:white;"/>
        </g>
        <g transform="matrix(7.03742e-17,1.1493,-1.1493,7.03742e-17,1011.63,-10.4208)">
            <path d="M51.527,62.367C51.527,62.367 76.214,125.258 58.837,182.038C41.46,238.818 76.249,220.311 81.9,198.049C98.37,133.172 51.527,62.367 51.527,62.367Z" style="fill:white;"/>
        </g>
        <g transform="matrix(7.03742e-17,1.1493,-1.1493,7.03742e-17,1011.63,-10.4208)">
            <path d="M62.711,62.092C62.711,62.092 120.978,112.731 156.964,114.233C197.632,115.93 193.646,88.579 159.595,91.461C111.361,95.543 62.657,61.819 62.711,62.092Z" style="fill:white;"/>
        </g>
        <g transform="matrix(7.03742e-17,1.1493,-1.1493,7.03742e-17,1011.63,-10.4208)">
            <path d="M61.386,52.172C61.386,52.172 115.101,95.09 191.123,83.528C231.523,77.384 226.104,42.847 190.493,54.702C116.33,79.391 61.386,52.172 61.386,52.172Z" style="fill:white;"/>
        </g>
        <g transform="matrix(7.03742e-17,1.1493,-1.1493,7.03742e-17,1011.63,-10.4208)">
            <path d="M48.358,52.512C48.358,52.512 75.09,90.271 80.013,113.392C84.936,136.514 84.811,123.137 81.708,112.364C71.306,76.26 48.358,52.512 48.358,52.512Z" style="fill:white;"/>
        </g>
        <g transform="matrix(0.287602,1.11273,-1.11273,0.287602,982.972,-46.6206)">
            <ellipse cx="86.263" cy="133.733" rx="1.672" ry="2.659" style="fill:white;"/>
        </g>
        <g transform="matrix(7.03742e-17,1.1493,-1.1493,7.03742e-17,1011.63,-10.4208)">
            <path d="M62.714,64.624C62.714,64.624 95.376,114.924 90.969,157.503C86.562,200.081 114.34,189.113 113.751,165.18C112.463,112.903 62.714,64.624 62.714,64.624Z" style="fill:white;"/>
        </g>
        <g transform="matrix(1.07356e-16,1.75326,-1.26,7.71525e-17,1021.12,-140.637)">
            <ellipse cx="213.532" cy="93.709" rx="5.969" ry="7.899" style="fill:white;"/>
        </g>
        <g transform="matrix(8.76832e-16,14.3198,-10.8728,6.65768e-16,1899.05,-2833.96)">
            <ellipse cx="213.453" cy="94.254" rx="0.661" ry="0.817" style="fill:white;"/>
        </g>
        <g transform="matrix(7.49785e-17,1.22449,-1.23633,7.57035e-17,1023.19,-23.7292)">
            <ellipse cx="181.818" cy="127.943" rx="4.831" ry="4.905" style="fill:white;"/>
        </g>
        <g transform="matrix(7.03742e-17,1.1493,-1.1493,7.03742e-17,1011.63,-10.4208)">
            <ellipse cx="126.817" cy="183.122" rx="4.899" ry="4.968" style="fill:white;"/>
        </g>
        <g transform="matrix(7.03742e-17,1.1493,-1.1493,7.03742e-17,1011.63,-10.4208)">
            <ellipse cx="118.477" cy="203.895" rx="8.017" ry="7.903" style="fill:white;"/>
        </g>
        <g transform="matrix(7.03742e-17,1.1493,-1.1493,7.03742e-17,1011.63,-10.4208)">
            <ellipse cx="93.267" cy="213.542" rx="8.888" ry="8.461" style="fill:white;"/>
        </g>
        <g transform="matrix(6.99756e-17,1.14279,-1.26261,7.73125e-17,1027.4,-10.5481)">
            <path d="M123.622,110.761C132.357,110.761 139.448,117.289 139.448,125.33C139.448,133.37 132.357,139.898 123.622,139.898C114.888,139.898 107.797,133.37 107.797,125.33C107.797,117.289 114.888,110.761 123.622,110.761ZM121.968,114.994C116.491,114.994 112.045,119.091 112.045,124.137C112.045,129.183 116.491,133.279 121.968,133.279C127.444,133.279 131.891,129.183 131.891,124.137C131.891,119.091 127.444,114.994 121.968,114.994Z" style="fill:white;"/>
        </g>
        <g transform="matrix(7.03742e-17,1.1493,-1.1493,7.03742e-17,1011.63,-10.4208)">
            <path d="M89.865,93.034C89.865,93.034 102.033,114.99 105.281,119.404C106.085,120.498 109.352,119.517 109.352,119.517L111.189,115.209L89.865,93.034Z" style="fill:white;"/>
        </g>
        <g transform="matrix(7.03742e-17,1.1493,-1.1493,7.03742e-17,1011.63,-10.4208)">
            <path d="M88.96,88.052L113.571,112.465L119.059,109.672C119.059,109.672 119.794,106.581 118.751,105.832C113.735,102.228 88.96,88.052 88.96,88.052Z" style="fill:white;"/>
        </g>
        <g transform="matrix(7.03742e-17,1.1493,-1.1493,7.03742e-17,1011.63,-10.4208)">
            <path d="M139.049,133.748C139.049,133.748 175.338,128.525 171.167,142.565C166.996,156.605 139.049,133.748 139.049,133.748Z" style="fill:white;"/>
        </g>
        <g transform="matrix(7.03742e-17,1.1493,-1.1493,7.03742e-17,1011.63,-10.4208)">
            <path d="M135.626,137.053C134.985,137.019 173.815,152.898 162.777,163.324C151.739,173.751 135.914,137.068 135.626,137.053Z" style="fill:white;"/>
        </g>
        <g transform="matrix(7.03742e-17,1.1493,-1.1493,7.03742e-17,1011.63,-10.4208)">
            <path d="M132.355,140.794C132.642,140.507 154.435,169.393 141.652,172.453C128.869,175.514 132.068,141.081 132.355,140.794Z" style="fill:white;"/>
        </g>
        <g transform="matrix(7.03742e-17,1.1493,-1.1493,7.03742e-17,1011.63,-10.4208)">
            <path d="M38.908,44.69C38.908,44.69 26.549,62.092 21.04,89.224C16.672,110.736 24.308,129.823 24.308,129.823C24.308,129.823 24.416,125.823 28.555,120.697C32.397,115.938 37.133,115.211 37.133,115.211C37.133,115.211 34.037,119.689 32.949,127.137C31.833,134.776 36.149,139.617 36.149,139.617C36.149,139.617 37.802,131.445 39.405,129.09C40.775,127.075 45.762,125.484 45.762,125.484C45.762,125.484 44.951,133.462 45.388,137.105C45.812,140.634 48.384,147.34 48.384,147.34C48.384,147.34 49.057,141.392 51.183,138.251C53.425,134.937 56.895,132.422 56.933,133.059C57.007,134.299 57.74,145.279 57.576,146.29C57.508,146.707 63.665,131.494 58.718,98.314C54.365,69.124 38.908,44.69 38.908,44.69Z" style="fill:white;"/>
        </g>
        <g transform="matrix(-1.14922,-0.0135296,-0.0135296,1.14922,1011.83,-10.9409)">
            <path d="M38.908,44.69C38.908,44.69 26.549,62.092 21.04,89.224C16.672,110.736 24.308,129.823 24.308,129.823C24.308,129.823 24.416,125.823 28.555,120.697C32.397,115.938 37.133,115.211 37.133,115.211C37.133,115.211 34.037,119.689 32.949,127.137C31.833,134.776 36.149,139.617 36.149,139.617C36.149,139.617 37.802,131.445 39.405,129.09C40.775,127.075 45.762,125.484 45.762,125.484C45.762,125.484 44.951,133.462 45.388,137.105C45.812,140.634 48.384,147.34 48.384,147.34C48.384,147.34 49.057,141.392 51.183,138.251C53.425,134.937 56.895,132.422 56.933,133.059C57.007,134.299 57.74,145.279 57.576,146.29C57.508,146.707 63.665,131.494 58.718,98.314C54.365,69.124 38.908,44.69 38.908,44.69Z" style="fill:white;"/>
        </g>
        <g transform="matrix(7.03742e-17,1.1493,-1.1493,7.03742e-17,1011.63,-10.4208)">
            <path d="M34.931,35.623C34.931,35.623 65.166,11.773 98.581,12.856C152.605,14.606 140.009,28.684 140.009,28.684C140.009,28.684 146.049,32.637 147.06,34.752C148.023,36.765 146.077,41.373 146.077,41.373C146.077,41.373 151.851,43.155 153.625,45.385C158.293,51.25 151.572,54.243 151.572,54.243C153.644,55.392 155.298,57.097 155.991,60.078" style="fill:none;stroke:white;stroke-width:3.83px;"/>
        </g>
        <g transform="matrix(-1.1493,0.00283491,0.00283491,1.1493,1010.03,-11.7785)">
            <path d="M34.322,36.028C34.322,36.028 65.166,11.773 98.581,12.856C152.605,14.606 140.009,28.684 140.009,28.684C140.009,28.684 146.049,32.637 147.06,34.752C148.023,36.765 146.077,41.373 146.077,41.373C146.077,41.373 151.851,43.155 153.625,45.385C158.293,51.25 151.572,54.243 151.572,54.243C153.644,55.392 155.298,57.097 155.991,60.078" style="fill:none;stroke:white;stroke-width:3.83px;"/>
        </g>
    </g>
    <g transform="matrix(-1,-1.22465e-16,1.22465e-16,-1,1001.23,999.923)">
        <g transform="matrix(1.1493,0,0,1.1493,-8.75854,-11.0943)">
            <ellipse cx="132.81" cy="86.135" rx="2.659" ry="1.759" style="fill:white;"/>
        </g>
        <g transform="matrix(1.1493,0,0,1.1493,-8.75854,-11.0943)">
            <path d="M52.488,49.727C52.488,49.727 77.647,72.187 108.959,80.973C140.272,89.758 111.52,79.203 110.556,78.925C81.552,70.551 52.488,49.727 52.488,49.727Z" style="fill:white;"/>
        </g>
        <g transform="matrix(1.1493,0,0,1.1493,-8.75854,-11.0943)">
            <path d="M51.527,62.367C51.527,62.367 76.214,125.258 58.837,182.038C41.46,238.818 76.249,220.311 81.9,198.049C98.37,133.172 51.527,62.367 51.527,62.367Z" style="fill:white;"/>
        </g>
        <g transform="matrix(1.1493,0,0,1.1493,-8.75854,-11.0943)">
            <path d="M62.711,62.092C62.711,62.092 120.978,112.731 156.964,114.233C197.632,115.93 193.646,88.579 159.595,91.461C111.361,95.543 62.657,61.819 62.711,62.092Z" style="fill:white;"/>
        </g>
        <g transform="matrix(1.1493,0,0,1.1493,-8.75854,-11.0943)">
            <path d="M61.386,52.172C61.386,52.172 115.101,95.09 191.123,83.528C231.523,77.384 226.104,42.847 190.493,54.702C116.33,79.391 61.386,52.172 61.386,52.172Z" style="fill:white;"/>
        </g>
        <g transform="matrix(1.1493,0,0,1.1493,-8.75854,-11.0943)">
            <path d="M48.358,52.512C48.358,52.512 75.09,90.271 80.013,113.392C84.936,136.514 84.811,123.137 81.708,112.364C71.306,76.26 48.358,52.512 48.358,52.512Z" style="fill:white;"/>
        </g>
        <g transform="matrix(1.11273,-0.287602,0.287602,1.11273,-44.9583,17.5597)">
            <ellipse cx="86.263" cy="133.733" rx="1.672" ry="2.659" style="fill:white;"/>
        </g>
        <g transform="matrix(1.1493,0,0,1.1493,-8.75854,-11.0943)">
            <path d="M62.714,64.624C62.714,64.624 95.376,114.924 90.969,157.503C86.562,200.081 114.34,189.113 113.751,165.18C112.463,112.903 62.714,64.624 62.714,64.624Z" style="fill:white;"/>
        </g>
        <g transform="matrix(1.75326,0,0,1.26,-138.975,-20.5933)">
            <ellipse cx="213.532" cy="93.709" rx="5.969" ry="7.899" style="fill:white;"/>
        </g>
        <g transform="matrix(14.3198,0,0,10.8728,-2832.3,-898.524)">
            <ellipse cx="213.453" cy="94.254" rx="0.661" ry="0.817" style="fill:white;"/>
        </g>
        <g transform="matrix(1.22449,0,0,1.23633,-22.0669,-22.6566)">
            <ellipse cx="181.818" cy="127.943" rx="4.831" ry="4.905" style="fill:white;"/>
        </g>
        <g transform="matrix(1.1493,0,0,1.1493,-8.75854,-11.0943)">
            <ellipse cx="126.817" cy="183.122" rx="4.899" ry="4.968" style="fill:white;"/>
        </g>
        <g transform="matrix(1.1493,0,0,1.1493,-8.75854,-11.0943)">
            <ellipse cx="118.477" cy="203.895" rx="8.017" ry="7.903" style="fill:white;"/>
        </g>
        <g transform="matrix(1.1493,0,0,1.1493,-8.75854,-11.0943)">
            <ellipse cx="93.267" cy="213.542" rx="8.888" ry="8.461" style="fill:white;"/>
        </g>
        <g transform="matrix(1.14279,0,0,1.26261,-8.88576,-26.8733)">
            <path d="M123.622,110.761C132.357,110.761 139.448,117.289 139.448,125.33C139.448,133.37 132.357,139.898 123.622,139.898C114.888,139.898 107.797,133.37 107.797,125.33C107.797,117.289 114.888,110.761 123.622,110.761ZM121.968,114.994C116.491,114.994 112.045,119.091 112.045,124.137C112.045,129.183 116.491,133.279 121.968,133.279C127.444,133.279 131.891,129.183 131.891,124.137C131.891,119.091 127.444,114.994 121.968,114.994Z" style="fill:white;"/>
        </g>
        <g transform="matrix(1.1493,0,0,1.1493,-8.75854,-11.0943)">
            <path d="M89.865,93.034C89.865,93.034 102.033,114.99 105.281,119.404C106.085,120.498 109.352,119.517 109.352,119.517L111.189,115.209L89.865,93.034Z" style="fill:white;"/>
        </g>
        <g transform="matrix(1.1493,0,0,1.1493,-8.75854,-11.0943)">
            <path d="M88.96,88.052L113.571,112.465L119.059,109.672C119.059,109.672 119.794,106.581 118.751,105.832C113.735,102.228 88.96,88.052 88.96,88.052Z" style="fill:white;"/>
        </g>
        <g transform="matrix(1.1493,0,0,1.1493,-8.75854,-11.0943)">
            <path d="M139.049,133.748C139.049,133.748 175.338,128.525 171.167,142.565C166.996,156.605 139.049,133.748 139.049,133.748Z" style="fill:white;"/>
        </g>
        <g transform="matrix(1.1493,0,0,1.1493,-8.75854,-11.0943)">
            <path d="M135.626,137.053C134.985,137.019 173.815,152.898 162.777,163.324C151.739,173.751 135.914,137.068 135.626,137.053Z" style="fill:white;"/>
        </g>
        <g transform="matrix(1.1493,0,0,1.1493,-8.75854,-11.0943)">
            <path d="M132.355,140.794C132.642,140.507 154.435,169.393 141.652,172.453C128.869,175.514 132.068,141.081 132.355,140.794Z" style="fill:white;"/>
        </g>
        <g transform="matrix(1.1493,0,0,1.1493,-8.75854,-11.0943)">
            <path d="M38.908,44.69C38.908,44.69 26.549,62.092 21.04,89.224C16.672,110.736 24.308,129.823 24.308,129.823C24.308,129.823 24.416,125.823 28.555,120.697C32.397,115.938 37.133,115.211 37.133,115.211C37.133,115.211 34.037,119.689 32.949,127.137C31.833,134.776 36.149,139.617 36.149,139.617C36.149,139.617 37.802,131.445 39.405,129.09C40.775,127.075 45.762,125.484 45.762,125.484C45.762,125.484 44.951,133.462 45.388,137.105C45.812,140.634 48.384,147.34 48.384,147.34C48.384,147.34 49.057,141.392 51.183,138.251C53.425,134.937 56.895,132.422 56.933,133.059C57.007,134.299 57.74,145.279 57.576,146.29C57.508,146.707 63.665,131.494 58.718,98.314C54.365,69.124 38.908,44.69 38.908,44.69Z" style="fill:white;"/>
        </g>
        <g transform="matrix(-0.0135296,1.14922,1.14922,0.0135296,-9.2786,-11.3002)">
            <path d="M38.908,44.69C38.908,44.69 26.549,62.092 21.04,89.224C16.672,110.736 24.308,129.823 24.308,129.823C24.308,129.823 24.416,125.823 28.555,120.697C32.397,115.938 37.133,115.211 37.133,115.211C37.133,115.211 34.037,119.689 32.949,127.137C31.833,134.776 36.149,139.617 36.149,139.617C36.149,139.617 37.802,131.445 39.405,129.09C40.775,127.075 45.762,125.484 45.762,125.484C45.762,125.484 44.951,133.462 45.388,137.105C45.812,140.634 48.384,147.34 48.384,147.34C48.384,147.34 49.057,141.392 51.183,138.251C53.425,134.937 56.895,132.422 56.933,133.059C57.007,134.299 57.74,145.279 57.576,146.29C57.508,146.707 63.665,131.494 58.718,98.314C54.365,69.124 38.908,44.69 38.908,44.69Z" style="fill:white;"/>
        </g>
        <g transform="matrix(1.1493,0,0,1.1493,-8.75854,-11.0943)">
            <path d="M34.931,35.623C34.931,35.623 65.166,11.773 98.581,12.856C152.605,14.606 140.009,28.684 140.009,28.684C140.009,28.684 146.049,32.637 147.06,34.752C148.023,36.765 146.077,41.373 146.077,41.373C146.077,41.373 151.851,43.155 153.625,45.385C158.293,51.25 151.572,54.243 151.572,54.243C153.644,55.392 155.298,57.097 155.991,60.078" style="fill:none;stroke:white;stroke-width:3.83px;"/>
        </g>
        <g transform="matrix(0.00283491,1.1493,1.1493,-0.00283491,-10.1162,-9.49659)">
            <path d="M34.322,36.028C34.322,36.028 65.166,11.773 98.581,12.856C152.605,14.606 140.009,28.684 140.009,28.684C140.009,28.684 146.049,32.637 147.06,34.752C148.023,36.765 146.077,41.373 146.077,41.373C146.077,41.373 151.851,43.155 153.625,45.385C158.293,51.25 151.572,54.243 151.572,54.243C153.644,55.392 155.298,57.097 155.991,60.078" style="fill:none;stroke:white;stroke-width:3.83px;"/>
        </g>
    </g>
    <g transform="matrix(-1,-1.22465e-16,1.22465e-16,-1,1001.23,999.923)">
        <g transform="matrix(7.03742e-17,1.1493,-1.1493,7.03742e-17,1011.63,-10.4208)">
            <ellipse cx="132.81" cy="86.135" rx="2.659" ry="1.759" style="fill:white;"/>
        </g>
        <g transform="matrix(7.03742e-17,1.1493,-1.1493,7.03742e-17,1011.63,-10.4208)">
            <path d="M52.488,49.727C52.488,49.727 77.647,72.187 108.959,80.973C140.272,89.758 111.52,79.203 110.556,78.925C81.552,70.551 52.488,49.727 52.488,49.727Z" style="fill:white;"/>
        </g>
        <g transform="matrix(7.03742e-17,1.1493,-1.1493,7.03742e-17,1011.63,-10.4208)">
            <path d="M51.527,62.367C51.527,62.367 76.214,125.258 58.837,182.038C41.46,238.818 76.249,220.311 81.9,198.049C98.37,133.172 51.527,62.367 51.527,62.367Z" style="fill:white;"/>
        </g>
        <g transform="matrix(7.03742e-17,1.1493,-1.1493,7.03742e-17,1011.63,-10.4208)">
            <path d="M62.711,62.092C62.711,62.092 120.978,112.731 156.964,114.233C197.632,115.93 193.646,88.579 159.595,91.461C111.361,95.543 62.657,61.819 62.711,62.092Z" style="fill:white;"/>
        </g>
        <g transform="matrix(7.03742e-17,1.1493,-1.1493,7.03742e-17,1011.63,-10.4208)">
            <path d="M61.386,52.172C61.386,52.172 115.101,95.09 191.123,83.528C231.523,77.384 226.104,42.847 190.493,54.702C116.33,79.391 61.386,52.172 61.386,52.172Z" style="fill:white;"/>
        </g>
        <g transform="matrix(7.03742e-17,1.1493,-1.1493,7.03742e-17,1011.63,-10.4208)">
            <path d="M48.358,52.512C48.358,52.512 75.09,90.271 80.013,113.392C84.936,136.514 84.811,123.137 81.708,112.364C71.306,76.26 48.358,52.512 48.358,52.512Z" style="fill:white;"/>
        </g>
        <g transform="matrix(0.287602,1.11273,-1.11273,0.287602,982.972,-46.6206)">
            <ellipse cx="86.263" cy="133.733" rx="1.672" ry="2.659" style="fill:white;"/>
        </g>
        <g transform="matrix(7.03742e-17,1.1493,-1.1493,7.03742e-17,1011.63,-10.4208)">
            <path d="M62.714,64.624C62.714,64.624 95.376,114.924 90.969,157.503C86.562,200.081 114.34,189.113 113.751,165.18C112.463,112.903 62.714,64.624 62.714,64.624Z" style="fill:white;"/>
        </g>
        <g transform="matrix(1.07356e-16,1.75326,-1.26,7.71525e-17,1021.12,-140.637)">
            <ellipse cx="213.532" cy="93.709" rx="5.969" ry="7.899" style="fill:white;"/>
        </g>
        <g transform="matrix(8.76832e-16,14.3198,-10.8728,6.65768e-16,1899.05,-2833.96)">
            <ellipse cx="213.453" cy="94.254" rx="0.661" ry="0.817" style="fill:white;"/>
        </g>
        <g transform="matrix(7.49785e-17,1.22449,-1.23633,7.57035e-17,1023.19,-23.7292)">
            <ellipse cx="181.818" cy="127.943" rx="4.831" ry="4.905" style="fill:white;"/>
        </g>
        <g transform="matrix(7.03742e-17,1.1493,-1.1493,7.03742e-17,1011.63,-10.4208)">
            <ellipse cx="126.817" cy="183.122" rx="4.899" ry="4.968" style="fill:white;"/>
        </g>
        <g transform="matrix(7.03742e-17,1.1493,-1.1493,7.03742e-17,1011.63,-10.4208)">
            <ellipse cx="118.477" cy="203.895" rx="8.017" ry="7.903" style="fill:white;"/>
        </g>
        <g transform="matrix(7.03742e-17,1.1493,-1.1493,7.03742e-17,1011.63,-10.4208)">
            <ellipse cx="93.267" cy="213.542" rx="8.888" ry="8.461" style="fill:white;"/>
        </g>
        <g transform="matrix(6.99756e-17,1.14279,-1.26261,7.73125e-17,1027.4,-10.5481)">
            <path d="M123.622,110.761C132.357,110.761 139.448,117.289 139.448,125.33C139.448,133.37 132.357,139.898 123.622,139.898C114.888,139.898 107.797,133.37 107.797,125.33C107.797,117.289 114.888,110.761 123.622,110.761ZM121.968,114.994C116.491,114.994 112.045,119.091 112.045,124.137C112.045,129.183 116.491,133.279 121.968,133.279C127.444,133.279 131.891,129.183 131.891,124.137C131.891,119.091 127.444,114.994 121.968,114.994Z" style="fill:white;"/>
        </g>
        <g transform="matrix(7.03742e-17,1.1493,-1.1493,7.03742e-17,1011.63,-10.4208)">
            <path d="M89.865,93.034C89.865,93.034 102.033,114.99 105.281,119.404C106.085,120.498 109.352,119.517 109.352,119.517L111.189,115.209L89.865,93.034Z" style="fill:white;"/>
        </g>
        <g transform="matrix(7.03742e-17,1.1493,-1.1493,7.03742e-17,1011.63,-10.4208)">
            <path d="M88.96,88.052L113.571,112.465L119.059,109.672C119.059,109.672 119.794,106.581 118.751,105.832C113.735,102.228 88.96,88.052 88.96,88.052Z" style="fill:white;"/>
        </g>
        <g transform="matrix(7.03742e-17,1.1493,-1.1493,7.03742e-17,1011.63,-10.4208)">
            <path d="M139.049,133.748C139.049,133.748 175.338,128.525 171.167,142.565C166.996,156.605 139.049,133.748 139.049,133.748Z" style="fill:white;"/>
        </g>
        <g transform="matrix(7.03742e-17,1.1493,-1.1493,7.03742e-17,1011.63,-10.4208)">
            <path d="M135.626,137.053C134.985,137.019 173.815,152.898 162.777,163.324C151.739,173.751 135.914,137.068 135.626,137.053Z" style="fill:white;"/>
        </g>
        <g transform="matrix(7.03742e-17,1.1493,-1.1493,7.03742e-17,1011.63,-10.4208)">
            <path d="M132.355,140.794C132.642,140.507 154.435,169.393 141.652,172.453C128.869,175.514 132.068,141.081 132.355,140.794Z" style="fill:white;"/>
        </g>
        <g transform="matrix(7.03742e-17,1.1493,-1.1493,7.03742e-17,1011.63,-10.4208)">
            <path d="M38.908,44.69C38.908,44.69 26.549,62.092 21.04,89.224C16.672,110.736 24.308,129.823 24.308,129.823C24.308,129.823 24.416,125.823 28.555,120.697C32.397,115.938 37.133,115.211 37.133,115.211C37.133,115.211 34.037,119.689 32.949,127.137C31.833,134.776 36.149,139.617 36.149,139.617C36.149,139.617 37.802,131.445 39.405,129.09C40.775,127.075 45.762,125.484 45.762,125.484C45.762,125.484 44.951,133.462 45.388,137.105C45.812,140.634 48.384,147.34 48.384,147.34C48.384,147.34 49.057,141.392 51.183,138.251C53.425,134.937 56.895,132.422 56.933,133.059C57.007,134.299 57.74,145.279 57.576,146.29C57.508,146.707 63.665,131.494 58.718,98.314C54.365,69.124 38.908,44.69 38.908,44.69Z" style="fill:white;"/>
        </g>
        <g transform="matrix(-1.14922,-0.0135296,-0.0135296,1.14922,1011.83,-10.9409)">
            <path d="M38.908,44.69C38.908,44.69 26.549,62.092 21.04,89.224C16.672,110.736 24.308,129.823 24.308,129.823C24.308,129.823 24.416,125.823 28.555,120.697C32.397,115.938 37.133,115.211 37.133,115.211C37.133,115.211 34.037,119.689 32.949,127.137C31.833,134.776 36.149,139.617 36.149,139.617C36.149,139.617 37.802,131.445 39.405,129.09C40.775,127.075 45.762,125.484 45.762,125.484C45.762,125.484 44.951,133.462 45.388,137.105C45.812,140.634 48.384,147.34 48.384,147.34C48.384,147.34 49.057,141.392 51.183,138.251C53.425,134.937 56.895,132.422 56.933,133.059C57.007,134.299 57.74,145.279 57.576,146.29C57.508,146.707 63.665,131.494 58.718,98.314C54.365,69.124 38.908,44.69 38.908,44.69Z" style="fill:white;"/>
        </g>
        <g transform="matrix(7.03742e-17,1.1493,-1.1493,7.03742e-17,1011.63,-10.4208)">
            <path d="M34.931,35.623C34.931,35.623 65.166,11.773 98.581,12.856C152.605,14.606 140.009,28.684 140.009,28.684C140.009,28.684 146.049,32.637 147.06,34.752C148.023,36.765 146.077,41.373 146.077,41.373C146.077,41.373 151.851,43.155 153.625,45.385C158.293,51.25 151.572,54.243 151.572,54.243C153.644,55.392 155.298,57.097 155.991,60.078" style="fill:none;stroke:white;stroke-width:3.83px;"/>
        </g>
        <g transform="matrix(-1.1493,0.00283491,0.00283491,1.1493,1010.03,-11.7785)">
            <path d="M34.322,36.028C34.322,36.028 65.166,11.773 98.581,12.856C152.605,14.606 140.009,28.684 140.009,28.684C140.009,28.684 146.049,32.637 147.06,34.752C148.023,36.765 146.077,41.373 146.077,41.373C146.077,41.373 151.851,43.155 153.625,45.385C158.293,51.25 151.572,54.243 151.572,54.243C153.644,55.392 155.298,57.097 155.991,60.078" style="fill:none;stroke:white;stroke-width:3.83px;"/>
        </g>
    </g>
    <g transform="matrix(1,0,0,1,-2.14826,-6.92535)">
        <path d="M-11.76,252.189C-11.76,252.189 -22.463,353.331 50.569,450.028C91.61,504.367 93.772,614.194 46.671,666.896C-12.312,732.893 -15.609,792.495 -16.498,800.572" style="fill:none;stroke:white;stroke-width:9.21px;"/>
        <path d="M64.021,712.141C64.021,712.141 65.726,689.074 85.603,677.8C94.217,672.913 114.158,669.593 114.158,669.593C114.158,669.593 107.235,660.986 94.577,661.228C79.668,661.512 67.602,675.415 67.602,675.415C67.602,675.415 73.44,649.909 95.323,647.704C114.911,645.729 138.752,674.689 138.752,674.689C138.752,674.689 133.077,675.009 119.926,692.674C111.612,703.843 102.501,714.782 87.542,710.445C79.554,708.129 64.021,712.141 64.021,712.141Z" style="fill:white;"/>
        <g transform="matrix(1,0,0,1,1.41311,-0.753599)">
            <path d="M96.901,479.309C96.901,479.309 70.786,441.697 80.69,391.466C88.366,352.533 103.007,320.24 103.007,320.24C103.007,320.24 79.792,323.959 65.6,362.496C55.08,391.06 61.56,425.193 61.638,427.437C61.717,429.682 42.862,397.042 51.683,351.795C64.409,286.52 136.362,271.463 136.362,271.463C136.362,271.463 127.073,295.726 133.83,335.27C135.877,347.247 137.82,359.502 136.749,371.606C133.8,404.901 126.048,407.301 109.65,429.229C94.846,449.025 96.901,479.309 96.901,479.309Z" style="fill:white;"/>
        </g>
        <path d="M103.139,602.459C102.66,603.52 96.85,570.573 113.807,548.55C129.574,528.072 149.008,518.355 149.008,518.355C149.008,518.355 133.346,510.258 118.169,523.512C106.878,533.372 96.818,553.137 96.818,553.137C96.818,553.137 97.117,521.935 112.277,510.776C148.82,483.875 180.931,512.226 180.931,512.226C180.931,512.226 167.705,529.793 163.198,538.411C159.001,546.434 158.376,556.065 153.887,563.929C143.661,581.841 136.918,579.566 126.551,581.871C108.131,585.967 103.617,601.397 103.139,602.459Z" style="fill:white;"/>
        <path d="M-30.579,344.246C-30.579,344.246 -10.014,404.142 26.292,449.501C62.598,494.86 76.048,565.247 54.488,616.875C25.857,685.433 -12.963,710.261 -30.947,773.822" style="fill:none;stroke:white;stroke-width:5.43px;"/>
    </g>
    <g transform="matrix(6.12323e-17,1,-1,6.12323e-17,1011.16,2.16617)">
        <path d="M-11.76,252.189C-11.76,252.189 -22.463,353.331 50.569,450.028C91.61,504.367 93.772,614.194 46.671,666.896C-12.312,732.893 -15.609,792.495 -16.498,800.572" style="fill:none;stroke:white;stroke-width:9.21px;"/>
        <path d="M64.021,712.141C64.021,712.141 65.726,689.074 85.603,677.8C94.217,672.913 114.158,669.593 114.158,669.593C114.158,669.593 107.235,660.986 94.577,661.228C79.668,661.512 67.602,675.415 67.602,675.415C67.602,675.415 73.44,649.909 95.323,647.704C114.911,645.729 138.752,674.689 138.752,674.689C138.752,674.689 133.077,675.009 119.926,692.674C111.612,703.843 102.501,714.782 87.542,710.445C79.554,708.129 64.021,712.141 64.021,712.141Z" style="fill:white;"/>
        <g transform="matrix(1,0,0,1,1.41311,-0.753599)">
            <path d="M96.901,479.309C96.901,479.309 70.786,441.697 80.69,391.466C88.366,352.533 103.007,320.24 103.007,320.24C103.007,320.24 79.792,323.959 65.6,362.496C55.08,391.06 61.56,425.193 61.638,427.437C61.717,429.682 42.862,397.042 51.683,351.795C64.409,286.52 136.362,271.463 136.362,271.463C136.362,271.463 127.073,295.726 133.83,335.27C135.877,347.247 137.82,359.502 136.749,371.606C133.8,404.901 126.048,407.301 109.65,429.229C94.846,449.025 96.901,479.309 96.901,479.309Z" style="fill:white;"/>
        </g>
        <path d="M103.139,602.459C102.66,603.52 96.85,570.573 113.807,548.55C129.574,528.072 149.008,518.355 149.008,518.355C149.008,518.355 133.346,510.258 118.169,523.512C106.878,533.372 96.818,553.137 96.818,553.137C96.818,553.137 97.117,521.935 112.277,510.776C148.82,483.875 180.931,512.226 180.931,512.226C180.931,512.226 167.705,529.793 163.198,538.411C159.001,546.434 158.376,556.065 153.887,563.929C143.661,581.841 136.918,579.566 126.551,581.871C108.131,585.967 103.617,601.397 103.139,602.459Z" style="fill:white;"/>
        <path d="M-30.579,344.246C-30.579,344.246 -10.014,404.142 26.292,449.501C62.598,494.86 76.048,565.247 54.488,616.875C25.857,685.433 -12.963,710.261 -30.947,773.822" style="fill:none;stroke:white;stroke-width:5.43px;"/>
    </g>
    <g transform="matrix(-1,1.22465e-16,-1.22465e-16,-1,1005.2,1003.22)">
        <path d="M-11.76,252.189C-11.76,252.189 -22.463,353.331 50.569,450.028C91.61,504.367 93.772,614.194 46.671,666.896C-12.312,732.893 -15.609,792.495 -16.498,800.572" style="fill:none;stroke:white;stroke-width:9.21px;"/>
        <path d="M64.021,712.141C64.021,712.141 65.726,689.074 85.603,677.8C94.217,672.913 114.158,669.593 114.158,669.593C114.158,669.593 107.235,660.986 94.577,661.228C79.668,661.512 67.602,675.415 67.602,675.415C67.602,675.415 73.44,649.909 95.323,647.704C114.911,645.729 138.752,674.689 138.752,674.689C138.752,674.689 133.077,675.009 119.926,692.674C111.612,703.843 102.501,714.782 87.542,710.445C79.554,708.129 64.021,712.141 64.021,712.141Z" style="fill:white;"/>
        <g transform="matrix(1,0,0,1,1.41311,-0.753599)">
            <path d="M96.901,479.309C96.901,479.309 70.786,441.697 80.69,391.466C88.366,352.533 103.007,320.24 103.007,320.24C103.007,320.24 79.792,323.959 65.6,362.496C55.08,391.06 61.56,425.193 61.638,427.437C61.717,429.682 42.862,397.042 51.683,351.795C64.409,286.52 136.362,271.463 136.362,271.463C136.362,271.463 127.073,295.726 133.83,335.27C135.877,347.247 137.82,359.502 136.749,371.606C133.8,404.901 126.048,407.301 109.65,429.229C94.846,449.025 96.901,479.309 96.901,479.309Z" style="fill:white;"/>
        </g>
        <path d="M103.139,602.459C102.66,603.52 96.85,570.573 113.807,548.55C129.574,528.072 149.008,518.355 149.008,518.355C149.008,518.355 133.346,510.258 118.169,523.512C106.878,533.372 96.818,553.137 96.818,553.137C96.818,553.137 97.117,521.935 112.277,510.776C148.82,483.875 180.931,512.226 180.931,512.226C180.931,512.226 167.705,529.793 163.198,538.411C159.001,546.434 158.376,556.065 153.887,563.929C143.661,581.841 136.918,579.566 126.551,581.871C108.131,585.967 103.617,601.397 103.139,602.459Z" style="fill:white;"/>
        <path d="M-30.579,344.246C-30.579,344.246 -10.014,404.142 26.292,449.501C62.598,494.86 76.048,565.247 54.488,616.875C25.857,685.433 -12.963,710.261 -30.947,773.822" style="fill:none;stroke:white;stroke-width:5.43px;"/>
    </g>
    <g transform="matrix(6.12323e-17,-1,1,6.12323e-17,-2.04178,1009.31)">
        <path d="M-11.76,252.189C-11.76,252.189 -22.463,353.331 50.569,450.028C91.61,504.367 93.772,614.194 46.671,666.896C-12.312,732.893 -15.609,792.495 -16.498,800.572" style="fill:none;stroke:white;stroke-width:9.21px;"/>
        <path d="M64.021,712.141C64.021,712.141 65.726,689.074 85.603,677.8C94.217,672.913 114.158,669.593 114.158,669.593C114.158,669.593 107.235,660.986 94.577,661.228C79.668,661.512 67.602,675.415 67.602,675.415C67.602,675.415 73.44,649.909 95.323,647.704C114.911,645.729 138.752,674.689 138.752,674.689C138.752,674.689 133.077,675.009 119.926,692.674C111.612,703.843 102.501,714.782 87.542,710.445C79.554,708.129 64.021,712.141 64.021,712.141Z" style="fill:white;"/>
        <g transform="matrix(1,0,0,1,1.41311,-0.753599)">
            <path d="M96.901,479.309C96.901,479.309 70.786,441.697 80.69,391.466C88.366,352.533 103.007,320.24 103.007,320.24C103.007,320.24 79.792,323.959 65.6,362.496C55.08,391.06 61.56,425.193 61.638,427.437C61.717,429.682 42.862,397.042 51.683,351.795C64.409,286.52 136.362,271.463 136.362,271.463C136.362,271.463 127.073,295.726 133.83,335.27C135.877,347.247 137.82,359.502 136.749,371.606C133.8,404.901 126.048,407.301 109.65,429.229C94.846,449.025 96.901,479.309 96.901,479.309Z" style="fill:white;"/>
        </g>
        <path d="M103.139,602.459C102.66,603.52 96.85,570.573 113.807,548.55C129.574,528.072 149.008,518.355 149.008,518.355C149.008,518.355 133.346,510.258 118.169,523.512C106.878,533.372 96.818,553.137 96.818,553.137C96.818,553.137 97.117,521.935 112.277,510.776C148.82,483.875 180.931,512.226 180.931,512.226C180.931,512.226 167.705,529.793 163.198,538.411C159.001,546.434 158.376,556.065 153.887,563.929C143.661,581.841 136.918,579.566 126.551,581.871C108.131,585.967 103.617,601.397 103.139,602.459Z" style="fill:white;"/>
        <path d="M-30.579,344.246C-30.579,344.246 -10.014,404.142 26.292,449.501C62.598,494.86 76.048,565.247 54.488,616.875C25.857,685.433 -12.963,710.261 -30.947,773.822" style="fill:none;stroke:white;stroke-width:5.43px;"/>
    </g>
</svg>
