<?xml version="1.0" encoding="UTF-8" standalone="no"?>
<!DOCTYPE svg PUBLIC "-//W3C//DTD SVG 1.1//EN" "http://www.w3.org/Graphics/SVG/1.1/DTD/svg11.dtd">
<svg width="100%" height="100%" viewBox="0 0 1000 1000" version="1.1" xmlns="http://www.w3.org/2000/svg" xmlns:xlink="http://www.w3.org/1999/xlink" xml:space="preserve" xmlns:serif="http://www.serif.com/" style="fill-rule:evenodd;clip-rule:evenodd;stroke-linecap:round;stroke-linejoin:round;stroke-miterlimit:1.5;">
    <g>
        <g transform="matrix(6.12323e-17,1,-1,6.12323e-17,1007.86,-2.53982)">
            <path d="M-11.76,252.189C-11.76,252.189 -22.463,353.331 50.569,450.028C91.61,504.367 93.772,614.194 46.671,666.896C-12.312,732.893 -15.609,792.495 -16.498,800.572" style="fill:none;stroke:white;stroke-width:9.21px;"/>
        </g>
        <g transform="matrix(6.12323e-17,1,-1,6.12323e-17,1007.52,-0.356366)">
            <path d="M96.901,479.309C96.901,479.309 84.05,460.583 72.545,443.559C72.223,443.082 80.21,421.048 80.549,419.105C80.875,417.239 81.531,406.142 82.36,398.164C83.433,387.848 85.234,378.208 85.234,378.208C85.234,378.208 89.514,365.057 94.14,354.061C97.425,346.253 105.112,331.052 105.112,331.052C105.112,331.052 106.693,331.943 108.127,328.221C108.738,326.636 102.552,325.02 101.562,326.192C98.844,329.414 100.754,330.506 100.754,330.506C100.754,330.506 95.866,339.846 89.63,352.404C83.433,364.883 79.537,377.492 79.537,377.492C79.537,377.492 73.605,388.097 69.1,398.668C65.194,407.832 62.642,417.094 62.481,417.869C62.102,419.688 62.305,428.433 62.305,428.433C62.305,428.433 42.862,397.042 51.683,351.795C64.409,286.52 136.362,271.463 136.362,271.463C136.362,271.463 127.073,295.726 133.83,335.27C135.877,347.247 137.82,359.502 136.749,371.606C133.8,404.901 126.048,407.301 109.65,429.229C94.846,449.025 96.901,479.309 96.901,479.309Z" style="fill:white;"/>
        </g>
        <g transform="matrix(-0.358997,0.626107,-0.529993,-0.303887,698.264,188.138)">
            <path d="M96.901,479.309C96.901,479.309 84.05,460.583 72.545,443.559C72.223,443.082 80.21,421.048 80.549,419.105C80.875,417.239 81.531,406.142 82.36,398.164C83.433,387.848 85.234,378.208 85.234,378.208C85.234,378.208 89.514,365.057 94.14,354.061C97.425,346.253 105.112,331.052 105.112,331.052C105.112,331.052 106.693,331.943 108.127,328.221C108.738,326.636 102.552,325.02 101.562,326.192C98.844,329.414 100.754,330.506 100.754,330.506C100.754,330.506 95.866,339.846 89.63,352.404C83.433,364.883 79.537,377.492 79.537,377.492C79.537,377.492 73.605,388.097 69.1,398.668C65.194,407.832 62.642,417.094 62.481,417.869C62.102,419.688 62.305,428.433 62.305,428.433C62.305,428.433 42.862,397.042 51.683,351.795C64.409,286.52 136.362,271.463 136.362,271.463C136.362,271.463 127.073,295.726 133.83,335.27C135.877,347.247 137.82,359.502 136.749,371.606C133.8,404.901 126.048,407.301 109.65,429.229C94.846,449.025 96.901,479.309 96.901,479.309Z" style="fill:white;"/>
        </g>
        <g transform="matrix(6.12323e-17,1,-1,6.12323e-17,1007.86,-2.53982)">
            <path d="M-30.579,344.246C-30.579,344.246 -10.014,404.142 26.292,449.501C62.598,494.86 76.048,565.247 54.488,616.875C25.857,685.433 -12.963,710.261 -30.947,773.822" style="fill:none;stroke:white;stroke-width:5.43px;"/>
        </g>
        <g transform="matrix(-0.473342,0.403439,-0.27127,-0.318273,475.57,170.185)">
            <path d="M96.901,479.309C96.901,479.309 84.05,460.583 72.545,443.559C72.223,443.082 80.21,421.048 80.549,419.105C80.875,417.239 81.531,406.142 82.36,398.164C83.433,387.848 85.234,378.208 85.234,378.208C85.234,378.208 89.514,365.057 94.14,354.061C97.425,346.253 105.112,331.052 105.112,331.052C105.112,331.052 106.693,331.943 108.127,328.221C108.738,326.636 102.552,325.02 101.562,326.192C98.844,329.414 100.754,330.506 100.754,330.506C100.754,330.506 95.866,339.846 89.63,352.404C83.433,364.883 79.537,377.492 79.537,377.492C79.537,377.492 73.605,388.097 69.1,398.668C65.194,407.832 62.642,417.094 62.481,417.869C62.102,419.688 62.305,428.433 62.305,428.433C62.305,428.433 42.862,397.042 51.683,351.795C64.409,286.52 136.362,271.463 136.362,271.463C136.362,271.463 127.073,295.726 133.83,335.27C135.877,347.247 137.82,359.502 136.749,371.606C133.8,404.901 126.048,407.301 109.65,429.229C94.846,449.025 96.901,479.309 96.901,479.309Z" style="fill:white;"/>
        </g>
    </g>
    <g transform="matrix(6.12323e-17,1,-1,6.12323e-17,994.615,-4.71679)">
        <g transform="matrix(6.12323e-17,1,-1,6.12323e-17,1007.86,-2.53982)">
            <path d="M-11.76,252.189C-11.76,252.189 -22.463,353.331 50.569,450.028C91.61,504.367 93.772,614.194 46.671,666.896C-12.312,732.893 -15.609,792.495 -16.498,800.572" style="fill:none;stroke:white;stroke-width:9.21px;"/>
        </g>
        <g transform="matrix(6.12323e-17,1,-1,6.12323e-17,1007.52,-0.356366)">
            <path d="M96.901,479.309C96.901,479.309 84.05,460.583 72.545,443.559C72.223,443.082 80.21,421.048 80.549,419.105C80.875,417.239 81.531,406.142 82.36,398.164C83.433,387.848 85.234,378.208 85.234,378.208C85.234,378.208 89.514,365.057 94.14,354.061C97.425,346.253 105.112,331.052 105.112,331.052C105.112,331.052 106.693,331.943 108.127,328.221C108.738,326.636 102.552,325.02 101.562,326.192C98.844,329.414 100.754,330.506 100.754,330.506C100.754,330.506 95.866,339.846 89.63,352.404C83.433,364.883 79.537,377.492 79.537,377.492C79.537,377.492 73.605,388.097 69.1,398.668C65.194,407.832 62.642,417.094 62.481,417.869C62.102,419.688 62.305,428.433 62.305,428.433C62.305,428.433 42.862,397.042 51.683,351.795C64.409,286.52 136.362,271.463 136.362,271.463C136.362,271.463 127.073,295.726 133.83,335.27C135.877,347.247 137.82,359.502 136.749,371.606C133.8,404.901 126.048,407.301 109.65,429.229C94.846,449.025 96.901,479.309 96.901,479.309Z" style="fill:white;"/>
        </g>
        <g transform="matrix(-0.358997,0.626107,-0.529993,-0.303887,698.264,188.138)">
            <path d="M96.901,479.309C96.901,479.309 84.05,460.583 72.545,443.559C72.223,443.082 80.21,421.048 80.549,419.105C80.875,417.239 81.531,406.142 82.36,398.164C83.433,387.848 85.234,378.208 85.234,378.208C85.234,378.208 89.514,365.057 94.14,354.061C97.425,346.253 105.112,331.052 105.112,331.052C105.112,331.052 106.693,331.943 108.127,328.221C108.738,326.636 102.552,325.02 101.562,326.192C98.844,329.414 100.754,330.506 100.754,330.506C100.754,330.506 95.866,339.846 89.63,352.404C83.433,364.883 79.537,377.492 79.537,377.492C79.537,377.492 73.605,388.097 69.1,398.668C65.194,407.832 62.642,417.094 62.481,417.869C62.102,419.688 62.305,428.433 62.305,428.433C62.305,428.433 42.862,397.042 51.683,351.795C64.409,286.52 136.362,271.463 136.362,271.463C136.362,271.463 127.073,295.726 133.83,335.27C135.877,347.247 137.82,359.502 136.749,371.606C133.8,404.901 126.048,407.301 109.65,429.229C94.846,449.025 96.901,479.309 96.901,479.309Z" style="fill:white;"/>
        </g>
        <g transform="matrix(6.12323e-17,1,-1,6.12323e-17,1007.86,-2.53982)">
            <path d="M-30.579,344.246C-30.579,344.246 -10.014,404.142 26.292,449.501C62.598,494.86 76.048,565.247 54.488,616.875C25.857,685.433 -12.963,710.261 -30.947,773.822" style="fill:none;stroke:white;stroke-width:5.43px;"/>
        </g>
        <g transform="matrix(-0.473342,0.403439,-0.27127,-0.318273,475.57,170.185)">
            <path d="M96.901,479.309C96.901,479.309 84.05,460.583 72.545,443.559C72.223,443.082 80.21,421.048 80.549,419.105C80.875,417.239 81.531,406.142 82.36,398.164C83.433,387.848 85.234,378.208 85.234,378.208C85.234,378.208 89.514,365.057 94.14,354.061C97.425,346.253 105.112,331.052 105.112,331.052C105.112,331.052 106.693,331.943 108.127,328.221C108.738,326.636 102.552,325.02 101.562,326.192C98.844,329.414 100.754,330.506 100.754,330.506C100.754,330.506 95.866,339.846 89.63,352.404C83.433,364.883 79.537,377.492 79.537,377.492C79.537,377.492 73.605,388.097 69.1,398.668C65.194,407.832 62.642,417.094 62.481,417.869C62.102,419.688 62.305,428.433 62.305,428.433C62.305,428.433 42.862,397.042 51.683,351.795C64.409,286.52 136.362,271.463 136.362,271.463C136.362,271.463 127.073,295.726 133.83,335.27C135.877,347.247 137.82,359.502 136.749,371.606C133.8,404.901 126.048,407.301 109.65,429.229C94.846,449.025 96.901,479.309 96.901,479.309Z" style="fill:white;"/>
        </g>
    </g>
    <g transform="matrix(1,0,0,1,-622.244,-453.34)">
        <g transform="matrix(1.1493,0,0,1.1493,613.398,442.916)">
            <path d="M52.488,49.727C52.488,49.727 77.647,72.187 108.959,80.973C140.272,89.758 111.52,79.203 110.556,78.925C81.552,70.551 52.488,49.727 52.488,49.727Z" style="fill:white;"/>
        </g>
        <g transform="matrix(1.75326,0,0,1.26,483.182,433.417)">
            <ellipse cx="213.532" cy="93.709" rx="5.969" ry="7.899" style="fill:white;"/>
        </g>
        <g transform="matrix(14.3198,0,0,10.8728,-2210.14,-444.513)">
            <ellipse cx="213.453" cy="94.254" rx="0.661" ry="0.817" style="fill:white;"/>
        </g>
        <g transform="matrix(1.22449,0,0,1.23633,600.09,431.354)">
            <ellipse cx="181.818" cy="127.943" rx="4.831" ry="4.905" style="fill:white;"/>
        </g>
        <g transform="matrix(1.1493,0,0,1.1493,613.398,442.916)">
            <ellipse cx="126.817" cy="183.122" rx="4.899" ry="4.968" style="fill:white;"/>
        </g>
        <g transform="matrix(1.1493,0,0,1.1493,613.398,442.916)">
            <ellipse cx="118.477" cy="203.895" rx="8.017" ry="7.903" style="fill:white;"/>
        </g>
        <g transform="matrix(1.1493,0,0,1.1493,613.398,442.916)">
            <ellipse cx="93.267" cy="213.542" rx="8.888" ry="8.461" style="fill:white;"/>
        </g>
        <g transform="matrix(1.14279,0,0,1.26261,613.271,427.137)">
            <path d="M123.622,110.761C132.357,110.761 139.448,117.289 139.448,125.33C139.448,133.37 132.357,139.898 123.622,139.898C114.888,139.898 107.797,133.37 107.797,125.33C107.797,117.289 114.888,110.761 123.622,110.761ZM121.968,114.994C116.491,114.994 112.045,119.091 112.045,124.137C112.045,129.183 116.491,133.279 121.968,133.279C127.444,133.279 131.891,129.183 131.891,124.137C131.891,119.091 127.444,114.994 121.968,114.994Z" style="fill:white;"/>
        </g>
        <g transform="matrix(1.1493,0,0,1.1493,613.398,442.916)">
            <path d="M89.865,93.034C89.865,93.034 102.033,114.99 105.281,119.404C106.085,120.498 109.352,119.517 109.352,119.517L111.189,115.209L89.865,93.034Z" style="fill:white;"/>
        </g>
        <g transform="matrix(1.1493,0,0,1.1493,613.398,442.916)">
            <path d="M88.96,88.052L113.571,112.465L119.059,109.672C119.059,109.672 119.794,106.581 118.751,105.832C113.735,102.228 88.96,88.052 88.96,88.052Z" style="fill:white;"/>
        </g>
        <g transform="matrix(-0.0135296,1.14922,1.14922,0.0135296,612.878,442.71)">
            <path d="M38.908,44.69C38.908,44.69 26.549,62.092 21.04,89.224C16.672,110.736 24.308,129.823 24.308,129.823C24.308,129.823 24.416,125.823 28.555,120.697C32.397,115.938 37.133,115.211 37.133,115.211C37.133,115.211 34.037,119.689 32.949,127.137C31.833,134.776 36.149,139.617 36.149,139.617C36.149,139.617 37.802,131.445 39.405,129.09C40.775,127.075 45.762,125.484 45.762,125.484C45.762,125.484 44.951,133.462 45.388,137.105C45.812,140.634 48.384,147.34 48.384,147.34C48.384,147.34 49.204,139.16 51.33,136.019C53.573,132.704 56.826,145.828 56.826,145.828C56.826,145.828 57.71,142.041 59.542,137.451C60.646,134.687 68.472,146.438 67.826,142.37C67.768,142.003 69.368,136.498 70.533,133.823C71.492,131.619 77.086,136.227 77.086,136.227C77.086,136.227 77.939,129.505 80.585,128.723C83.821,127.767 96.498,130.49 96.498,130.49C96.498,130.49 85.402,107.411 76.855,92.977C60.038,64.578 38.908,44.69 38.908,44.69Z" style="fill:white;"/>
        </g>
        <g transform="matrix(1.1493,0,0,1.1493,613.398,442.916)">
            <path d="M34.931,35.623C34.931,35.623 65.166,11.773 98.581,12.856C152.605,14.606 140.009,28.684 140.009,28.684C140.009,28.684 146.049,32.637 147.06,34.752C148.023,36.765 146.077,41.373 146.077,41.373C146.077,41.373 151.851,43.155 153.625,45.385C158.293,51.25 151.572,54.243 151.572,54.243C153.644,55.392 156.864,57.943 155.991,60.078C154.018,64.903 148.095,64.334 148.095,64.334C148.095,64.334 149.651,70.936 148.62,72.777C147.589,74.618 142.273,75.746 142.273,75.746C142.273,75.746 143.106,81.77 141.658,83.623C140.373,85.268 134.724,85.212 134.724,85.212C134.724,85.212 136.112,93.717 134.801,96.264C133.491,98.811 125.091,95.877 125.091,95.877" style="fill:none;stroke:white;stroke-width:3.83px;"/>
        </g>
        <g transform="matrix(0.962629,0.270824,-0.270824,0.962629,193.903,-193.661)">
            <g transform="matrix(-0.0408813,0.10957,-0.107072,-0.0399492,847.749,599.842)">
                <path d="M399.018,609.584C417.815,580.224 442.182,543.001 467.79,505.013C482.642,468.703 506.292,417.158 516.343,403.511C524.55,392.368 575.859,355.702 575.913,355.693C583.903,354.311 602.094,372.84 604.219,380.368C604.246,380.462 583.15,437.26 572.78,452.67C566.031,462.699 499.806,516.316 489.603,524.516C461.453,559.266 434.144,593.58 412.679,620.92C413.276,621.455 417.074,625.541 413.029,630.539C412.007,631.801 410.736,633.519 408.958,633.181C406.944,632.8 403.414,630.09 398.295,626.405C388.164,619.111 384.731,616.568 389.367,610.94C391.978,607.771 397.772,609.177 399.018,609.584Z" style="fill:white;"/>
            </g>
        </g>
        <g transform="matrix(0.970687,-0.240346,0.240346,0.970687,-118.94,186.106)">
            <g transform="matrix(-0.0408813,0.10957,-0.107072,-0.0399492,847.749,599.842)">
                <path d="M399.018,609.584C417.815,580.224 442.182,543.001 467.79,505.013C482.642,468.703 506.292,417.158 516.343,403.511C524.55,392.368 575.859,355.702 575.913,355.693C583.903,354.311 602.094,372.84 604.219,380.368C604.246,380.462 583.15,437.26 572.78,452.67C566.031,462.699 499.806,516.316 489.603,524.516C461.453,559.266 434.144,593.58 412.679,620.92C413.276,621.455 417.074,625.541 413.029,630.539C412.007,631.801 410.736,633.519 408.958,633.181C406.944,632.8 403.414,630.09 398.295,626.405C388.164,619.111 384.731,616.568 389.367,610.94C391.978,607.771 397.772,609.177 399.018,609.584Z" style="fill:white;"/>
            </g>
        </g>
        <g transform="matrix(0.785575,-0.618766,0.618766,0.785575,-204.635,578.558)">
            <g transform="matrix(-0.0408813,0.10957,-0.107072,-0.0399492,847.749,599.842)">
                <path d="M399.018,609.584C417.815,580.224 442.182,543.001 467.79,505.013C482.642,468.703 506.292,417.158 516.343,403.511C524.55,392.368 575.859,355.702 575.913,355.693C583.903,354.311 602.094,372.84 604.219,380.368C604.246,380.462 583.15,437.26 572.78,452.67C566.031,462.699 499.806,516.316 489.603,524.516C461.453,559.266 434.144,593.58 412.679,620.92C413.276,621.455 417.074,625.541 413.029,630.539C412.007,631.801 410.736,633.519 408.958,633.181C406.944,632.8 403.414,630.09 398.295,626.405C388.164,619.111 384.731,616.568 389.367,610.94C391.978,607.771 397.772,609.177 399.018,609.584Z" style="fill:white;"/>
            </g>
        </g>
        <g transform="matrix(1.01293,0,0,1.10523,-25.3241,-57.2564)">
            <g transform="matrix(0.132831,0.31526,-0.31526,0.132831,847.396,312.05)">
                <path d="M352.512,619.749C391.33,595.17 427.406,555.408 455.801,512.764C496.753,437.059 505.871,370.883 512.933,340.295C515.083,330.98 521.944,310.94 529.137,284.975C546.633,221.82 549.724,181.372 550.271,180.062C553.805,171.602 565.248,172.948 570.804,174.284C578.142,176.049 590.983,184.143 595.553,190.965C595.556,190.969 598.383,217.842 595.909,253.608C593.81,283.963 588.918,306.558 587.273,314.259C586.709,316.902 583.616,334.53 578.314,350.536C572.519,368.036 537.969,444.4 470.695,520.599C438.195,563.299 397.244,605.997 357.38,631.256C357.78,632.431 357.755,636.463 352.479,639.679C351.127,640.504 349.071,641.846 347.809,641.108C346.414,640.292 345.102,637.073 343.007,632.734C338.804,624.027 337.519,621.637 344.149,618.703C347.859,617.061 351.765,619.23 352.512,619.749Z" style="fill:none;stroke:rgb(41,49,108);stroke-width:18.88px;"/>
                <path d="M352.512,619.749C391.33,595.17 427.406,555.408 455.801,512.764C496.753,437.059 505.871,370.883 512.933,340.295C515.083,330.98 521.944,310.94 529.137,284.975C546.633,221.82 549.724,181.372 550.271,180.062C553.805,171.602 565.248,172.948 570.804,174.284C578.142,176.049 590.983,184.143 595.553,190.965C595.556,190.969 598.383,217.842 595.909,253.608C593.81,283.963 588.918,306.558 587.273,314.259C586.709,316.902 583.616,334.53 578.314,350.536C572.519,368.036 537.969,444.4 470.695,520.599C438.195,563.299 397.244,605.997 357.38,631.256C357.78,632.431 357.755,636.463 352.479,639.679C351.127,640.504 349.071,641.846 347.809,641.108C346.414,640.292 345.102,637.073 343.007,632.734C338.804,624.027 337.519,621.637 344.149,618.703C347.859,617.061 351.765,619.23 352.512,619.749Z" style="fill:white;"/>
            </g>
        </g>
        <g transform="matrix(0.00196672,1.1493,1.1493,-0.00196672,612.024,443.965)">
            <path d="M52.488,49.727C52.488,49.727 77.647,72.187 108.959,80.973C140.272,89.758 111.52,79.203 110.556,78.925C81.552,70.551 52.488,49.727 52.488,49.727Z" style="fill:white;"/>
        </g>
        <g transform="matrix(1.14919,-0.0154962,0.0154962,1.14919,611.817,443.445)">
            <path d="M38.908,44.69C38.908,44.69 26.549,62.092 21.04,89.224C16.672,110.736 24.308,129.823 24.308,129.823C24.308,129.823 24.416,125.823 28.555,120.697C32.397,115.938 37.133,115.211 37.133,115.211C37.133,115.211 34.037,119.689 32.949,127.137C31.833,134.776 36.149,139.617 36.149,139.617C36.149,139.617 37.802,131.445 39.405,129.09C40.775,127.075 45.762,125.484 45.762,125.484C45.762,125.484 44.951,133.462 45.388,137.105C45.812,140.634 48.384,147.34 48.384,147.34C48.384,147.34 49.204,139.16 51.33,136.019C53.573,132.704 56.826,145.828 56.826,145.828C56.826,145.828 57.71,142.041 59.542,137.451C60.646,134.687 68.472,146.438 67.826,142.37C67.768,142.003 69.368,136.498 70.533,133.823C71.492,131.619 77.086,136.227 77.086,136.227C77.086,136.227 77.939,129.505 80.585,128.723C83.821,127.767 96.498,130.49 96.498,130.49C96.498,130.49 85.402,107.411 76.855,92.977C60.038,64.578 38.908,44.69 38.908,44.69Z" style="fill:white;"/>
        </g>
        <g transform="matrix(0.00196672,1.1493,1.1493,-0.00196672,612.024,443.965)">
            <path d="M34.931,35.623C34.931,35.623 65.166,11.773 98.581,12.856C152.605,14.606 140.009,28.684 140.009,28.684C140.009,28.684 146.049,32.637 147.06,34.752C148.023,36.765 146.077,41.373 146.077,41.373C146.077,41.373 151.851,43.155 153.625,45.385C158.293,51.25 151.572,54.243 151.572,54.243C153.644,55.392 156.864,57.943 155.991,60.078C154.018,64.903 148.095,64.334 148.095,64.334C148.095,64.334 149.651,70.936 148.62,72.777C147.589,74.618 142.273,75.746 142.273,75.746C142.273,75.746 143.106,81.77 141.658,83.623C140.373,85.268 134.724,85.212 134.724,85.212C134.724,85.212 136.112,93.717 134.801,96.264C133.491,98.811 125.091,95.877 125.091,95.877" style="fill:none;stroke:white;stroke-width:3.83px;"/>
        </g>
        <g transform="matrix(0.00171123,0.999999,0.999999,-0.00171123,139.166,-186.26)">
            <g transform="matrix(0.132831,0.31526,-0.31526,0.132831,860.401,338.608)">
                <path d="M391.04,640.642C433.348,608.635 469.23,585.644 511.831,544.255C562.177,482.487 575.191,430.633 584.719,407.207C587.707,399.862 597.522,383.52 608.31,362.047C624.495,329.83 631.081,309.282 631.363,309.021C638.033,302.849 664.517,317.999 670.014,326.846C670.048,326.9 674.069,362.302 665.97,400.843C665.375,403.676 661.497,422.13 655.155,435.373C649.896,446.353 611.576,500.423 533.002,554.576C487.885,592.467 440.348,618.655 396.49,648.571C397.146,649.89 395.549,652.03 395.363,652.278C393.811,654.358 390.802,656.423 390.36,656.726C387.92,658.401 386.008,659.738 384.68,659.519C383.331,659.296 381.725,656.671 380.249,654.724C378.516,652.439 376.471,649.994 376.734,648.001C376.992,646.041 379.134,644.252 381.736,642.477C386.064,639.525 390.803,640.582 391.04,640.642Z" style="fill:none;stroke:rgb(41,49,108);stroke-width:20.63px;"/>
                <path d="M391.04,640.642C433.348,608.635 469.23,585.644 511.831,544.255C562.177,482.487 575.191,430.633 584.719,407.207C587.707,399.862 597.522,383.52 608.31,362.047C624.495,329.83 631.081,309.282 631.363,309.021C638.033,302.849 664.517,317.999 670.014,326.846C670.048,326.9 674.069,362.302 665.97,400.843C665.375,403.676 661.497,422.13 655.155,435.373C649.896,446.353 611.576,500.423 533.002,554.576C487.885,592.467 440.348,618.655 396.49,648.571C397.146,649.89 395.549,652.03 395.363,652.278C393.811,654.358 390.802,656.423 390.36,656.726C387.92,658.401 386.008,659.738 384.68,659.519C383.331,659.296 381.725,656.671 380.249,654.724C378.516,652.439 376.471,649.994 376.734,648.001C376.992,646.041 379.134,644.252 381.736,642.477C386.064,639.525 390.803,640.582 391.04,640.642Z" style="fill:white;"/>
            </g>
        </g>
        <g transform="matrix(0.00173335,1.01292,1.10523,-0.00189131,109.766,-193.196)">
            <g transform="matrix(0.132831,0.31526,-0.31526,0.132831,847.396,312.05)">
                <path d="M352.512,619.749C391.33,595.17 427.406,555.408 455.801,512.764C496.753,437.059 505.871,370.883 512.933,340.295C515.083,330.98 521.944,310.94 529.137,284.975C546.633,221.82 549.724,181.372 550.271,180.062C553.805,171.602 565.248,172.948 570.804,174.284C578.142,176.049 590.983,184.143 595.553,190.965C595.556,190.969 598.383,217.842 595.909,253.608C593.81,283.963 588.918,306.558 587.273,314.259C586.709,316.902 583.616,334.53 578.314,350.536C572.519,368.036 537.969,444.4 470.695,520.599C438.195,563.299 397.244,605.997 357.38,631.256C357.78,632.431 357.755,636.463 352.479,639.679C351.127,640.504 349.071,641.846 347.809,641.108C346.414,640.292 345.102,637.073 343.007,632.734C338.804,624.027 337.519,621.637 344.149,618.703C347.859,617.061 351.765,619.23 352.512,619.749Z" style="fill:none;stroke:rgb(41,49,108);stroke-width:18.88px;"/>
                <path d="M352.512,619.749C391.33,595.17 427.406,555.408 455.801,512.764C496.753,437.059 505.871,370.883 512.933,340.295C515.083,330.98 521.944,310.94 529.137,284.975C546.633,221.82 549.724,181.372 550.271,180.062C553.805,171.602 565.248,172.948 570.804,174.284C578.142,176.049 590.983,184.143 595.553,190.965C595.556,190.969 598.383,217.842 595.909,253.608C593.81,283.963 588.918,306.558 587.273,314.259C586.709,316.902 583.616,334.53 578.314,350.536C572.519,368.036 537.969,444.4 470.695,520.599C438.195,563.299 397.244,605.997 357.38,631.256C357.78,632.431 357.755,636.463 352.479,639.679C351.127,640.504 349.071,641.846 347.809,641.108C346.414,640.292 345.102,637.073 343.007,632.734C338.804,624.027 337.519,621.637 344.149,618.703C347.859,617.061 351.765,619.23 352.512,619.749Z" style="fill:white;"/>
            </g>
        </g>
        <g transform="matrix(1,0,0,1,-18.1915,-29.8393)">
            <g transform="matrix(0.132831,0.31526,-0.31526,0.132831,860.401,338.608)">
                <path d="M425.641,617.766C439.002,607.913 448.189,600.796 462.518,589.467C484.889,571.779 503.144,557.759 523.329,537.233C566.84,479.872 577.889,428.814 586.363,406.307C589.06,399.144 598.245,383.132 608.58,361.986C624.377,329.663 631.015,309.345 631.279,309.101C637.978,302.896 664.33,318.138 669.782,327.072C669.827,327.146 673.559,362.838 665.958,401.174C665.402,403.977 661.746,422.413 655.788,435.414C651.968,443.751 617.641,496.767 543.178,548.627C500.656,585.471 446.211,617.662 432.952,626.013C435.093,629.108 428.994,632.917 428.413,633.28C426.867,634.246 424.516,635.804 423.13,635.495C421.605,635.155 420.232,632.831 417.919,629.903C413.476,624.282 410.952,621.991 417.229,618.11C417.802,617.756 420.715,615.954 425.641,617.766Z" style="fill:none;stroke:rgb(41,49,108);stroke-width:20.63px;"/>
                <path d="M425.641,617.766C439.002,607.913 448.189,600.796 462.518,589.467C484.889,571.779 503.144,557.759 523.329,537.233C566.84,479.872 577.889,428.814 586.363,406.307C589.06,399.144 598.245,383.132 608.58,361.986C624.377,329.663 631.015,309.345 631.279,309.101C637.978,302.896 664.33,318.138 669.782,327.072C669.827,327.146 673.559,362.838 665.958,401.174C665.402,403.977 661.746,422.413 655.788,435.414C651.968,443.751 617.641,496.767 543.178,548.627C500.656,585.471 446.211,617.662 432.952,626.013C435.093,629.108 428.994,632.917 428.413,633.28C426.867,634.246 424.516,635.804 423.13,635.495C421.605,635.155 420.232,632.831 417.919,629.903C413.476,624.282 410.952,621.991 417.229,618.11C417.802,617.756 420.715,615.954 425.641,617.766Z" style="fill:white;"/>
            </g>
        </g>
    </g>
    <g>
        <g transform="matrix(7.03742e-17,1.1493,-1.1493,7.03742e-17,1009.52,-9.12008)">
            <path d="M52.488,49.727C52.488,49.727 77.647,72.187 108.959,80.973C140.272,89.758 111.52,79.203 110.556,78.925C81.552,70.551 52.488,49.727 52.488,49.727Z" style="fill:white;"/>
        </g>
        <g transform="matrix(1.07356e-16,1.75326,-1.26,7.71525e-17,1019.02,-139.336)">
            <ellipse cx="213.532" cy="93.709" rx="5.969" ry="7.899" style="fill:white;"/>
        </g>
        <g transform="matrix(8.76832e-16,14.3198,-10.8728,6.65768e-16,1896.95,-2832.66)">
            <ellipse cx="213.453" cy="94.254" rx="0.661" ry="0.817" style="fill:white;"/>
        </g>
        <g transform="matrix(7.49785e-17,1.22449,-1.23633,7.57035e-17,1021.08,-22.4285)">
            <ellipse cx="181.818" cy="127.943" rx="4.831" ry="4.905" style="fill:white;"/>
        </g>
        <g transform="matrix(7.03742e-17,1.1493,-1.1493,7.03742e-17,1009.52,-9.12008)">
            <ellipse cx="126.817" cy="183.122" rx="4.899" ry="4.968" style="fill:white;"/>
        </g>
        <g transform="matrix(7.03742e-17,1.1493,-1.1493,7.03742e-17,1009.52,-9.12008)">
            <ellipse cx="118.477" cy="203.895" rx="8.017" ry="7.903" style="fill:white;"/>
        </g>
        <g transform="matrix(7.03742e-17,1.1493,-1.1493,7.03742e-17,1009.52,-9.12008)">
            <ellipse cx="93.267" cy="213.542" rx="8.888" ry="8.461" style="fill:white;"/>
        </g>
        <g transform="matrix(6.99756e-17,1.14279,-1.26261,7.73125e-17,1025.3,-9.24729)">
            <path d="M123.622,110.761C132.357,110.761 139.448,117.289 139.448,125.33C139.448,133.37 132.357,139.898 123.622,139.898C114.888,139.898 107.797,133.37 107.797,125.33C107.797,117.289 114.888,110.761 123.622,110.761ZM121.968,114.994C116.491,114.994 112.045,119.091 112.045,124.137C112.045,129.183 116.491,133.279 121.968,133.279C127.444,133.279 131.891,129.183 131.891,124.137C131.891,119.091 127.444,114.994 121.968,114.994Z" style="fill:white;"/>
        </g>
        <g transform="matrix(7.03742e-17,1.1493,-1.1493,7.03742e-17,1009.52,-9.12008)">
            <path d="M89.865,93.034C89.865,93.034 102.033,114.99 105.281,119.404C106.085,120.498 109.352,119.517 109.352,119.517L111.189,115.209L89.865,93.034Z" style="fill:white;"/>
        </g>
        <g transform="matrix(7.03742e-17,1.1493,-1.1493,7.03742e-17,1009.52,-9.12008)">
            <path d="M88.96,88.052L113.571,112.465L119.059,109.672C119.059,109.672 119.794,106.581 118.751,105.832C113.735,102.228 88.96,88.052 88.96,88.052Z" style="fill:white;"/>
        </g>
        <g transform="matrix(-1.14922,-0.0135296,-0.0135296,1.14922,1009.72,-9.64013)">
            <path d="M38.908,44.69C38.908,44.69 26.549,62.092 21.04,89.224C16.672,110.736 24.308,129.823 24.308,129.823C24.308,129.823 24.416,125.823 28.555,120.697C32.397,115.938 37.133,115.211 37.133,115.211C37.133,115.211 34.037,119.689 32.949,127.137C31.833,134.776 36.149,139.617 36.149,139.617C36.149,139.617 37.802,131.445 39.405,129.09C40.775,127.075 45.762,125.484 45.762,125.484C45.762,125.484 44.951,133.462 45.388,137.105C45.812,140.634 48.384,147.34 48.384,147.34C48.384,147.34 49.204,139.16 51.33,136.019C53.573,132.704 56.826,145.828 56.826,145.828C56.826,145.828 57.71,142.041 59.542,137.451C60.646,134.687 68.472,146.438 67.826,142.37C67.768,142.003 69.368,136.498 70.533,133.823C71.492,131.619 77.086,136.227 77.086,136.227C77.086,136.227 77.939,129.505 80.585,128.723C83.821,127.767 96.498,130.49 96.498,130.49C96.498,130.49 85.402,107.411 76.855,92.977C60.038,64.578 38.908,44.69 38.908,44.69Z" style="fill:white;"/>
        </g>
        <g transform="matrix(7.03742e-17,1.1493,-1.1493,7.03742e-17,1009.52,-9.12008)">
            <path d="M34.931,35.623C34.931,35.623 65.166,11.773 98.581,12.856C152.605,14.606 140.009,28.684 140.009,28.684C140.009,28.684 146.049,32.637 147.06,34.752C148.023,36.765 146.077,41.373 146.077,41.373C146.077,41.373 151.851,43.155 153.625,45.385C158.293,51.25 151.572,54.243 151.572,54.243C153.644,55.392 156.864,57.943 155.991,60.078C154.018,64.903 148.095,64.334 148.095,64.334C148.095,64.334 149.651,70.936 148.62,72.777C147.589,74.618 142.273,75.746 142.273,75.746C142.273,75.746 143.106,81.77 141.658,83.623C140.373,85.268 134.724,85.212 134.724,85.212C134.724,85.212 136.112,93.717 134.801,96.264C133.491,98.811 125.091,95.877 125.091,95.877" style="fill:none;stroke:white;stroke-width:3.83px;"/>
        </g>
        <g transform="matrix(-0.270824,0.962629,-0.962629,-0.270824,1646.1,-428.616)">
            <g transform="matrix(-0.0408813,0.10957,-0.107072,-0.0399492,847.749,599.842)">
                <path d="M399.018,609.584C417.815,580.224 442.182,543.001 467.79,505.013C482.642,468.703 506.292,417.158 516.343,403.511C524.55,392.368 575.859,355.702 575.913,355.693C583.903,354.311 602.094,372.84 604.219,380.368C604.246,380.462 583.15,437.26 572.78,452.67C566.031,462.699 499.806,516.316 489.603,524.516C461.453,559.266 434.144,593.58 412.679,620.92C413.276,621.455 417.074,625.541 413.029,630.539C412.007,631.801 410.736,633.519 408.958,633.181C406.944,632.8 403.414,630.09 398.295,626.405C388.164,619.111 384.731,616.568 389.367,610.94C391.978,607.771 397.772,609.177 399.018,609.584Z" style="fill:white;"/>
            </g>
        </g>
        <g transform="matrix(0.240346,0.970687,-0.970687,0.240346,1266.33,-741.458)">
            <g transform="matrix(-0.0408813,0.10957,-0.107072,-0.0399492,847.749,599.842)">
                <path d="M399.018,609.584C417.815,580.224 442.182,543.001 467.79,505.013C482.642,468.703 506.292,417.158 516.343,403.511C524.55,392.368 575.859,355.702 575.913,355.693C583.903,354.311 602.094,372.84 604.219,380.368C604.246,380.462 583.15,437.26 572.78,452.67C566.031,462.699 499.806,516.316 489.603,524.516C461.453,559.266 434.144,593.58 412.679,620.92C413.276,621.455 417.074,625.541 413.029,630.539C412.007,631.801 410.736,633.519 408.958,633.181C406.944,632.8 403.414,630.09 398.295,626.405C388.164,619.111 384.731,616.568 389.367,610.94C391.978,607.771 397.772,609.177 399.018,609.584Z" style="fill:white;"/>
            </g>
        </g>
        <g transform="matrix(0.618766,0.785575,-0.785575,0.618766,873.876,-827.153)">
            <g transform="matrix(-0.0408813,0.10957,-0.107072,-0.0399492,847.749,599.842)">
                <path d="M399.018,609.584C417.815,580.224 442.182,543.001 467.79,505.013C482.642,468.703 506.292,417.158 516.343,403.511C524.55,392.368 575.859,355.702 575.913,355.693C583.903,354.311 602.094,372.84 604.219,380.368C604.246,380.462 583.15,437.26 572.78,452.67C566.031,462.699 499.806,516.316 489.603,524.516C461.453,559.266 434.144,593.58 412.679,620.92C413.276,621.455 417.074,625.541 413.029,630.539C412.007,631.801 410.736,633.519 408.958,633.181C406.944,632.8 403.414,630.09 398.295,626.405C388.164,619.111 384.731,616.568 389.367,610.94C391.978,607.771 397.772,609.177 399.018,609.584Z" style="fill:white;"/>
            </g>
        </g>
        <g transform="matrix(6.20238e-17,1.01293,-1.10523,6.76759e-17,1509.69,-647.842)">
            <g transform="matrix(0.132831,0.31526,-0.31526,0.132831,847.396,312.05)">
                <path d="M352.512,619.749C391.33,595.17 427.406,555.408 455.801,512.764C496.753,437.059 505.871,370.883 512.933,340.295C515.083,330.98 521.944,310.94 529.137,284.975C546.633,221.82 549.724,181.372 550.271,180.062C553.805,171.602 565.248,172.948 570.804,174.284C578.142,176.049 590.983,184.143 595.553,190.965C595.556,190.969 598.383,217.842 595.909,253.608C593.81,283.963 588.918,306.558 587.273,314.259C586.709,316.902 583.616,334.53 578.314,350.536C572.519,368.036 537.969,444.4 470.695,520.599C438.195,563.299 397.244,605.997 357.38,631.256C357.78,632.431 357.755,636.463 352.479,639.679C351.127,640.504 349.071,641.846 347.809,641.108C346.414,640.292 345.102,637.073 343.007,632.734C338.804,624.027 337.519,621.637 344.149,618.703C347.859,617.061 351.765,619.23 352.512,619.749Z" style="fill:none;stroke:rgb(41,49,108);stroke-width:18.88px;"/>
                <path d="M352.512,619.749C391.33,595.17 427.406,555.408 455.801,512.764C496.753,437.059 505.871,370.883 512.933,340.295C515.083,330.98 521.944,310.94 529.137,284.975C546.633,221.82 549.724,181.372 550.271,180.062C553.805,171.602 565.248,172.948 570.804,174.284C578.142,176.049 590.983,184.143 595.553,190.965C595.556,190.969 598.383,217.842 595.909,253.608C593.81,283.963 588.918,306.558 587.273,314.259C586.709,316.902 583.616,334.53 578.314,350.536C572.519,368.036 537.969,444.4 470.695,520.599C438.195,563.299 397.244,605.997 357.38,631.256C357.78,632.431 357.755,636.463 352.479,639.679C351.127,640.504 349.071,641.846 347.809,641.108C346.414,640.292 345.102,637.073 343.007,632.734C338.804,624.027 337.519,621.637 344.149,618.703C347.859,617.061 351.765,619.23 352.512,619.749Z" style="fill:white;"/>
            </g>
        </g>
        <g transform="matrix(-1.1493,0.00196672,0.00196672,1.1493,1008.47,-10.4945)">
            <path d="M52.488,49.727C52.488,49.727 77.647,72.187 108.959,80.973C140.272,89.758 111.52,79.203 110.556,78.925C81.552,70.551 52.488,49.727 52.488,49.727Z" style="fill:white;"/>
        </g>
        <g transform="matrix(0.0154962,1.14919,-1.14919,0.0154962,1008.99,-10.7013)">
            <path d="M38.908,44.69C38.908,44.69 26.549,62.092 21.04,89.224C16.672,110.736 24.308,129.823 24.308,129.823C24.308,129.823 24.416,125.823 28.555,120.697C32.397,115.938 37.133,115.211 37.133,115.211C37.133,115.211 34.037,119.689 32.949,127.137C31.833,134.776 36.149,139.617 36.149,139.617C36.149,139.617 37.802,131.445 39.405,129.09C40.775,127.075 45.762,125.484 45.762,125.484C45.762,125.484 44.951,133.462 45.388,137.105C45.812,140.634 48.384,147.34 48.384,147.34C48.384,147.34 49.204,139.16 51.33,136.019C53.573,132.704 56.826,145.828 56.826,145.828C56.826,145.828 57.71,142.041 59.542,137.451C60.646,134.687 68.472,146.438 67.826,142.37C67.768,142.003 69.368,136.498 70.533,133.823C71.492,131.619 77.086,136.227 77.086,136.227C77.086,136.227 77.939,129.505 80.585,128.723C83.821,127.767 96.498,130.49 96.498,130.49C96.498,130.49 85.402,107.411 76.855,92.977C60.038,64.578 38.908,44.69 38.908,44.69Z" style="fill:white;"/>
        </g>
        <g transform="matrix(-1.1493,0.00196672,0.00196672,1.1493,1008.47,-10.4945)">
            <path d="M34.931,35.623C34.931,35.623 65.166,11.773 98.581,12.856C152.605,14.606 140.009,28.684 140.009,28.684C140.009,28.684 146.049,32.637 147.06,34.752C148.023,36.765 146.077,41.373 146.077,41.373C146.077,41.373 151.851,43.155 153.625,45.385C158.293,51.25 151.572,54.243 151.572,54.243C153.644,55.392 156.864,57.943 155.991,60.078C154.018,64.903 148.095,64.334 148.095,64.334C148.095,64.334 149.651,70.936 148.62,72.777C147.589,74.618 142.273,75.746 142.273,75.746C142.273,75.746 143.106,81.77 141.658,83.623C140.373,85.268 134.724,85.212 134.724,85.212C134.724,85.212 136.112,93.717 134.801,96.264C133.491,98.811 125.091,95.877 125.091,95.877" style="fill:none;stroke:white;stroke-width:3.83px;"/>
        </g>
        <g transform="matrix(-0.999999,0.00171123,0.00171123,0.999999,1638.69,-483.352)">
            <g transform="matrix(0.132831,0.31526,-0.31526,0.132831,860.401,338.608)">
                <path d="M391.04,640.642C433.348,608.635 469.23,585.644 511.831,544.255C562.177,482.487 575.191,430.633 584.719,407.207C587.707,399.862 597.522,383.52 608.31,362.047C624.495,329.83 631.081,309.282 631.363,309.021C638.033,302.849 664.517,317.999 670.014,326.846C670.048,326.9 674.069,362.302 665.97,400.843C665.375,403.676 661.497,422.13 655.155,435.373C649.896,446.353 611.576,500.423 533.002,554.576C487.885,592.467 440.348,618.655 396.49,648.571C397.146,649.89 395.549,652.03 395.363,652.278C393.811,654.358 390.802,656.423 390.36,656.726C387.92,658.401 386.008,659.738 384.68,659.519C383.331,659.296 381.725,656.671 380.249,654.724C378.516,652.439 376.471,649.994 376.734,648.001C376.992,646.041 379.134,644.252 381.736,642.477C386.064,639.525 390.803,640.582 391.04,640.642Z" style="fill:none;stroke:rgb(41,49,108);stroke-width:20.63px;"/>
                <path d="M391.04,640.642C433.348,608.635 469.23,585.644 511.831,544.255C562.177,482.487 575.191,430.633 584.719,407.207C587.707,399.862 597.522,383.52 608.31,362.047C624.495,329.83 631.081,309.282 631.363,309.021C638.033,302.849 664.517,317.999 670.014,326.846C670.048,326.9 674.069,362.302 665.97,400.843C665.375,403.676 661.497,422.13 655.155,435.373C649.896,446.353 611.576,500.423 533.002,554.576C487.885,592.467 440.348,618.655 396.49,648.571C397.146,649.89 395.549,652.03 395.363,652.278C393.811,654.358 390.802,656.423 390.36,656.726C387.92,658.401 386.008,659.738 384.68,659.519C383.331,659.296 381.725,656.671 380.249,654.724C378.516,652.439 376.471,649.994 376.734,648.001C376.992,646.041 379.134,644.252 381.736,642.477C386.064,639.525 390.803,640.582 391.04,640.642Z" style="fill:white;"/>
            </g>
        </g>
        <g transform="matrix(-1.01292,0.00173335,0.00189131,1.10523,1645.63,-512.752)">
            <g transform="matrix(0.132831,0.31526,-0.31526,0.132831,847.396,312.05)">
                <path d="M352.512,619.749C391.33,595.17 427.406,555.408 455.801,512.764C496.753,437.059 505.871,370.883 512.933,340.295C515.083,330.98 521.944,310.94 529.137,284.975C546.633,221.82 549.724,181.372 550.271,180.062C553.805,171.602 565.248,172.948 570.804,174.284C578.142,176.049 590.983,184.143 595.553,190.965C595.556,190.969 598.383,217.842 595.909,253.608C593.81,283.963 588.918,306.558 587.273,314.259C586.709,316.902 583.616,334.53 578.314,350.536C572.519,368.036 537.969,444.4 470.695,520.599C438.195,563.299 397.244,605.997 357.38,631.256C357.78,632.431 357.755,636.463 352.479,639.679C351.127,640.504 349.071,641.846 347.809,641.108C346.414,640.292 345.102,637.073 343.007,632.734C338.804,624.027 337.519,621.637 344.149,618.703C347.859,617.061 351.765,619.23 352.512,619.749Z" style="fill:none;stroke:rgb(41,49,108);stroke-width:18.88px;"/>
                <path d="M352.512,619.749C391.33,595.17 427.406,555.408 455.801,512.764C496.753,437.059 505.871,370.883 512.933,340.295C515.083,330.98 521.944,310.94 529.137,284.975C546.633,221.82 549.724,181.372 550.271,180.062C553.805,171.602 565.248,172.948 570.804,174.284C578.142,176.049 590.983,184.143 595.553,190.965C595.556,190.969 598.383,217.842 595.909,253.608C593.81,283.963 588.918,306.558 587.273,314.259C586.709,316.902 583.616,334.53 578.314,350.536C572.519,368.036 537.969,444.4 470.695,520.599C438.195,563.299 397.244,605.997 357.38,631.256C357.78,632.431 357.755,636.463 352.479,639.679C351.127,640.504 349.071,641.846 347.809,641.108C346.414,640.292 345.102,637.073 343.007,632.734C338.804,624.027 337.519,621.637 344.149,618.703C347.859,617.061 351.765,619.23 352.512,619.749Z" style="fill:white;"/>
            </g>
        </g>
        <g transform="matrix(6.12323e-17,1,-1,6.12323e-17,1482.27,-640.71)">
            <g transform="matrix(0.132831,0.31526,-0.31526,0.132831,860.401,338.608)">
                <path d="M425.641,617.766C439.002,607.913 448.189,600.796 462.518,589.467C484.889,571.779 503.144,557.759 523.329,537.233C566.84,479.872 577.889,428.814 586.363,406.307C589.06,399.144 598.245,383.132 608.58,361.986C624.377,329.663 631.015,309.345 631.279,309.101C637.978,302.896 664.33,318.138 669.782,327.072C669.827,327.146 673.559,362.838 665.958,401.174C665.402,403.977 661.746,422.413 655.788,435.414C651.968,443.751 617.641,496.767 543.178,548.627C500.656,585.471 446.211,617.662 432.952,626.013C435.093,629.108 428.994,632.917 428.413,633.28C426.867,634.246 424.516,635.804 423.13,635.495C421.605,635.155 420.232,632.831 417.919,629.903C413.476,624.282 410.952,621.991 417.229,618.11C417.802,617.756 420.715,615.954 425.641,617.766Z" style="fill:none;stroke:rgb(41,49,108);stroke-width:20.63px;"/>
                <path d="M425.641,617.766C439.002,607.913 448.189,600.796 462.518,589.467C484.889,571.779 503.144,557.759 523.329,537.233C566.84,479.872 577.889,428.814 586.363,406.307C589.06,399.144 598.245,383.132 608.58,361.986C624.377,329.663 631.015,309.345 631.279,309.101C637.978,302.896 664.33,318.138 669.782,327.072C669.827,327.146 673.559,362.838 665.958,401.174C665.402,403.977 661.746,422.413 655.788,435.414C651.968,443.751 617.641,496.767 543.178,548.627C500.656,585.471 446.211,617.662 432.952,626.013C435.093,629.108 428.994,632.917 428.413,633.28C426.867,634.246 424.516,635.804 423.13,635.495C421.605,635.155 420.232,632.831 417.919,629.903C413.476,624.282 410.952,621.991 417.229,618.11C417.802,617.756 420.715,615.954 425.641,617.766Z" style="fill:white;"/>
            </g>
        </g>
    </g>
    <g transform="matrix(-1,1.22465e-16,-1.22465e-16,-1,1622.59,1453.32)">
        <g transform="matrix(1.1493,0,0,1.1493,613.398,442.916)">
            <path d="M52.488,49.727C52.488,49.727 77.647,72.187 108.959,80.973C140.272,89.758 111.52,79.203 110.556,78.925C81.552,70.551 52.488,49.727 52.488,49.727Z" style="fill:white;"/>
        </g>
        <g transform="matrix(1.75326,0,0,1.26,483.182,433.417)">
            <ellipse cx="213.532" cy="93.709" rx="5.969" ry="7.899" style="fill:white;"/>
        </g>
        <g transform="matrix(14.3198,0,0,10.8728,-2210.14,-444.513)">
            <ellipse cx="213.453" cy="94.254" rx="0.661" ry="0.817" style="fill:white;"/>
        </g>
        <g transform="matrix(1.22449,0,0,1.23633,600.09,431.354)">
            <ellipse cx="181.818" cy="127.943" rx="4.831" ry="4.905" style="fill:white;"/>
        </g>
        <g transform="matrix(1.1493,0,0,1.1493,613.398,442.916)">
            <ellipse cx="126.817" cy="183.122" rx="4.899" ry="4.968" style="fill:white;"/>
        </g>
        <g transform="matrix(1.1493,0,0,1.1493,613.398,442.916)">
            <ellipse cx="118.477" cy="203.895" rx="8.017" ry="7.903" style="fill:white;"/>
        </g>
        <g transform="matrix(1.1493,0,0,1.1493,613.398,442.916)">
            <ellipse cx="93.267" cy="213.542" rx="8.888" ry="8.461" style="fill:white;"/>
        </g>
        <g transform="matrix(1.14279,0,0,1.26261,613.271,427.137)">
            <path d="M123.622,110.761C132.357,110.761 139.448,117.289 139.448,125.33C139.448,133.37 132.357,139.898 123.622,139.898C114.888,139.898 107.797,133.37 107.797,125.33C107.797,117.289 114.888,110.761 123.622,110.761ZM121.968,114.994C116.491,114.994 112.045,119.091 112.045,124.137C112.045,129.183 116.491,133.279 121.968,133.279C127.444,133.279 131.891,129.183 131.891,124.137C131.891,119.091 127.444,114.994 121.968,114.994Z" style="fill:white;"/>
        </g>
        <g transform="matrix(1.1493,0,0,1.1493,613.398,442.916)">
            <path d="M89.865,93.034C89.865,93.034 102.033,114.99 105.281,119.404C106.085,120.498 109.352,119.517 109.352,119.517L111.189,115.209L89.865,93.034Z" style="fill:white;"/>
        </g>
        <g transform="matrix(1.1493,0,0,1.1493,613.398,442.916)">
            <path d="M88.96,88.052L113.571,112.465L119.059,109.672C119.059,109.672 119.794,106.581 118.751,105.832C113.735,102.228 88.96,88.052 88.96,88.052Z" style="fill:white;"/>
        </g>
        <g transform="matrix(-0.0135296,1.14922,1.14922,0.0135296,612.878,442.71)">
            <path d="M38.908,44.69C38.908,44.69 26.549,62.092 21.04,89.224C16.672,110.736 24.308,129.823 24.308,129.823C24.308,129.823 24.416,125.823 28.555,120.697C32.397,115.938 37.133,115.211 37.133,115.211C37.133,115.211 34.037,119.689 32.949,127.137C31.833,134.776 36.149,139.617 36.149,139.617C36.149,139.617 37.802,131.445 39.405,129.09C40.775,127.075 45.762,125.484 45.762,125.484C45.762,125.484 44.951,133.462 45.388,137.105C45.812,140.634 48.384,147.34 48.384,147.34C48.384,147.34 49.204,139.16 51.33,136.019C53.573,132.704 56.826,145.828 56.826,145.828C56.826,145.828 57.71,142.041 59.542,137.451C60.646,134.687 68.472,146.438 67.826,142.37C67.768,142.003 69.368,136.498 70.533,133.823C71.492,131.619 77.086,136.227 77.086,136.227C77.086,136.227 77.939,129.505 80.585,128.723C83.821,127.767 96.498,130.49 96.498,130.49C96.498,130.49 85.402,107.411 76.855,92.977C60.038,64.578 38.908,44.69 38.908,44.69Z" style="fill:white;"/>
        </g>
        <g transform="matrix(1.1493,0,0,1.1493,613.398,442.916)">
            <path d="M34.931,35.623C34.931,35.623 65.166,11.773 98.581,12.856C152.605,14.606 140.009,28.684 140.009,28.684C140.009,28.684 146.049,32.637 147.06,34.752C148.023,36.765 146.077,41.373 146.077,41.373C146.077,41.373 151.851,43.155 153.625,45.385C158.293,51.25 151.572,54.243 151.572,54.243C153.644,55.392 156.864,57.943 155.991,60.078C154.018,64.903 148.095,64.334 148.095,64.334C148.095,64.334 149.651,70.936 148.62,72.777C147.589,74.618 142.273,75.746 142.273,75.746C142.273,75.746 143.106,81.77 141.658,83.623C140.373,85.268 134.724,85.212 134.724,85.212C134.724,85.212 136.112,93.717 134.801,96.264C133.491,98.811 125.091,95.877 125.091,95.877" style="fill:none;stroke:white;stroke-width:3.83px;"/>
        </g>
        <g transform="matrix(0.962629,0.270824,-0.270824,0.962629,193.903,-193.661)">
            <g transform="matrix(-0.0408813,0.10957,-0.107072,-0.0399492,847.749,599.842)">
                <path d="M399.018,609.584C417.815,580.224 442.182,543.001 467.79,505.013C482.642,468.703 506.292,417.158 516.343,403.511C524.55,392.368 575.859,355.702 575.913,355.693C583.903,354.311 602.094,372.84 604.219,380.368C604.246,380.462 583.15,437.26 572.78,452.67C566.031,462.699 499.806,516.316 489.603,524.516C461.453,559.266 434.144,593.58 412.679,620.92C413.276,621.455 417.074,625.541 413.029,630.539C412.007,631.801 410.736,633.519 408.958,633.181C406.944,632.8 403.414,630.09 398.295,626.405C388.164,619.111 384.731,616.568 389.367,610.94C391.978,607.771 397.772,609.177 399.018,609.584Z" style="fill:white;"/>
            </g>
        </g>
        <g transform="matrix(0.970687,-0.240346,0.240346,0.970687,-118.94,186.106)">
            <g transform="matrix(-0.0408813,0.10957,-0.107072,-0.0399492,847.749,599.842)">
                <path d="M399.018,609.584C417.815,580.224 442.182,543.001 467.79,505.013C482.642,468.703 506.292,417.158 516.343,403.511C524.55,392.368 575.859,355.702 575.913,355.693C583.903,354.311 602.094,372.84 604.219,380.368C604.246,380.462 583.15,437.26 572.78,452.67C566.031,462.699 499.806,516.316 489.603,524.516C461.453,559.266 434.144,593.58 412.679,620.92C413.276,621.455 417.074,625.541 413.029,630.539C412.007,631.801 410.736,633.519 408.958,633.181C406.944,632.8 403.414,630.09 398.295,626.405C388.164,619.111 384.731,616.568 389.367,610.94C391.978,607.771 397.772,609.177 399.018,609.584Z" style="fill:white;"/>
            </g>
        </g>
        <g transform="matrix(0.785575,-0.618766,0.618766,0.785575,-204.635,578.558)">
            <g transform="matrix(-0.0408813,0.10957,-0.107072,-0.0399492,847.749,599.842)">
                <path d="M399.018,609.584C417.815,580.224 442.182,543.001 467.79,505.013C482.642,468.703 506.292,417.158 516.343,403.511C524.55,392.368 575.859,355.702 575.913,355.693C583.903,354.311 602.094,372.84 604.219,380.368C604.246,380.462 583.15,437.26 572.78,452.67C566.031,462.699 499.806,516.316 489.603,524.516C461.453,559.266 434.144,593.58 412.679,620.92C413.276,621.455 417.074,625.541 413.029,630.539C412.007,631.801 410.736,633.519 408.958,633.181C406.944,632.8 403.414,630.09 398.295,626.405C388.164,619.111 384.731,616.568 389.367,610.94C391.978,607.771 397.772,609.177 399.018,609.584Z" style="fill:white;"/>
            </g>
        </g>
        <g transform="matrix(1.01293,0,0,1.10523,-25.3241,-57.2564)">
            <g transform="matrix(0.132831,0.31526,-0.31526,0.132831,847.396,312.05)">
                <path d="M352.512,619.749C391.33,595.17 427.406,555.408 455.801,512.764C496.753,437.059 505.871,370.883 512.933,340.295C515.083,330.98 521.944,310.94 529.137,284.975C546.633,221.82 549.724,181.372 550.271,180.062C553.805,171.602 565.248,172.948 570.804,174.284C578.142,176.049 590.983,184.143 595.553,190.965C595.556,190.969 598.383,217.842 595.909,253.608C593.81,283.963 588.918,306.558 587.273,314.259C586.709,316.902 583.616,334.53 578.314,350.536C572.519,368.036 537.969,444.4 470.695,520.599C438.195,563.299 397.244,605.997 357.38,631.256C357.78,632.431 357.755,636.463 352.479,639.679C351.127,640.504 349.071,641.846 347.809,641.108C346.414,640.292 345.102,637.073 343.007,632.734C338.804,624.027 337.519,621.637 344.149,618.703C347.859,617.061 351.765,619.23 352.512,619.749Z" style="fill:none;stroke:rgb(41,49,108);stroke-width:18.88px;"/>
                <path d="M352.512,619.749C391.33,595.17 427.406,555.408 455.801,512.764C496.753,437.059 505.871,370.883 512.933,340.295C515.083,330.98 521.944,310.94 529.137,284.975C546.633,221.82 549.724,181.372 550.271,180.062C553.805,171.602 565.248,172.948 570.804,174.284C578.142,176.049 590.983,184.143 595.553,190.965C595.556,190.969 598.383,217.842 595.909,253.608C593.81,283.963 588.918,306.558 587.273,314.259C586.709,316.902 583.616,334.53 578.314,350.536C572.519,368.036 537.969,444.4 470.695,520.599C438.195,563.299 397.244,605.997 357.38,631.256C357.78,632.431 357.755,636.463 352.479,639.679C351.127,640.504 349.071,641.846 347.809,641.108C346.414,640.292 345.102,637.073 343.007,632.734C338.804,624.027 337.519,621.637 344.149,618.703C347.859,617.061 351.765,619.23 352.512,619.749Z" style="fill:white;"/>
            </g>
        </g>
        <g transform="matrix(0.00196672,1.1493,1.1493,-0.00196672,612.024,443.965)">
            <path d="M52.488,49.727C52.488,49.727 77.647,72.187 108.959,80.973C140.272,89.758 111.52,79.203 110.556,78.925C81.552,70.551 52.488,49.727 52.488,49.727Z" style="fill:white;"/>
        </g>
        <g transform="matrix(1.14919,-0.0154962,0.0154962,1.14919,611.817,443.445)">
            <path d="M38.908,44.69C38.908,44.69 26.549,62.092 21.04,89.224C16.672,110.736 24.308,129.823 24.308,129.823C24.308,129.823 24.416,125.823 28.555,120.697C32.397,115.938 37.133,115.211 37.133,115.211C37.133,115.211 34.037,119.689 32.949,127.137C31.833,134.776 36.149,139.617 36.149,139.617C36.149,139.617 37.802,131.445 39.405,129.09C40.775,127.075 45.762,125.484 45.762,125.484C45.762,125.484 44.951,133.462 45.388,137.105C45.812,140.634 48.384,147.34 48.384,147.34C48.384,147.34 49.204,139.16 51.33,136.019C53.573,132.704 56.826,145.828 56.826,145.828C56.826,145.828 57.71,142.041 59.542,137.451C60.646,134.687 68.472,146.438 67.826,142.37C67.768,142.003 69.368,136.498 70.533,133.823C71.492,131.619 77.086,136.227 77.086,136.227C77.086,136.227 77.939,129.505 80.585,128.723C83.821,127.767 96.498,130.49 96.498,130.49C96.498,130.49 85.402,107.411 76.855,92.977C60.038,64.578 38.908,44.69 38.908,44.69Z" style="fill:white;"/>
        </g>
        <g transform="matrix(0.00196672,1.1493,1.1493,-0.00196672,612.024,443.965)">
            <path d="M34.931,35.623C34.931,35.623 65.166,11.773 98.581,12.856C152.605,14.606 140.009,28.684 140.009,28.684C140.009,28.684 146.049,32.637 147.06,34.752C148.023,36.765 146.077,41.373 146.077,41.373C146.077,41.373 151.851,43.155 153.625,45.385C158.293,51.25 151.572,54.243 151.572,54.243C153.644,55.392 156.864,57.943 155.991,60.078C154.018,64.903 148.095,64.334 148.095,64.334C148.095,64.334 149.651,70.936 148.62,72.777C147.589,74.618 142.273,75.746 142.273,75.746C142.273,75.746 143.106,81.77 141.658,83.623C140.373,85.268 134.724,85.212 134.724,85.212C134.724,85.212 136.112,93.717 134.801,96.264C133.491,98.811 125.091,95.877 125.091,95.877" style="fill:none;stroke:white;stroke-width:3.83px;"/>
        </g>
        <g transform="matrix(0.00171123,0.999999,0.999999,-0.00171123,139.166,-186.26)">
            <g transform="matrix(0.132831,0.31526,-0.31526,0.132831,860.401,338.608)">
                <path d="M391.04,640.642C433.348,608.635 469.23,585.644 511.831,544.255C562.177,482.487 575.191,430.633 584.719,407.207C587.707,399.862 597.522,383.52 608.31,362.047C624.495,329.83 631.081,309.282 631.363,309.021C638.033,302.849 664.517,317.999 670.014,326.846C670.048,326.9 674.069,362.302 665.97,400.843C665.375,403.676 661.497,422.13 655.155,435.373C649.896,446.353 611.576,500.423 533.002,554.576C487.885,592.467 440.348,618.655 396.49,648.571C397.146,649.89 395.549,652.03 395.363,652.278C393.811,654.358 390.802,656.423 390.36,656.726C387.92,658.401 386.008,659.738 384.68,659.519C383.331,659.296 381.725,656.671 380.249,654.724C378.516,652.439 376.471,649.994 376.734,648.001C376.992,646.041 379.134,644.252 381.736,642.477C386.064,639.525 390.803,640.582 391.04,640.642Z" style="fill:none;stroke:rgb(41,49,108);stroke-width:20.63px;"/>
                <path d="M391.04,640.642C433.348,608.635 469.23,585.644 511.831,544.255C562.177,482.487 575.191,430.633 584.719,407.207C587.707,399.862 597.522,383.52 608.31,362.047C624.495,329.83 631.081,309.282 631.363,309.021C638.033,302.849 664.517,317.999 670.014,326.846C670.048,326.9 674.069,362.302 665.97,400.843C665.375,403.676 661.497,422.13 655.155,435.373C649.896,446.353 611.576,500.423 533.002,554.576C487.885,592.467 440.348,618.655 396.49,648.571C397.146,649.89 395.549,652.03 395.363,652.278C393.811,654.358 390.802,656.423 390.36,656.726C387.92,658.401 386.008,659.738 384.68,659.519C383.331,659.296 381.725,656.671 380.249,654.724C378.516,652.439 376.471,649.994 376.734,648.001C376.992,646.041 379.134,644.252 381.736,642.477C386.064,639.525 390.803,640.582 391.04,640.642Z" style="fill:white;"/>
            </g>
        </g>
        <g transform="matrix(0.00173335,1.01292,1.10523,-0.00189131,109.766,-193.196)">
            <g transform="matrix(0.132831,0.31526,-0.31526,0.132831,847.396,312.05)">
                <path d="M352.512,619.749C391.33,595.17 427.406,555.408 455.801,512.764C496.753,437.059 505.871,370.883 512.933,340.295C515.083,330.98 521.944,310.94 529.137,284.975C546.633,221.82 549.724,181.372 550.271,180.062C553.805,171.602 565.248,172.948 570.804,174.284C578.142,176.049 590.983,184.143 595.553,190.965C595.556,190.969 598.383,217.842 595.909,253.608C593.81,283.963 588.918,306.558 587.273,314.259C586.709,316.902 583.616,334.53 578.314,350.536C572.519,368.036 537.969,444.4 470.695,520.599C438.195,563.299 397.244,605.997 357.38,631.256C357.78,632.431 357.755,636.463 352.479,639.679C351.127,640.504 349.071,641.846 347.809,641.108C346.414,640.292 345.102,637.073 343.007,632.734C338.804,624.027 337.519,621.637 344.149,618.703C347.859,617.061 351.765,619.23 352.512,619.749Z" style="fill:none;stroke:rgb(41,49,108);stroke-width:18.88px;"/>
                <path d="M352.512,619.749C391.33,595.17 427.406,555.408 455.801,512.764C496.753,437.059 505.871,370.883 512.933,340.295C515.083,330.98 521.944,310.94 529.137,284.975C546.633,221.82 549.724,181.372 550.271,180.062C553.805,171.602 565.248,172.948 570.804,174.284C578.142,176.049 590.983,184.143 595.553,190.965C595.556,190.969 598.383,217.842 595.909,253.608C593.81,283.963 588.918,306.558 587.273,314.259C586.709,316.902 583.616,334.53 578.314,350.536C572.519,368.036 537.969,444.4 470.695,520.599C438.195,563.299 397.244,605.997 357.38,631.256C357.78,632.431 357.755,636.463 352.479,639.679C351.127,640.504 349.071,641.846 347.809,641.108C346.414,640.292 345.102,637.073 343.007,632.734C338.804,624.027 337.519,621.637 344.149,618.703C347.859,617.061 351.765,619.23 352.512,619.749Z" style="fill:white;"/>
            </g>
        </g>
        <g transform="matrix(1,0,0,1,-18.1915,-29.8393)">
            <g transform="matrix(0.132831,0.31526,-0.31526,0.132831,860.401,338.608)">
                <path d="M425.641,617.766C439.002,607.913 448.189,600.796 462.518,589.467C484.889,571.779 503.144,557.759 523.329,537.233C566.84,479.872 577.889,428.814 586.363,406.307C589.06,399.144 598.245,383.132 608.58,361.986C624.377,329.663 631.015,309.345 631.279,309.101C637.978,302.896 664.33,318.138 669.782,327.072C669.827,327.146 673.559,362.838 665.958,401.174C665.402,403.977 661.746,422.413 655.788,435.414C651.968,443.751 617.641,496.767 543.178,548.627C500.656,585.471 446.211,617.662 432.952,626.013C435.093,629.108 428.994,632.917 428.413,633.28C426.867,634.246 424.516,635.804 423.13,635.495C421.605,635.155 420.232,632.831 417.919,629.903C413.476,624.282 410.952,621.991 417.229,618.11C417.802,617.756 420.715,615.954 425.641,617.766Z" style="fill:none;stroke:rgb(41,49,108);stroke-width:20.63px;"/>
                <path d="M425.641,617.766C439.002,607.913 448.189,600.796 462.518,589.467C484.889,571.779 503.144,557.759 523.329,537.233C566.84,479.872 577.889,428.814 586.363,406.307C589.06,399.144 598.245,383.132 608.58,361.986C624.377,329.663 631.015,309.345 631.279,309.101C637.978,302.896 664.33,318.138 669.782,327.072C669.827,327.146 673.559,362.838 665.958,401.174C665.402,403.977 661.746,422.413 655.788,435.414C651.968,443.751 617.641,496.767 543.178,548.627C500.656,585.471 446.211,617.662 432.952,626.013C435.093,629.108 428.994,632.917 428.413,633.28C426.867,634.246 424.516,635.804 423.13,635.495C421.605,635.155 420.232,632.831 417.919,629.903C413.476,624.282 410.952,621.991 417.229,618.11C417.802,617.756 420.715,615.954 425.641,617.766Z" style="fill:white;"/>
            </g>
        </g>
    </g>
    <g transform="matrix(6.12323e-17,-1,1,6.12323e-17,-454.064,1623.8)">
        <g transform="matrix(1.1493,0,0,1.1493,613.398,442.916)">
            <path d="M52.488,49.727C52.488,49.727 77.647,72.187 108.959,80.973C140.272,89.758 111.52,79.203 110.556,78.925C81.552,70.551 52.488,49.727 52.488,49.727Z" style="fill:white;"/>
        </g>
        <g transform="matrix(1.75326,0,0,1.26,483.182,433.417)">
            <ellipse cx="213.532" cy="93.709" rx="5.969" ry="7.899" style="fill:white;"/>
        </g>
        <g transform="matrix(14.3198,0,0,10.8728,-2210.14,-444.513)">
            <ellipse cx="213.453" cy="94.254" rx="0.661" ry="0.817" style="fill:white;"/>
        </g>
        <g transform="matrix(1.22449,0,0,1.23633,600.09,431.354)">
            <ellipse cx="181.818" cy="127.943" rx="4.831" ry="4.905" style="fill:white;"/>
        </g>
        <g transform="matrix(1.1493,0,0,1.1493,613.398,442.916)">
            <ellipse cx="126.817" cy="183.122" rx="4.899" ry="4.968" style="fill:white;"/>
        </g>
        <g transform="matrix(1.1493,0,0,1.1493,613.398,442.916)">
            <ellipse cx="118.477" cy="203.895" rx="8.017" ry="7.903" style="fill:white;"/>
        </g>
        <g transform="matrix(1.1493,0,0,1.1493,613.398,442.916)">
            <ellipse cx="93.267" cy="213.542" rx="8.888" ry="8.461" style="fill:white;"/>
        </g>
        <g transform="matrix(1.14279,0,0,1.26261,613.271,427.137)">
            <path d="M123.622,110.761C132.357,110.761 139.448,117.289 139.448,125.33C139.448,133.37 132.357,139.898 123.622,139.898C114.888,139.898 107.797,133.37 107.797,125.33C107.797,117.289 114.888,110.761 123.622,110.761ZM121.968,114.994C116.491,114.994 112.045,119.091 112.045,124.137C112.045,129.183 116.491,133.279 121.968,133.279C127.444,133.279 131.891,129.183 131.891,124.137C131.891,119.091 127.444,114.994 121.968,114.994Z" style="fill:white;"/>
        </g>
        <g transform="matrix(1.1493,0,0,1.1493,613.398,442.916)">
            <path d="M89.865,93.034C89.865,93.034 102.033,114.99 105.281,119.404C106.085,120.498 109.352,119.517 109.352,119.517L111.189,115.209L89.865,93.034Z" style="fill:white;"/>
        </g>
        <g transform="matrix(1.1493,0,0,1.1493,613.398,442.916)">
            <path d="M88.96,88.052L113.571,112.465L119.059,109.672C119.059,109.672 119.794,106.581 118.751,105.832C113.735,102.228 88.96,88.052 88.96,88.052Z" style="fill:white;"/>
        </g>
        <g transform="matrix(-0.0135296,1.14922,1.14922,0.0135296,612.878,442.71)">
            <path d="M38.908,44.69C38.908,44.69 26.549,62.092 21.04,89.224C16.672,110.736 24.308,129.823 24.308,129.823C24.308,129.823 24.416,125.823 28.555,120.697C32.397,115.938 37.133,115.211 37.133,115.211C37.133,115.211 34.037,119.689 32.949,127.137C31.833,134.776 36.149,139.617 36.149,139.617C36.149,139.617 37.802,131.445 39.405,129.09C40.775,127.075 45.762,125.484 45.762,125.484C45.762,125.484 44.951,133.462 45.388,137.105C45.812,140.634 48.384,147.34 48.384,147.34C48.384,147.34 49.204,139.16 51.33,136.019C53.573,132.704 56.826,145.828 56.826,145.828C56.826,145.828 57.71,142.041 59.542,137.451C60.646,134.687 68.472,146.438 67.826,142.37C67.768,142.003 69.368,136.498 70.533,133.823C71.492,131.619 77.086,136.227 77.086,136.227C77.086,136.227 77.939,129.505 80.585,128.723C83.821,127.767 96.498,130.49 96.498,130.49C96.498,130.49 85.402,107.411 76.855,92.977C60.038,64.578 38.908,44.69 38.908,44.69Z" style="fill:white;"/>
        </g>
        <g transform="matrix(1.1493,0,0,1.1493,613.398,442.916)">
            <path d="M34.931,35.623C34.931,35.623 65.166,11.773 98.581,12.856C152.605,14.606 140.009,28.684 140.009,28.684C140.009,28.684 146.049,32.637 147.06,34.752C148.023,36.765 146.077,41.373 146.077,41.373C146.077,41.373 151.851,43.155 153.625,45.385C158.293,51.25 151.572,54.243 151.572,54.243C153.644,55.392 156.864,57.943 155.991,60.078C154.018,64.903 148.095,64.334 148.095,64.334C148.095,64.334 149.651,70.936 148.62,72.777C147.589,74.618 142.273,75.746 142.273,75.746C142.273,75.746 143.106,81.77 141.658,83.623C140.373,85.268 134.724,85.212 134.724,85.212C134.724,85.212 136.112,93.717 134.801,96.264C133.491,98.811 125.091,95.877 125.091,95.877" style="fill:none;stroke:white;stroke-width:3.83px;"/>
        </g>
        <g transform="matrix(0.962629,0.270824,-0.270824,0.962629,193.903,-193.661)">
            <g transform="matrix(-0.0408813,0.10957,-0.107072,-0.0399492,847.749,599.842)">
                <path d="M399.018,609.584C417.815,580.224 442.182,543.001 467.79,505.013C482.642,468.703 506.292,417.158 516.343,403.511C524.55,392.368 575.859,355.702 575.913,355.693C583.903,354.311 602.094,372.84 604.219,380.368C604.246,380.462 583.15,437.26 572.78,452.67C566.031,462.699 499.806,516.316 489.603,524.516C461.453,559.266 434.144,593.58 412.679,620.92C413.276,621.455 417.074,625.541 413.029,630.539C412.007,631.801 410.736,633.519 408.958,633.181C406.944,632.8 403.414,630.09 398.295,626.405C388.164,619.111 384.731,616.568 389.367,610.94C391.978,607.771 397.772,609.177 399.018,609.584Z" style="fill:white;"/>
            </g>
        </g>
        <g transform="matrix(0.970687,-0.240346,0.240346,0.970687,-118.94,186.106)">
            <g transform="matrix(-0.0408813,0.10957,-0.107072,-0.0399492,847.749,599.842)">
                <path d="M399.018,609.584C417.815,580.224 442.182,543.001 467.79,505.013C482.642,468.703 506.292,417.158 516.343,403.511C524.55,392.368 575.859,355.702 575.913,355.693C583.903,354.311 602.094,372.84 604.219,380.368C604.246,380.462 583.15,437.26 572.78,452.67C566.031,462.699 499.806,516.316 489.603,524.516C461.453,559.266 434.144,593.58 412.679,620.92C413.276,621.455 417.074,625.541 413.029,630.539C412.007,631.801 410.736,633.519 408.958,633.181C406.944,632.8 403.414,630.09 398.295,626.405C388.164,619.111 384.731,616.568 389.367,610.94C391.978,607.771 397.772,609.177 399.018,609.584Z" style="fill:white;"/>
            </g>
        </g>
        <g transform="matrix(0.785575,-0.618766,0.618766,0.785575,-204.635,578.558)">
            <g transform="matrix(-0.0408813,0.10957,-0.107072,-0.0399492,847.749,599.842)">
                <path d="M399.018,609.584C417.815,580.224 442.182,543.001 467.79,505.013C482.642,468.703 506.292,417.158 516.343,403.511C524.55,392.368 575.859,355.702 575.913,355.693C583.903,354.311 602.094,372.84 604.219,380.368C604.246,380.462 583.15,437.26 572.78,452.67C566.031,462.699 499.806,516.316 489.603,524.516C461.453,559.266 434.144,593.58 412.679,620.92C413.276,621.455 417.074,625.541 413.029,630.539C412.007,631.801 410.736,633.519 408.958,633.181C406.944,632.8 403.414,630.09 398.295,626.405C388.164,619.111 384.731,616.568 389.367,610.94C391.978,607.771 397.772,609.177 399.018,609.584Z" style="fill:white;"/>
            </g>
        </g>
        <g transform="matrix(1.01293,0,0,1.10523,-25.3241,-57.2564)">
            <g transform="matrix(0.132831,0.31526,-0.31526,0.132831,847.396,312.05)">
                <path d="M352.512,619.749C391.33,595.17 427.406,555.408 455.801,512.764C496.753,437.059 505.871,370.883 512.933,340.295C515.083,330.98 521.944,310.94 529.137,284.975C546.633,221.82 549.724,181.372 550.271,180.062C553.805,171.602 565.248,172.948 570.804,174.284C578.142,176.049 590.983,184.143 595.553,190.965C595.556,190.969 598.383,217.842 595.909,253.608C593.81,283.963 588.918,306.558 587.273,314.259C586.709,316.902 583.616,334.53 578.314,350.536C572.519,368.036 537.969,444.4 470.695,520.599C438.195,563.299 397.244,605.997 357.38,631.256C357.78,632.431 357.755,636.463 352.479,639.679C351.127,640.504 349.071,641.846 347.809,641.108C346.414,640.292 345.102,637.073 343.007,632.734C338.804,624.027 337.519,621.637 344.149,618.703C347.859,617.061 351.765,619.23 352.512,619.749Z" style="fill:none;stroke:rgb(41,49,108);stroke-width:18.88px;"/>
                <path d="M352.512,619.749C391.33,595.17 427.406,555.408 455.801,512.764C496.753,437.059 505.871,370.883 512.933,340.295C515.083,330.98 521.944,310.94 529.137,284.975C546.633,221.82 549.724,181.372 550.271,180.062C553.805,171.602 565.248,172.948 570.804,174.284C578.142,176.049 590.983,184.143 595.553,190.965C595.556,190.969 598.383,217.842 595.909,253.608C593.81,283.963 588.918,306.558 587.273,314.259C586.709,316.902 583.616,334.53 578.314,350.536C572.519,368.036 537.969,444.4 470.695,520.599C438.195,563.299 397.244,605.997 357.38,631.256C357.78,632.431 357.755,636.463 352.479,639.679C351.127,640.504 349.071,641.846 347.809,641.108C346.414,640.292 345.102,637.073 343.007,632.734C338.804,624.027 337.519,621.637 344.149,618.703C347.859,617.061 351.765,619.23 352.512,619.749Z" style="fill:white;"/>
            </g>
        </g>
        <g transform="matrix(0.00196672,1.1493,1.1493,-0.00196672,612.024,443.965)">
            <path d="M52.488,49.727C52.488,49.727 77.647,72.187 108.959,80.973C140.272,89.758 111.52,79.203 110.556,78.925C81.552,70.551 52.488,49.727 52.488,49.727Z" style="fill:white;"/>
        </g>
        <g transform="matrix(1.14919,-0.0154962,0.0154962,1.14919,611.817,443.445)">
            <path d="M38.908,44.69C38.908,44.69 26.549,62.092 21.04,89.224C16.672,110.736 24.308,129.823 24.308,129.823C24.308,129.823 24.416,125.823 28.555,120.697C32.397,115.938 37.133,115.211 37.133,115.211C37.133,115.211 34.037,119.689 32.949,127.137C31.833,134.776 36.149,139.617 36.149,139.617C36.149,139.617 37.802,131.445 39.405,129.09C40.775,127.075 45.762,125.484 45.762,125.484C45.762,125.484 44.951,133.462 45.388,137.105C45.812,140.634 48.384,147.34 48.384,147.34C48.384,147.34 49.204,139.16 51.33,136.019C53.573,132.704 56.826,145.828 56.826,145.828C56.826,145.828 57.71,142.041 59.542,137.451C60.646,134.687 68.472,146.438 67.826,142.37C67.768,142.003 69.368,136.498 70.533,133.823C71.492,131.619 77.086,136.227 77.086,136.227C77.086,136.227 77.939,129.505 80.585,128.723C83.821,127.767 96.498,130.49 96.498,130.49C96.498,130.49 85.402,107.411 76.855,92.977C60.038,64.578 38.908,44.69 38.908,44.69Z" style="fill:white;"/>
        </g>
        <g transform="matrix(0.00196672,1.1493,1.1493,-0.00196672,612.024,443.965)">
            <path d="M34.931,35.623C34.931,35.623 65.166,11.773 98.581,12.856C152.605,14.606 140.009,28.684 140.009,28.684C140.009,28.684 146.049,32.637 147.06,34.752C148.023,36.765 146.077,41.373 146.077,41.373C146.077,41.373 151.851,43.155 153.625,45.385C158.293,51.25 151.572,54.243 151.572,54.243C153.644,55.392 156.864,57.943 155.991,60.078C154.018,64.903 148.095,64.334 148.095,64.334C148.095,64.334 149.651,70.936 148.62,72.777C147.589,74.618 142.273,75.746 142.273,75.746C142.273,75.746 143.106,81.77 141.658,83.623C140.373,85.268 134.724,85.212 134.724,85.212C134.724,85.212 136.112,93.717 134.801,96.264C133.491,98.811 125.091,95.877 125.091,95.877" style="fill:none;stroke:white;stroke-width:3.83px;"/>
        </g>
        <g transform="matrix(0.00171123,0.999999,0.999999,-0.00171123,139.166,-186.26)">
            <g transform="matrix(0.132831,0.31526,-0.31526,0.132831,860.401,338.608)">
                <path d="M391.04,640.642C433.348,608.635 469.23,585.644 511.831,544.255C562.177,482.487 575.191,430.633 584.719,407.207C587.707,399.862 597.522,383.52 608.31,362.047C624.495,329.83 631.081,309.282 631.363,309.021C638.033,302.849 664.517,317.999 670.014,326.846C670.048,326.9 674.069,362.302 665.97,400.843C665.375,403.676 661.497,422.13 655.155,435.373C649.896,446.353 611.576,500.423 533.002,554.576C487.885,592.467 440.348,618.655 396.49,648.571C397.146,649.89 395.549,652.03 395.363,652.278C393.811,654.358 390.802,656.423 390.36,656.726C387.92,658.401 386.008,659.738 384.68,659.519C383.331,659.296 381.725,656.671 380.249,654.724C378.516,652.439 376.471,649.994 376.734,648.001C376.992,646.041 379.134,644.252 381.736,642.477C386.064,639.525 390.803,640.582 391.04,640.642Z" style="fill:none;stroke:rgb(41,49,108);stroke-width:20.63px;"/>
                <path d="M391.04,640.642C433.348,608.635 469.23,585.644 511.831,544.255C562.177,482.487 575.191,430.633 584.719,407.207C587.707,399.862 597.522,383.52 608.31,362.047C624.495,329.83 631.081,309.282 631.363,309.021C638.033,302.849 664.517,317.999 670.014,326.846C670.048,326.9 674.069,362.302 665.97,400.843C665.375,403.676 661.497,422.13 655.155,435.373C649.896,446.353 611.576,500.423 533.002,554.576C487.885,592.467 440.348,618.655 396.49,648.571C397.146,649.89 395.549,652.03 395.363,652.278C393.811,654.358 390.802,656.423 390.36,656.726C387.92,658.401 386.008,659.738 384.68,659.519C383.331,659.296 381.725,656.671 380.249,654.724C378.516,652.439 376.471,649.994 376.734,648.001C376.992,646.041 379.134,644.252 381.736,642.477C386.064,639.525 390.803,640.582 391.04,640.642Z" style="fill:white;"/>
            </g>
        </g>
        <g transform="matrix(0.00173335,1.01292,1.10523,-0.00189131,109.766,-193.196)">
            <g transform="matrix(0.132831,0.31526,-0.31526,0.132831,847.396,312.05)">
                <path d="M352.512,619.749C391.33,595.17 427.406,555.408 455.801,512.764C496.753,437.059 505.871,370.883 512.933,340.295C515.083,330.98 521.944,310.94 529.137,284.975C546.633,221.82 549.724,181.372 550.271,180.062C553.805,171.602 565.248,172.948 570.804,174.284C578.142,176.049 590.983,184.143 595.553,190.965C595.556,190.969 598.383,217.842 595.909,253.608C593.81,283.963 588.918,306.558 587.273,314.259C586.709,316.902 583.616,334.53 578.314,350.536C572.519,368.036 537.969,444.4 470.695,520.599C438.195,563.299 397.244,605.997 357.38,631.256C357.78,632.431 357.755,636.463 352.479,639.679C351.127,640.504 349.071,641.846 347.809,641.108C346.414,640.292 345.102,637.073 343.007,632.734C338.804,624.027 337.519,621.637 344.149,618.703C347.859,617.061 351.765,619.23 352.512,619.749Z" style="fill:none;stroke:rgb(41,49,108);stroke-width:18.88px;"/>
                <path d="M352.512,619.749C391.33,595.17 427.406,555.408 455.801,512.764C496.753,437.059 505.871,370.883 512.933,340.295C515.083,330.98 521.944,310.94 529.137,284.975C546.633,221.82 549.724,181.372 550.271,180.062C553.805,171.602 565.248,172.948 570.804,174.284C578.142,176.049 590.983,184.143 595.553,190.965C595.556,190.969 598.383,217.842 595.909,253.608C593.81,283.963 588.918,306.558 587.273,314.259C586.709,316.902 583.616,334.53 578.314,350.536C572.519,368.036 537.969,444.4 470.695,520.599C438.195,563.299 397.244,605.997 357.38,631.256C357.78,632.431 357.755,636.463 352.479,639.679C351.127,640.504 349.071,641.846 347.809,641.108C346.414,640.292 345.102,637.073 343.007,632.734C338.804,624.027 337.519,621.637 344.149,618.703C347.859,617.061 351.765,619.23 352.512,619.749Z" style="fill:white;"/>
            </g>
        </g>
        <g transform="matrix(1,0,0,1,-18.1915,-29.8393)">
            <g transform="matrix(0.132831,0.31526,-0.31526,0.132831,860.401,338.608)">
                <path d="M425.641,617.766C439.002,607.913 448.189,600.796 462.518,589.467C484.889,571.779 503.144,557.759 523.329,537.233C566.84,479.872 577.889,428.814 586.363,406.307C589.06,399.144 598.245,383.132 608.58,361.986C624.377,329.663 631.015,309.345 631.279,309.101C637.978,302.896 664.33,318.138 669.782,327.072C669.827,327.146 673.559,362.838 665.958,401.174C665.402,403.977 661.746,422.413 655.788,435.414C651.968,443.751 617.641,496.767 543.178,548.627C500.656,585.471 446.211,617.662 432.952,626.013C435.093,629.108 428.994,632.917 428.413,633.28C426.867,634.246 424.516,635.804 423.13,635.495C421.605,635.155 420.232,632.831 417.919,629.903C413.476,624.282 410.952,621.991 417.229,618.11C417.802,617.756 420.715,615.954 425.641,617.766Z" style="fill:none;stroke:rgb(41,49,108);stroke-width:20.63px;"/>
                <path d="M425.641,617.766C439.002,607.913 448.189,600.796 462.518,589.467C484.889,571.779 503.144,557.759 523.329,537.233C566.84,479.872 577.889,428.814 586.363,406.307C589.06,399.144 598.245,383.132 608.58,361.986C624.377,329.663 631.015,309.345 631.279,309.101C637.978,302.896 664.33,318.138 669.782,327.072C669.827,327.146 673.559,362.838 665.958,401.174C665.402,403.977 661.746,422.413 655.788,435.414C651.968,443.751 617.641,496.767 543.178,548.627C500.656,585.471 446.211,617.662 432.952,626.013C435.093,629.108 428.994,632.917 428.413,633.28C426.867,634.246 424.516,635.804 423.13,635.495C421.605,635.155 420.232,632.831 417.919,629.903C413.476,624.282 410.952,621.991 417.229,618.11C417.802,617.756 420.715,615.954 425.641,617.766Z" style="fill:white;"/>
            </g>
        </g>
    </g>
    <g transform="matrix(-1,1.22465e-16,-1.22465e-16,-1,1001.69,1009.13)">
        <g transform="matrix(6.12323e-17,1,-1,6.12323e-17,1007.86,-2.53982)">
            <path d="M-11.76,252.189C-11.76,252.189 -22.463,353.331 50.569,450.028C91.61,504.367 93.772,614.194 46.671,666.896C-12.312,732.893 -15.609,792.495 -16.498,800.572" style="fill:none;stroke:white;stroke-width:9.21px;"/>
        </g>
        <g transform="matrix(6.12323e-17,1,-1,6.12323e-17,1007.52,-0.356366)">
            <path d="M96.901,479.309C96.901,479.309 84.05,460.583 72.545,443.559C72.223,443.082 80.21,421.048 80.549,419.105C80.875,417.239 81.531,406.142 82.36,398.164C83.433,387.848 85.234,378.208 85.234,378.208C85.234,378.208 89.514,365.057 94.14,354.061C97.425,346.253 105.112,331.052 105.112,331.052C105.112,331.052 106.693,331.943 108.127,328.221C108.738,326.636 102.552,325.02 101.562,326.192C98.844,329.414 100.754,330.506 100.754,330.506C100.754,330.506 95.866,339.846 89.63,352.404C83.433,364.883 79.537,377.492 79.537,377.492C79.537,377.492 73.605,388.097 69.1,398.668C65.194,407.832 62.642,417.094 62.481,417.869C62.102,419.688 62.305,428.433 62.305,428.433C62.305,428.433 42.862,397.042 51.683,351.795C64.409,286.52 136.362,271.463 136.362,271.463C136.362,271.463 127.073,295.726 133.83,335.27C135.877,347.247 137.82,359.502 136.749,371.606C133.8,404.901 126.048,407.301 109.65,429.229C94.846,449.025 96.901,479.309 96.901,479.309Z" style="fill:white;"/>
        </g>
        <g transform="matrix(-0.358997,0.626107,-0.529993,-0.303887,698.264,188.138)">
            <path d="M96.901,479.309C96.901,479.309 84.05,460.583 72.545,443.559C72.223,443.082 80.21,421.048 80.549,419.105C80.875,417.239 81.531,406.142 82.36,398.164C83.433,387.848 85.234,378.208 85.234,378.208C85.234,378.208 89.514,365.057 94.14,354.061C97.425,346.253 105.112,331.052 105.112,331.052C105.112,331.052 106.693,331.943 108.127,328.221C108.738,326.636 102.552,325.02 101.562,326.192C98.844,329.414 100.754,330.506 100.754,330.506C100.754,330.506 95.866,339.846 89.63,352.404C83.433,364.883 79.537,377.492 79.537,377.492C79.537,377.492 73.605,388.097 69.1,398.668C65.194,407.832 62.642,417.094 62.481,417.869C62.102,419.688 62.305,428.433 62.305,428.433C62.305,428.433 42.862,397.042 51.683,351.795C64.409,286.52 136.362,271.463 136.362,271.463C136.362,271.463 127.073,295.726 133.83,335.27C135.877,347.247 137.82,359.502 136.749,371.606C133.8,404.901 126.048,407.301 109.65,429.229C94.846,449.025 96.901,479.309 96.901,479.309Z" style="fill:white;"/>
        </g>
        <g transform="matrix(6.12323e-17,1,-1,6.12323e-17,1007.86,-2.53982)">
            <path d="M-30.579,344.246C-30.579,344.246 -10.014,404.142 26.292,449.501C62.598,494.86 76.048,565.247 54.488,616.875C25.857,685.433 -12.963,710.261 -30.947,773.822" style="fill:none;stroke:white;stroke-width:5.43px;"/>
        </g>
        <g transform="matrix(-0.473342,0.403439,-0.27127,-0.318273,475.57,170.185)">
            <path d="M96.901,479.309C96.901,479.309 84.05,460.583 72.545,443.559C72.223,443.082 80.21,421.048 80.549,419.105C80.875,417.239 81.531,406.142 82.36,398.164C83.433,387.848 85.234,378.208 85.234,378.208C85.234,378.208 89.514,365.057 94.14,354.061C97.425,346.253 105.112,331.052 105.112,331.052C105.112,331.052 106.693,331.943 108.127,328.221C108.738,326.636 102.552,325.02 101.562,326.192C98.844,329.414 100.754,330.506 100.754,330.506C100.754,330.506 95.866,339.846 89.63,352.404C83.433,364.883 79.537,377.492 79.537,377.492C79.537,377.492 73.605,388.097 69.1,398.668C65.194,407.832 62.642,417.094 62.481,417.869C62.102,419.688 62.305,428.433 62.305,428.433C62.305,428.433 42.862,397.042 51.683,351.795C64.409,286.52 136.362,271.463 136.362,271.463C136.362,271.463 127.073,295.726 133.83,335.27C135.877,347.247 137.82,359.502 136.749,371.606C133.8,404.901 126.048,407.301 109.65,429.229C94.846,449.025 96.901,479.309 96.901,479.309Z" style="fill:white;"/>
        </g>
    </g>
    <g transform="matrix(6.12323e-17,-1,1,6.12323e-17,-26.8275,1008.58)">
        <g transform="matrix(6.12323e-17,1,-1,6.12323e-17,1007.86,-2.53982)">
            <path d="M-11.76,252.189C-11.76,252.189 -22.463,353.331 50.569,450.028C91.61,504.367 93.772,614.194 46.671,666.896C-12.312,732.893 -15.609,792.495 -16.498,800.572" style="fill:none;stroke:white;stroke-width:9.21px;"/>
        </g>
        <g transform="matrix(6.12323e-17,1,-1,6.12323e-17,1007.52,-0.356366)">
            <path d="M96.901,479.309C96.901,479.309 84.05,460.583 72.545,443.559C72.223,443.082 80.21,421.048 80.549,419.105C80.875,417.239 81.531,406.142 82.36,398.164C83.433,387.848 85.234,378.208 85.234,378.208C85.234,378.208 89.514,365.057 94.14,354.061C97.425,346.253 105.112,331.052 105.112,331.052C105.112,331.052 106.693,331.943 108.127,328.221C108.738,326.636 102.552,325.02 101.562,326.192C98.844,329.414 100.754,330.506 100.754,330.506C100.754,330.506 95.866,339.846 89.63,352.404C83.433,364.883 79.537,377.492 79.537,377.492C79.537,377.492 73.605,388.097 69.1,398.668C65.194,407.832 62.642,417.094 62.481,417.869C62.102,419.688 62.305,428.433 62.305,428.433C62.305,428.433 42.862,397.042 51.683,351.795C64.409,286.52 136.362,271.463 136.362,271.463C136.362,271.463 127.073,295.726 133.83,335.27C135.877,347.247 137.82,359.502 136.749,371.606C133.8,404.901 126.048,407.301 109.65,429.229C94.846,449.025 96.901,479.309 96.901,479.309Z" style="fill:white;"/>
        </g>
        <g transform="matrix(-0.358997,0.626107,-0.529993,-0.303887,698.264,188.138)">
            <path d="M96.901,479.309C96.901,479.309 84.05,460.583 72.545,443.559C72.223,443.082 80.21,421.048 80.549,419.105C80.875,417.239 81.531,406.142 82.36,398.164C83.433,387.848 85.234,378.208 85.234,378.208C85.234,378.208 89.514,365.057 94.14,354.061C97.425,346.253 105.112,331.052 105.112,331.052C105.112,331.052 106.693,331.943 108.127,328.221C108.738,326.636 102.552,325.02 101.562,326.192C98.844,329.414 100.754,330.506 100.754,330.506C100.754,330.506 95.866,339.846 89.63,352.404C83.433,364.883 79.537,377.492 79.537,377.492C79.537,377.492 73.605,388.097 69.1,398.668C65.194,407.832 62.642,417.094 62.481,417.869C62.102,419.688 62.305,428.433 62.305,428.433C62.305,428.433 42.862,397.042 51.683,351.795C64.409,286.52 136.362,271.463 136.362,271.463C136.362,271.463 127.073,295.726 133.83,335.27C135.877,347.247 137.82,359.502 136.749,371.606C133.8,404.901 126.048,407.301 109.65,429.229C94.846,449.025 96.901,479.309 96.901,479.309Z" style="fill:white;"/>
        </g>
        <g transform="matrix(6.12323e-17,1,-1,6.12323e-17,1007.86,-2.53982)">
            <path d="M-30.579,344.246C-30.579,344.246 -10.014,404.142 26.292,449.501C62.598,494.86 76.048,565.247 54.488,616.875C25.857,685.433 -12.963,710.261 -30.947,773.822" style="fill:none;stroke:white;stroke-width:5.43px;"/>
        </g>
        <g transform="matrix(-0.473342,0.403439,-0.27127,-0.318273,475.57,170.185)">
            <path d="M96.901,479.309C96.901,479.309 84.05,460.583 72.545,443.559C72.223,443.082 80.21,421.048 80.549,419.105C80.875,417.239 81.531,406.142 82.36,398.164C83.433,387.848 85.234,378.208 85.234,378.208C85.234,378.208 89.514,365.057 94.14,354.061C97.425,346.253 105.112,331.052 105.112,331.052C105.112,331.052 106.693,331.943 108.127,328.221C108.738,326.636 102.552,325.02 101.562,326.192C98.844,329.414 100.754,330.506 100.754,330.506C100.754,330.506 95.866,339.846 89.63,352.404C83.433,364.883 79.537,377.492 79.537,377.492C79.537,377.492 73.605,388.097 69.1,398.668C65.194,407.832 62.642,417.094 62.481,417.869C62.102,419.688 62.305,428.433 62.305,428.433C62.305,428.433 42.862,397.042 51.683,351.795C64.409,286.52 136.362,271.463 136.362,271.463C136.362,271.463 127.073,295.726 133.83,335.27C135.877,347.247 137.82,359.502 136.749,371.606C133.8,404.901 126.048,407.301 109.65,429.229C94.846,449.025 96.901,479.309 96.901,479.309Z" style="fill:white;"/>
        </g>
    </g>
</svg>
