<?xml version="1.0" encoding="UTF-8" standalone="no"?>
<!DOCTYPE svg PUBLIC "-//W3C//DTD SVG 1.1//EN" "http://www.w3.org/Graphics/SVG/1.1/DTD/svg11.dtd">
<svg width="100%" height="100%" viewBox="0 0 1000 1000" version="1.1" xmlns="http://www.w3.org/2000/svg" xmlns:xlink="http://www.w3.org/1999/xlink" xml:space="preserve" xmlns:serif="http://www.serif.com/" style="fill-rule:evenodd;clip-rule:evenodd;stroke-linecap:round;stroke-linejoin:round;stroke-miterlimit:1.5;">
    <g>
        <g transform="matrix(1,0,0,1,-0.657394,0.590125)">
            <path d="M99.085,-2.645C99.085,-2.645 94.283,46.903 100.477,51.05C137.268,75.681 166.957,56.136 155.536,15.857C154.472,12.104 139.71,11.003 129.069,12.743C120.339,14.17 118.425,20.419 118.077,21.645C118.077,21.645 130.567,16.72 133.53,23.967C137.756,34.305 138.054,41.465 137.147,42.796C136.496,43.752 117.579,43.396 112.505,30.541C105.891,13.787 114.982,-1.536 114.982,-1.536L158.046,-0.473C158.046,-0.473 183.333,6.548 178.641,29.433C175.046,46.964 163.38,60.041 164.475,68.047C164.593,68.909 185.835,74.221 189.17,41.995C192.443,10.359 170.143,-7.925 170.143,-7.925L99.085,-2.645Z" style="fill:rgb(41,49,108);stroke:black;stroke-opacity:0;stroke-width:1.25px;"/>
        </g>
        <g transform="matrix(1,0,0,1,-0.269102,0.368878)">
            <path d="M82.416,68.828C82.416,68.828 90.795,80.475 99.218,87.202C105.528,92.241 113.883,92.447 113.778,92.716C113.686,92.953 109.955,99.822 111.591,105.637C113.622,112.856 119.76,119.64 119.76,119.64C119.76,119.64 102.6,114.907 93.819,102.589C84.193,89.084 82.311,68.83 82.416,68.828Z" style="fill:rgb(41,49,108);stroke:black;stroke-opacity:0;stroke-width:1.78px;"/>
        </g>
        <g transform="matrix(1,0,0,1,18.6502,0.61252)">
            <path d="M82.416,68.828C81.814,67.035 87.535,67.068 89.601,68.292C92.709,70.133 98.222,76.339 101.064,79.873C105.02,84.794 103.545,85.741 103.545,85.741C103.545,85.741 97.621,82.571 93.209,79.051C87.258,74.302 83.017,70.621 82.416,68.828Z" style="fill:rgb(41,49,108);stroke:black;stroke-opacity:0;stroke-width:1.78px;"/>
        </g>
        <g transform="matrix(1,0,0,1,-32.6606,-98.2432)">
            <path d="M111.604,96.237C111.604,96.237 121.231,95.553 121.127,95.822C121.083,95.934 118.594,101.074 118.282,106.658C117.933,112.895 121.036,121.083 121.036,121.083C121.036,121.083 113.988,116.136 111.984,110.426C109.885,104.442 111.551,96.239 111.604,96.237Z" style="fill:rgb(41,49,108);stroke:black;stroke-opacity:0;stroke-width:1.78px;"/>
        </g>
        <g transform="matrix(1,0,0,1,-103.599,-41.2769)">
            <path d="M98.441,73.078C98.441,73.078 107.896,59.213 110.754,63.546C124.319,84.11 120.004,106.636 117.881,116.847C116.429,123.831 97.073,128.782 98.017,124.81C98.017,124.81 98.336,73.081 98.441,73.078Z" style="fill:rgb(41,49,108);stroke:black;stroke-opacity:0;stroke-width:1.78px;"/>
        </g>
        <g transform="matrix(1,0,0,1,-13.0876,17.7778)">
            <path d="M84.032,67.776C84.275,66.057 89.142,70.634 89.291,73.131C89.854,82.574 95.146,91.498 94.902,93.217C94.659,94.936 90.312,89.665 87.832,83.443C85.337,77.183 83.789,69.494 84.032,67.776Z" style="fill:rgb(41,49,108);stroke:black;stroke-opacity:0;stroke-width:1.78px;"/>
        </g>
        <path d="M-1.478,-2.335L56.864,-1.95C56.864,-1.95 90.593,8.874 78.924,53.835C70.881,84.823 38.04,71.794 37.536,71.849C37.295,71.875 37.227,73.98 38.299,76.11C39.46,78.415 43.025,80.375 41.78,80.758C40.535,81.141 35.685,77.956 30.83,78.406C21.927,79.232 11.375,87.004 10.982,85.605C10.254,83.01 28.652,63.11 26.339,61.458C22.706,58.864 19.482,47.705 18.503,37.81C17.098,23.619 20.608,10.114 19.385,8.753C18.194,7.427 0.816,24.888 -3.414,17.329C-5.449,13.694 -1.698,-2.027 -1.478,-2.335Z" style="fill:rgb(41,49,108);stroke:black;stroke-opacity:0;stroke-width:1.25px;"/>
        <path d="M34.823,52.608C32.505,49.634 33.169,33.637 37.601,31.052C46.632,25.784 55.267,22.564 63.9,25.071C68.771,26.486 68.581,52.399 63.734,56.988C58.888,61.578 38.582,57.43 34.823,52.608Z" style="fill:white;stroke:black;stroke-opacity:0;stroke-width:1.25px;"/>
        <path d="M-4.205,108.789C-4.205,108.789 20.617,91.294 30.579,92.722C44.652,94.738 54.298,105.546 55.317,118.949C57.113,142.576 30.253,141.253 27.841,135.162C24.649,127.102 30.334,109.342 29.057,109.362C27.78,109.382 15.752,118.647 20.18,135.281C22.769,145.005 30.258,150.568 38.468,150.361C66.668,149.65 75.637,113.446 61.235,90.955C54.669,80.702 -4.165,94.61 -4.165,94.61L-4.205,108.789Z" style="fill:rgb(41,49,108);stroke:black;stroke-opacity:0;stroke-width:1.25px;"/>
        <path d="M-3.457,119.085C-3.457,119.085 8.601,111.226 8.719,112.744C8.884,114.872 -11.138,131.792 7.041,151.122C26.59,171.909 43.8,174.365 43.978,175.483C44.229,177.056 16.652,198.438 -3.174,152.664C-7.92,141.707 -3.457,119.085 -3.457,119.085Z" style="fill:rgb(41,49,108);stroke:black;stroke-opacity:0;stroke-width:1.25px;"/>
    </g>
    <g transform="matrix(0.00361847,0.999993,-0.999993,0.00361847,998.389,-1.23964)">
        <g transform="matrix(1,0,0,1,-0.657394,0.590125)">
            <path d="M99.085,-2.645C99.085,-2.645 94.283,46.903 100.477,51.05C137.268,75.681 166.957,56.136 155.536,15.857C154.472,12.104 139.71,11.003 129.069,12.743C120.339,14.17 118.425,20.419 118.077,21.645C118.077,21.645 130.567,16.72 133.53,23.967C137.756,34.305 138.054,41.465 137.147,42.796C136.496,43.752 117.579,43.396 112.505,30.541C105.891,13.787 114.982,-1.536 114.982,-1.536L158.046,-0.473C158.046,-0.473 183.333,6.548 178.641,29.433C175.046,46.964 163.38,60.041 164.475,68.047C164.593,68.909 185.835,74.221 189.17,41.995C192.443,10.359 170.143,-7.925 170.143,-7.925L99.085,-2.645Z" style="fill:rgb(41,49,108);stroke:black;stroke-opacity:0;stroke-width:1.25px;"/>
        </g>
        <g transform="matrix(1,0,0,1,-0.269102,0.368878)">
            <path d="M82.416,68.828C82.416,68.828 90.795,80.475 99.218,87.202C105.528,92.241 113.883,92.447 113.778,92.716C113.686,92.953 109.955,99.822 111.591,105.637C113.622,112.856 119.76,119.64 119.76,119.64C119.76,119.64 102.6,114.907 93.819,102.589C84.193,89.084 82.311,68.83 82.416,68.828Z" style="fill:rgb(41,49,108);stroke:black;stroke-opacity:0;stroke-width:1.78px;"/>
        </g>
        <g transform="matrix(1,0,0,1,18.6502,0.61252)">
            <path d="M82.416,68.828C81.814,67.035 87.535,67.068 89.601,68.292C92.709,70.133 98.222,76.339 101.064,79.873C105.02,84.794 103.545,85.741 103.545,85.741C103.545,85.741 97.621,82.571 93.209,79.051C87.258,74.302 83.017,70.621 82.416,68.828Z" style="fill:rgb(41,49,108);stroke:black;stroke-opacity:0;stroke-width:1.78px;"/>
        </g>
        <g transform="matrix(1,0,0,1,-32.6606,-98.2432)">
            <path d="M111.604,96.237C111.604,96.237 121.231,95.553 121.127,95.822C121.083,95.934 118.594,101.074 118.282,106.658C117.933,112.895 121.036,121.083 121.036,121.083C121.036,121.083 113.988,116.136 111.984,110.426C109.885,104.442 111.551,96.239 111.604,96.237Z" style="fill:rgb(41,49,108);stroke:black;stroke-opacity:0;stroke-width:1.78px;"/>
        </g>
        <g transform="matrix(1,0,0,1,-103.599,-41.2769)">
            <path d="M98.441,73.078C98.441,73.078 107.896,59.213 110.754,63.546C124.319,84.11 120.004,106.636 117.881,116.847C116.429,123.831 97.073,128.782 98.017,124.81C98.017,124.81 98.336,73.081 98.441,73.078Z" style="fill:rgb(41,49,108);stroke:black;stroke-opacity:0;stroke-width:1.78px;"/>
        </g>
        <g transform="matrix(1,0,0,1,-13.0876,17.7778)">
            <path d="M84.032,67.776C84.275,66.057 89.142,70.634 89.291,73.131C89.854,82.574 95.146,91.498 94.902,93.217C94.659,94.936 90.312,89.665 87.832,83.443C85.337,77.183 83.789,69.494 84.032,67.776Z" style="fill:rgb(41,49,108);stroke:black;stroke-opacity:0;stroke-width:1.78px;"/>
        </g>
        <path d="M-1.478,-2.335L56.864,-1.95C56.864,-1.95 90.593,8.874 78.924,53.835C70.881,84.823 38.04,71.794 37.536,71.849C37.295,71.875 37.227,73.98 38.299,76.11C39.46,78.415 43.025,80.375 41.78,80.758C40.535,81.141 35.685,77.956 30.83,78.406C21.927,79.232 11.375,87.004 10.982,85.605C10.254,83.01 28.652,63.11 26.339,61.458C22.706,58.864 19.482,47.705 18.503,37.81C17.098,23.619 20.608,10.114 19.385,8.753C18.194,7.427 0.816,24.888 -3.414,17.329C-5.449,13.694 -1.698,-2.027 -1.478,-2.335Z" style="fill:rgb(41,49,108);stroke:black;stroke-opacity:0;stroke-width:1.25px;"/>
        <path d="M34.823,52.608C32.505,49.634 33.169,33.637 37.601,31.052C46.632,25.784 55.267,22.564 63.9,25.071C68.771,26.486 68.581,52.399 63.734,56.988C58.888,61.578 38.582,57.43 34.823,52.608Z" style="fill:white;stroke:black;stroke-opacity:0;stroke-width:1.25px;"/>
        <path d="M-4.205,108.789C-4.205,108.789 20.617,91.294 30.579,92.722C44.652,94.738 54.298,105.546 55.317,118.949C57.113,142.576 30.253,141.253 27.841,135.162C24.649,127.102 30.334,109.342 29.057,109.362C27.78,109.382 15.752,118.647 20.18,135.281C22.769,145.005 30.258,150.568 38.468,150.361C66.668,149.65 75.637,113.446 61.235,90.955C54.669,80.702 -4.165,94.61 -4.165,94.61L-4.205,108.789Z" style="fill:rgb(41,49,108);stroke:black;stroke-opacity:0;stroke-width:1.25px;"/>
        <path d="M-3.457,119.085C-3.457,119.085 8.601,111.226 8.719,112.744C8.884,114.872 -11.138,131.792 7.041,151.122C26.59,171.909 43.8,174.365 43.978,175.483C44.229,177.056 16.652,198.438 -3.174,152.664C-7.92,141.707 -3.457,119.085 -3.457,119.085Z" style="fill:rgb(41,49,108);stroke:black;stroke-opacity:0;stroke-width:1.25px;"/>
    </g>
    <g transform="matrix(-1,0.000144494,-0.000144494,-1,998.911,998.208)">
        <g transform="matrix(1,0,0,1,-0.657394,0.590125)">
            <path d="M99.085,-2.645C99.085,-2.645 94.283,46.903 100.477,51.05C137.268,75.681 166.957,56.136 155.536,15.857C154.472,12.104 139.71,11.003 129.069,12.743C120.339,14.17 118.425,20.419 118.077,21.645C118.077,21.645 130.567,16.72 133.53,23.967C137.756,34.305 138.054,41.465 137.147,42.796C136.496,43.752 117.579,43.396 112.505,30.541C105.891,13.787 114.982,-1.536 114.982,-1.536L158.046,-0.473C158.046,-0.473 183.333,6.548 178.641,29.433C175.046,46.964 163.38,60.041 164.475,68.047C164.593,68.909 185.835,74.221 189.17,41.995C192.443,10.359 170.143,-7.925 170.143,-7.925L99.085,-2.645Z" style="fill:rgb(41,49,108);stroke:black;stroke-opacity:0;stroke-width:1.25px;"/>
        </g>
        <g transform="matrix(1,0,0,1,-0.269102,0.368878)">
            <path d="M82.416,68.828C82.416,68.828 90.795,80.475 99.218,87.202C105.528,92.241 113.883,92.447 113.778,92.716C113.686,92.953 109.955,99.822 111.591,105.637C113.622,112.856 119.76,119.64 119.76,119.64C119.76,119.64 102.6,114.907 93.819,102.589C84.193,89.084 82.311,68.83 82.416,68.828Z" style="fill:rgb(41,49,108);stroke:black;stroke-opacity:0;stroke-width:1.78px;"/>
        </g>
        <g transform="matrix(1,0,0,1,18.6502,0.61252)">
            <path d="M82.416,68.828C81.814,67.035 87.535,67.068 89.601,68.292C92.709,70.133 98.222,76.339 101.064,79.873C105.02,84.794 103.545,85.741 103.545,85.741C103.545,85.741 97.621,82.571 93.209,79.051C87.258,74.302 83.017,70.621 82.416,68.828Z" style="fill:rgb(41,49,108);stroke:black;stroke-opacity:0;stroke-width:1.78px;"/>
        </g>
        <g transform="matrix(1,0,0,1,-32.6606,-98.2432)">
            <path d="M111.604,96.237C111.604,96.237 121.231,95.553 121.127,95.822C121.083,95.934 118.594,101.074 118.282,106.658C117.933,112.895 121.036,121.083 121.036,121.083C121.036,121.083 113.988,116.136 111.984,110.426C109.885,104.442 111.551,96.239 111.604,96.237Z" style="fill:rgb(41,49,108);stroke:black;stroke-opacity:0;stroke-width:1.78px;"/>
        </g>
        <g transform="matrix(1,0,0,1,-103.599,-41.2769)">
            <path d="M98.441,73.078C98.441,73.078 107.896,59.213 110.754,63.546C124.319,84.11 120.004,106.636 117.881,116.847C116.429,123.831 97.073,128.782 98.017,124.81C98.017,124.81 98.336,73.081 98.441,73.078Z" style="fill:rgb(41,49,108);stroke:black;stroke-opacity:0;stroke-width:1.78px;"/>
        </g>
        <g transform="matrix(1,0,0,1,-13.0876,17.7778)">
            <path d="M84.032,67.776C84.275,66.057 89.142,70.634 89.291,73.131C89.854,82.574 95.146,91.498 94.902,93.217C94.659,94.936 90.312,89.665 87.832,83.443C85.337,77.183 83.789,69.494 84.032,67.776Z" style="fill:rgb(41,49,108);stroke:black;stroke-opacity:0;stroke-width:1.78px;"/>
        </g>
        <path d="M-1.478,-2.335L56.864,-1.95C56.864,-1.95 90.593,8.874 78.924,53.835C70.881,84.823 38.04,71.794 37.536,71.849C37.295,71.875 37.227,73.98 38.299,76.11C39.46,78.415 43.025,80.375 41.78,80.758C40.535,81.141 35.685,77.956 30.83,78.406C21.927,79.232 11.375,87.004 10.982,85.605C10.254,83.01 28.652,63.11 26.339,61.458C22.706,58.864 19.482,47.705 18.503,37.81C17.098,23.619 20.608,10.114 19.385,8.753C18.194,7.427 0.816,24.888 -3.414,17.329C-5.449,13.694 -1.698,-2.027 -1.478,-2.335Z" style="fill:rgb(41,49,108);stroke:black;stroke-opacity:0;stroke-width:1.25px;"/>
        <path d="M34.823,52.608C32.505,49.634 33.169,33.637 37.601,31.052C46.632,25.784 55.267,22.564 63.9,25.071C68.771,26.486 68.581,52.399 63.734,56.988C58.888,61.578 38.582,57.43 34.823,52.608Z" style="fill:white;stroke:black;stroke-opacity:0;stroke-width:1.25px;"/>
        <path d="M-4.205,108.789C-4.205,108.789 20.617,91.294 30.579,92.722C44.652,94.738 54.298,105.546 55.317,118.949C57.113,142.576 30.253,141.253 27.841,135.162C24.649,127.102 30.334,109.342 29.057,109.362C27.78,109.382 15.752,118.647 20.18,135.281C22.769,145.005 30.258,150.568 38.468,150.361C66.668,149.65 75.637,113.446 61.235,90.955C54.669,80.702 -4.165,94.61 -4.165,94.61L-4.205,108.789Z" style="fill:rgb(41,49,108);stroke:black;stroke-opacity:0;stroke-width:1.25px;"/>
        <path d="M-3.457,119.085C-3.457,119.085 8.601,111.226 8.719,112.744C8.884,114.872 -11.138,131.792 7.041,151.122C26.59,171.909 43.8,174.365 43.978,175.483C44.229,177.056 16.652,198.438 -3.174,152.664C-7.92,141.707 -3.457,119.085 -3.457,119.085Z" style="fill:rgb(41,49,108);stroke:black;stroke-opacity:0;stroke-width:1.25px;"/>
    </g>
    <g transform="matrix(0.0005781,-1,1,0.0005781,2.24797,998.923)">
        <g transform="matrix(1,0,0,1,-0.657394,0.590125)">
            <path d="M99.085,-2.645C99.085,-2.645 94.283,46.903 100.477,51.05C137.268,75.681 166.957,56.136 155.536,15.857C154.472,12.104 139.71,11.003 129.069,12.743C120.339,14.17 118.425,20.419 118.077,21.645C118.077,21.645 130.567,16.72 133.53,23.967C137.756,34.305 138.054,41.465 137.147,42.796C136.496,43.752 117.579,43.396 112.505,30.541C105.891,13.787 114.982,-1.536 114.982,-1.536L158.046,-0.473C158.046,-0.473 183.333,6.548 178.641,29.433C175.046,46.964 163.38,60.041 164.475,68.047C164.593,68.909 185.835,74.221 189.17,41.995C192.443,10.359 170.143,-7.925 170.143,-7.925L99.085,-2.645Z" style="fill:rgb(41,49,108);stroke:black;stroke-opacity:0;stroke-width:1.25px;"/>
        </g>
        <g transform="matrix(1,0,0,1,-0.269102,0.368878)">
            <path d="M82.416,68.828C82.416,68.828 90.795,80.475 99.218,87.202C105.528,92.241 113.883,92.447 113.778,92.716C113.686,92.953 109.955,99.822 111.591,105.637C113.622,112.856 119.76,119.64 119.76,119.64C119.76,119.64 102.6,114.907 93.819,102.589C84.193,89.084 82.311,68.83 82.416,68.828Z" style="fill:rgb(41,49,108);stroke:black;stroke-opacity:0;stroke-width:1.78px;"/>
        </g>
        <g transform="matrix(1,0,0,1,18.6502,0.61252)">
            <path d="M82.416,68.828C81.814,67.035 87.535,67.068 89.601,68.292C92.709,70.133 98.222,76.339 101.064,79.873C105.02,84.794 103.545,85.741 103.545,85.741C103.545,85.741 97.621,82.571 93.209,79.051C87.258,74.302 83.017,70.621 82.416,68.828Z" style="fill:rgb(41,49,108);stroke:black;stroke-opacity:0;stroke-width:1.78px;"/>
        </g>
        <g transform="matrix(1,0,0,1,-32.6606,-98.2432)">
            <path d="M111.604,96.237C111.604,96.237 121.231,95.553 121.127,95.822C121.083,95.934 118.594,101.074 118.282,106.658C117.933,112.895 121.036,121.083 121.036,121.083C121.036,121.083 113.988,116.136 111.984,110.426C109.885,104.442 111.551,96.239 111.604,96.237Z" style="fill:rgb(41,49,108);stroke:black;stroke-opacity:0;stroke-width:1.78px;"/>
        </g>
        <g transform="matrix(1,0,0,1,-103.599,-41.2769)">
            <path d="M98.441,73.078C98.441,73.078 107.896,59.213 110.754,63.546C124.319,84.11 120.004,106.636 117.881,116.847C116.429,123.831 97.073,128.782 98.017,124.81C98.017,124.81 98.336,73.081 98.441,73.078Z" style="fill:rgb(41,49,108);stroke:black;stroke-opacity:0;stroke-width:1.78px;"/>
        </g>
        <g transform="matrix(1,0,0,1,-13.0876,17.7778)">
            <path d="M84.032,67.776C84.275,66.057 89.142,70.634 89.291,73.131C89.854,82.574 95.146,91.498 94.902,93.217C94.659,94.936 90.312,89.665 87.832,83.443C85.337,77.183 83.789,69.494 84.032,67.776Z" style="fill:rgb(41,49,108);stroke:black;stroke-opacity:0;stroke-width:1.78px;"/>
        </g>
        <path d="M-1.478,-2.335L56.864,-1.95C56.864,-1.95 90.593,8.874 78.924,53.835C70.881,84.823 38.04,71.794 37.536,71.849C37.295,71.875 37.227,73.98 38.299,76.11C39.46,78.415 43.025,80.375 41.78,80.758C40.535,81.141 35.685,77.956 30.83,78.406C21.927,79.232 11.375,87.004 10.982,85.605C10.254,83.01 28.652,63.11 26.339,61.458C22.706,58.864 19.482,47.705 18.503,37.81C17.098,23.619 20.608,10.114 19.385,8.753C18.194,7.427 0.816,24.888 -3.414,17.329C-5.449,13.694 -1.698,-2.027 -1.478,-2.335Z" style="fill:rgb(41,49,108);stroke:black;stroke-opacity:0;stroke-width:1.25px;"/>
        <path d="M34.823,52.608C32.505,49.634 33.169,33.637 37.601,31.052C46.632,25.784 55.267,22.564 63.9,25.071C68.771,26.486 68.581,52.399 63.734,56.988C58.888,61.578 38.582,57.43 34.823,52.608Z" style="fill:white;stroke:black;stroke-opacity:0;stroke-width:1.25px;"/>
        <path d="M-4.205,108.789C-4.205,108.789 20.617,91.294 30.579,92.722C44.652,94.738 54.298,105.546 55.317,118.949C57.113,142.576 30.253,141.253 27.841,135.162C24.649,127.102 30.334,109.342 29.057,109.362C27.78,109.382 15.752,118.647 20.18,135.281C22.769,145.005 30.258,150.568 38.468,150.361C66.668,149.65 75.637,113.446 61.235,90.955C54.669,80.702 -4.165,94.61 -4.165,94.61L-4.205,108.789Z" style="fill:rgb(41,49,108);stroke:black;stroke-opacity:0;stroke-width:1.25px;"/>
        <path d="M-3.457,119.085C-3.457,119.085 8.601,111.226 8.719,112.744C8.884,114.872 -11.138,131.792 7.041,151.122C26.59,171.909 43.8,174.365 43.978,175.483C44.229,177.056 16.652,198.438 -3.174,152.664C-7.92,141.707 -3.457,119.085 -3.457,119.085Z" style="fill:rgb(41,49,108);stroke:black;stroke-opacity:0;stroke-width:1.25px;"/>
    </g>
    <g>
        <path d="M-7.553,203.758C-7.553,203.758 37.047,226.491 53.038,237.95C69.241,249.561 71.252,269.384 72.277,271.117C72.699,271.829 91.554,265.584 93.145,260.217C94.949,254.127 79.48,249.154 79.48,249.154C79.48,249.154 127.336,247.882 122.148,303.468C115.969,369.661 86.873,389.694 85.206,387.369C84.162,385.914 107.173,369.675 88.818,367.325C88.084,367.231 97.697,358.011 101.727,348.092C105.834,337.984 105.298,327.707 104.187,326.822C103.076,325.938 99.506,345.416 95.063,342.784C92.924,341.518 108.612,275.569 91.158,278.692C76.942,281.236 89.536,328.289 88.176,328.86C87.686,329.066 71.597,298.009 59.384,282.958C39.87,258.909 23.699,243.786 22.895,244.963C21.862,246.475 29.544,258.951 40.255,271.94C51.038,285.017 63.019,294.642 64.554,297.158C64.855,297.651 64.608,306.58 66.573,316.977C68.496,327.146 72.516,338.376 72.746,341.958C73.376,351.809 68.176,362.699 64.566,344.017C64.264,342.458 65.546,336.016 63.189,336.049C53.525,336.183 25.364,320.731 20.028,324.22C18.501,325.219 18.305,331.742 19.76,331.876C37.7,333.532 63.428,340.015 59.548,373.108C55.667,406.202 38.502,420.601 35.925,421.889C32.787,423.456 29.453,422.3 20.111,411.356C12.773,402.761 -3.93,402.691 -3.93,402.691L-4.462,377.906C-4.462,377.906 3.236,382.013 14.327,378.051C23.764,374.679 31.521,364.967 39.403,364.174C50.751,363.034 40.675,380.647 52.838,376.05C57.222,374.393 55.514,357.706 41.14,357.543C29.358,357.409 23.369,366.474 11.595,371.805C1.966,376.165 -3.76,374.388 -3.76,374.388L-1.644,363.266C-1.644,363.266 19.069,366.988 17.871,350.023C16.847,335.517 -2.055,331.311 -2.055,331.311L-1.348,302.871C-1.348,302.871 6.94,301.907 14.728,304.087C22.16,306.167 29.024,313.891 29.085,311.032C29.475,292.831 -3.714,298.931 -3.714,298.931L-4.316,273.036C-4.316,273.036 6.212,270.933 17.896,276.907C30.498,283.35 51.716,308.177 53.529,307.061C55.341,305.945 38.488,281.182 28.772,270.212C13.645,253.134 -7.474,248.014 -7.474,248.014L-7.553,203.758Z" style="fill:rgb(41,49,108);stroke:black;stroke-opacity:0;stroke-width:3.73px;"/>
        <path d="M-5.117,338.492C-5.572,339.218 8.114,341.318 6.355,354.616C5.33,362.366 -6.718,361.166 -6.718,361.166C-6.718,361.166 -4.662,337.766 -5.117,338.492Z" style="fill:rgb(41,49,108);stroke:black;stroke-opacity:0;stroke-width:3.73px;"/>
        <g transform="matrix(1,0,0,1,-0.138192,-0.708103)">
            <path d="M107.78,380.896C106.789,379.475 122.991,360.966 131.868,341.036C136.963,329.597 132.58,321.417 133.73,320.12C134.681,319.048 148.019,331.411 137.818,349.566C132.423,359.168 108.772,382.318 107.78,380.896Z" style="fill:rgb(41,49,108);stroke:black;stroke-opacity:0;stroke-width:3.73px;"/>
        </g>
        <g transform="matrix(0.916978,0,0,0.342508,16.7233,255.145)">
            <path d="M107.78,380.896C108.422,376.362 112.745,358.741 119.645,343.388C124.745,332.039 132.616,319.544 133.409,320.873C134.931,323.427 136.919,350.034 126.718,368.188C121.323,377.79 106.716,388.424 107.78,380.896Z" style="fill:rgb(41,49,108);stroke:black;stroke-opacity:0;stroke-width:5.39px;"/>
        </g>
        <g transform="matrix(1.13964,0,0,0.431596,-82.3491,263.731)">
            <path d="M108.978,380.148C107.311,378.697 113.129,333.393 120.875,340.291C122.946,342.136 126.047,325.198 126.838,326.561C128.754,329.866 124.056,347.684 120.171,357.565C115.485,369.484 109.874,380.929 108.978,380.148Z" style="fill:rgb(41,49,108);stroke:black;stroke-opacity:0;stroke-width:4.33px;"/>
        </g>
        <g transform="matrix(2.11873,0,0,2.63526,10.1145,-484.691)">
            <path d="M-6.607,339.26C-7.062,339.986 8.326,338.08 6.291,354.212C5.008,364.392 -4.353,362.04 -6.552,359.897C-8.952,357.558 -6.152,338.534 -6.607,339.26Z" style="fill:rgb(41,49,108);stroke:black;stroke-opacity:0;stroke-width:1.56px;"/>
        </g>
        <path d="M84.093,481.034C81.191,481.496 86.474,469.983 66.279,465.583C43.875,460.702 24.521,467.863 23.903,466.526C23.137,464.867 38.102,441.763 56.052,419.196C67.808,404.415 102.741,401.382 106.331,405.675C112.64,413.218 112.267,426.994 102.118,436.795C85.413,452.928 71.502,445.154 71.881,450.603C72.403,458.12 79.648,466.738 83.152,472.773C85.39,476.625 85.349,480.834 84.093,481.034Z" style="fill:rgb(41,49,108);stroke:black;stroke-opacity:0;stroke-width:3.73px;"/>
        <path d="M20.048,523.898L16.627,510.589L20.048,523.898Z" style="fill:none;stroke:black;stroke-opacity:0;stroke-width:3.73px;"/>
        <path d="M20.109,523.825C17.071,519.927 4.52,463.779 55.463,470.399C83.853,474.087 83.594,513.483 68.1,525.316C52.479,537.244 23.637,528.35 20.109,523.825Z" style="fill:rgb(41,49,108);stroke:black;stroke-opacity:0;stroke-width:3.73px;"/>
        <path d="M38.603,508.33C32.252,504.53 28.515,488.893 47.413,485.798C60.647,483.63 65.481,497.747 62.092,502.712C57.33,509.686 50.034,515.171 38.603,508.33Z" style="fill:white;stroke:black;stroke-opacity:0;stroke-width:3.73px;"/>
        <path d="M54.615,494.26C55.838,495.374 56.503,502.915 52.121,504.779C47.294,506.832 43.134,503.303 44.78,498.093C46.627,492.25 53.391,493.146 54.615,494.26Z" style="fill:rgb(41,49,108);stroke:black;stroke-opacity:0;stroke-width:3.73px;"/>
        <path d="M-5.017,595.601C-5.017,595.601 4.112,595.639 9.416,592.377C19.942,585.904 30.794,574.043 33.078,576.375C38.598,582.011 57.908,604.619 57.392,632.706C56.761,667.021 22.464,660.544 18.243,662.85C15.577,664.307 16.227,677.216 18.423,676.371C23.044,674.592 45.049,663.99 59.356,664.05C65.455,664.075 59.511,646.783 67.436,644.155C70.839,643.026 68.854,659.265 65.368,674.444C64.514,678.163 63.569,681.818 62.592,685.139C60.178,693.342 62.757,700.418 61.33,701.674C58.335,704.308 47.96,713.948 38.827,724.839C27.21,738.692 18.42,753.284 20.53,755.384C21.76,756.608 42.811,732.127 60.744,710.306C76.894,690.655 83.362,666.639 85.465,668.689C85.817,669.032 70.65,719.188 90.523,720.402C103.926,721.221 90.416,661.745 94.641,655.761C95.82,654.092 100.008,670.961 102.967,669.902C105.168,669.115 102.675,655.6 97.236,645.795C93.024,638.202 85.503,634.083 85.393,632.12C85.294,630.337 93.946,633.857 93.696,627.477C93.418,620.368 75.808,606.81 82.578,609.141C106.323,617.317 124.452,686.044 119.204,711.267C110.864,751.346 77.66,749.565 76.502,749.64C74.529,749.768 95.033,743.084 89.189,736.864C86.781,734.301 71.303,724.698 69.797,731.07C61.279,767.115 37.093,762.43 -3.837,789.969C-15.238,797.64 -5.89,749.248 -5.89,749.248C22.962,739.62 53.297,692.939 50.83,691.438C49.205,690.448 40.434,703.996 26.616,713.287C12.109,723.041 -5.052,727.228 -5.791,727.358C-7.236,727.61 -4.557,700.838 -4.557,700.838C15.475,699.851 25.258,697.239 25.051,687.838C25.04,687.317 17.189,692.014 9.74,693.818C2.226,695.637 -3.9,692.829 -3.9,692.829L-8.95,666.653C7.118,668.108 14.471,654.094 15.727,644.717C17.353,632.589 -1.09,633.823 -2.281,634.917L-3.379,622.878C-3.379,622.878 3.571,623.761 12.026,628.04C20.212,632.181 26.36,640.035 34.513,639.878C42.645,639.722 54.089,642.421 51.759,625.366C49.856,611.444 42.727,634.259 41.244,634.148C18.095,632.413 19.942,616.057 -3.873,616.442L-5.017,595.601Z" style="fill:rgb(41,49,108);stroke:black;stroke-opacity:0;stroke-width:3.73px;"/>
        <path d="M-7.744,527.232C-5.367,522.85 27.758,525.111 24.058,564.235C21.51,591.187 -5.066,586.565 -5.535,587.62C-6.003,588.674 -7.744,527.232 -7.744,527.232Z" style="fill:rgb(41,49,108);stroke:black;stroke-opacity:0;stroke-width:3.73px;"/>
        <path d="M-1.569,638.223C-1.569,638.223 7.065,637.411 5.794,645.695C5.06,650.479 -1.865,650.455 -1.865,650.455C-1.865,650.455 -1.23,637.146 -1.569,638.223Z" style="fill:rgb(41,49,108);stroke:black;stroke-opacity:0;stroke-width:3.73px;"/>
        <path d="M22.371,533.367C22.414,531.416 42.008,538.931 65.734,534.695C81.932,531.803 82.34,516.678 84.058,518.445C87.642,522.129 67.56,545.535 72.406,548.661C75.989,550.973 126.85,565.632 107.015,593.254C104.899,596.202 82.837,597.686 65.471,587.288C49.558,577.761 22.315,535.859 22.371,533.367Z" style="fill:rgb(41,49,108);stroke:black;stroke-opacity:0;stroke-width:3.73px;"/>
        <path d="M40.853,572.991C41.067,571.897 64.25,593.669 62.622,595.8C62.113,596.466 57.564,591.886 55.023,590.751C52.3,589.534 50.075,591.981 48.773,590.349C46.411,587.389 40.541,574.593 40.853,572.991Z" style="fill:rgb(41,49,108);stroke:black;stroke-opacity:0;stroke-width:3.73px;"/>
        <path d="M72.905,632.835C75.504,633.509 80.754,645.197 81.753,647.313C82.564,649.029 84.907,661.16 84.103,661.267C81.844,661.567 78.12,653.873 76.269,649.628C72.553,641.104 71.735,632.531 72.905,632.835Z" style="fill:rgb(41,49,108);stroke:black;stroke-opacity:0;stroke-width:3.73px;"/>
        <path d="M114.941,615.025C115.119,613.849 121.666,607.356 131.65,615.566C141.912,624.005 140.681,642.868 139.642,643.245C138.524,643.649 137.436,629.894 130.583,622.62C124.309,615.96 114.763,616.2 114.941,615.025Z" style="fill:rgb(41,49,108);stroke:black;stroke-opacity:0;stroke-width:3.73px;"/>
        <path d="M123.238,640.618C123.903,639.2 130.853,645.401 132.148,655.795C132.919,661.978 134.494,679.357 132.662,677.485C131.195,675.984 127.764,667.407 127.314,658.1C126.881,649.136 122.383,642.442 123.238,640.618Z" style="fill:rgb(41,49,108);stroke:black;stroke-opacity:0;stroke-width:3.73px;"/>
    </g>
    <g transform="matrix(6.12323e-17,1,-1,6.12323e-17,998.737,-2.74191)">
        <path d="M-7.553,203.758C-7.553,203.758 37.047,226.491 53.038,237.95C69.241,249.561 71.252,269.384 72.277,271.117C72.699,271.829 91.554,265.584 93.145,260.217C94.949,254.127 79.48,249.154 79.48,249.154C79.48,249.154 127.336,247.882 122.148,303.468C115.969,369.661 86.873,389.694 85.206,387.369C84.162,385.914 107.173,369.675 88.818,367.325C88.084,367.231 97.697,358.011 101.727,348.092C105.834,337.984 105.298,327.707 104.187,326.822C103.076,325.938 99.506,345.416 95.063,342.784C92.924,341.518 108.612,275.569 91.158,278.692C76.942,281.236 89.536,328.289 88.176,328.86C87.686,329.066 71.597,298.009 59.384,282.958C39.87,258.909 23.699,243.786 22.895,244.963C21.862,246.475 29.544,258.951 40.255,271.94C51.038,285.017 63.019,294.642 64.554,297.158C64.855,297.651 64.608,306.58 66.573,316.977C68.496,327.146 72.516,338.376 72.746,341.958C73.376,351.809 68.176,362.699 64.566,344.017C64.264,342.458 65.546,336.016 63.189,336.049C53.525,336.183 25.364,320.731 20.028,324.22C18.501,325.219 18.305,331.742 19.76,331.876C37.7,333.532 63.428,340.015 59.548,373.108C55.667,406.202 38.502,420.601 35.925,421.889C32.787,423.456 29.453,422.3 20.111,411.356C12.773,402.761 -3.93,402.691 -3.93,402.691L-4.462,377.906C-4.462,377.906 3.236,382.013 14.327,378.051C23.764,374.679 31.521,364.967 39.403,364.174C50.751,363.034 40.675,380.647 52.838,376.05C57.222,374.393 55.514,357.706 41.14,357.543C29.358,357.409 23.369,366.474 11.595,371.805C1.966,376.165 -3.76,374.388 -3.76,374.388L-1.644,363.266C-1.644,363.266 19.069,366.988 17.871,350.023C16.847,335.517 -2.055,331.311 -2.055,331.311L-1.348,302.871C-1.348,302.871 6.94,301.907 14.728,304.087C22.16,306.167 29.024,313.891 29.085,311.032C29.475,292.831 -3.714,298.931 -3.714,298.931L-4.316,273.036C-4.316,273.036 6.212,270.933 17.896,276.907C30.498,283.35 51.716,308.177 53.529,307.061C55.341,305.945 38.488,281.182 28.772,270.212C13.645,253.134 -7.474,248.014 -7.474,248.014L-7.553,203.758Z" style="fill:rgb(41,49,108);stroke:black;stroke-opacity:0;stroke-width:3.73px;"/>
        <path d="M-5.117,338.492C-5.572,339.218 8.114,341.318 6.355,354.616C5.33,362.366 -6.718,361.166 -6.718,361.166C-6.718,361.166 -4.662,337.766 -5.117,338.492Z" style="fill:rgb(41,49,108);stroke:black;stroke-opacity:0;stroke-width:3.73px;"/>
        <g transform="matrix(1,0,0,1,-0.138192,-0.708103)">
            <path d="M107.78,380.896C106.789,379.475 122.991,360.966 131.868,341.036C136.963,329.597 132.58,321.417 133.73,320.12C134.681,319.048 148.019,331.411 137.818,349.566C132.423,359.168 108.772,382.318 107.78,380.896Z" style="fill:rgb(41,49,108);stroke:black;stroke-opacity:0;stroke-width:3.73px;"/>
        </g>
        <g transform="matrix(0.916978,0,0,0.342508,16.7233,255.145)">
            <path d="M107.78,380.896C108.422,376.362 112.745,358.741 119.645,343.388C124.745,332.039 132.616,319.544 133.409,320.873C134.931,323.427 136.919,350.034 126.718,368.188C121.323,377.79 106.716,388.424 107.78,380.896Z" style="fill:rgb(41,49,108);stroke:black;stroke-opacity:0;stroke-width:5.39px;"/>
        </g>
        <g transform="matrix(1.13964,0,0,0.431596,-82.3491,263.731)">
            <path d="M108.978,380.148C107.311,378.697 113.129,333.393 120.875,340.291C122.946,342.136 126.047,325.198 126.838,326.561C128.754,329.866 124.056,347.684 120.171,357.565C115.485,369.484 109.874,380.929 108.978,380.148Z" style="fill:rgb(41,49,108);stroke:black;stroke-opacity:0;stroke-width:4.33px;"/>
        </g>
        <g transform="matrix(2.11873,0,0,2.63526,10.1145,-484.691)">
            <path d="M-6.607,339.26C-7.062,339.986 8.326,338.08 6.291,354.212C5.008,364.392 -4.353,362.04 -6.552,359.897C-8.952,357.558 -6.152,338.534 -6.607,339.26Z" style="fill:rgb(41,49,108);stroke:black;stroke-opacity:0;stroke-width:1.56px;"/>
        </g>
        <path d="M84.093,481.034C81.191,481.496 86.474,469.983 66.279,465.583C43.875,460.702 24.521,467.863 23.903,466.526C23.137,464.867 38.102,441.763 56.052,419.196C67.808,404.415 102.741,401.382 106.331,405.675C112.64,413.218 112.267,426.994 102.118,436.795C85.413,452.928 71.502,445.154 71.881,450.603C72.403,458.12 79.648,466.738 83.152,472.773C85.39,476.625 85.349,480.834 84.093,481.034Z" style="fill:rgb(41,49,108);stroke:black;stroke-opacity:0;stroke-width:3.73px;"/>
        <path d="M20.048,523.898L16.627,510.589L20.048,523.898Z" style="fill:none;stroke:black;stroke-opacity:0;stroke-width:3.73px;"/>
        <path d="M20.109,523.825C17.071,519.927 4.52,463.779 55.463,470.399C83.853,474.087 83.594,513.483 68.1,525.316C52.479,537.244 23.637,528.35 20.109,523.825Z" style="fill:rgb(41,49,108);stroke:black;stroke-opacity:0;stroke-width:3.73px;"/>
        <path d="M38.603,508.33C32.252,504.53 28.515,488.893 47.413,485.798C60.647,483.63 65.481,497.747 62.092,502.712C57.33,509.686 50.034,515.171 38.603,508.33Z" style="fill:white;stroke:black;stroke-opacity:0;stroke-width:3.73px;"/>
        <path d="M54.615,494.26C55.838,495.374 56.503,502.915 52.121,504.779C47.294,506.832 43.134,503.303 44.78,498.093C46.627,492.25 53.391,493.146 54.615,494.26Z" style="fill:rgb(41,49,108);stroke:black;stroke-opacity:0;stroke-width:3.73px;"/>
        <path d="M-5.017,595.601C-5.017,595.601 4.112,595.639 9.416,592.377C19.942,585.904 30.794,574.043 33.078,576.375C38.598,582.011 57.908,604.619 57.392,632.706C56.761,667.021 22.464,660.544 18.243,662.85C15.577,664.307 16.227,677.216 18.423,676.371C23.044,674.592 45.049,663.99 59.356,664.05C65.455,664.075 59.511,646.783 67.436,644.155C70.839,643.026 68.854,659.265 65.368,674.444C64.514,678.163 63.569,681.818 62.592,685.139C60.178,693.342 62.757,700.418 61.33,701.674C58.335,704.308 47.96,713.948 38.827,724.839C27.21,738.692 18.42,753.284 20.53,755.384C21.76,756.608 42.811,732.127 60.744,710.306C76.894,690.655 83.362,666.639 85.465,668.689C85.817,669.032 70.65,719.188 90.523,720.402C103.926,721.221 90.416,661.745 94.641,655.761C95.82,654.092 100.008,670.961 102.967,669.902C105.168,669.115 102.675,655.6 97.236,645.795C93.024,638.202 85.503,634.083 85.393,632.12C85.294,630.337 93.946,633.857 93.696,627.477C93.418,620.368 75.808,606.81 82.578,609.141C106.323,617.317 124.452,686.044 119.204,711.267C110.864,751.346 77.66,749.565 76.502,749.64C74.529,749.768 95.033,743.084 89.189,736.864C86.781,734.301 71.303,724.698 69.797,731.07C61.279,767.115 37.093,762.43 -3.837,789.969C-15.238,797.64 -5.89,749.248 -5.89,749.248C22.962,739.62 53.297,692.939 50.83,691.438C49.205,690.448 40.434,703.996 26.616,713.287C12.109,723.041 -5.052,727.228 -5.791,727.358C-7.236,727.61 -4.557,700.838 -4.557,700.838C15.475,699.851 25.258,697.239 25.051,687.838C25.04,687.317 17.189,692.014 9.74,693.818C2.226,695.637 -3.9,692.829 -3.9,692.829L-8.95,666.653C7.118,668.108 14.471,654.094 15.727,644.717C17.353,632.589 -1.09,633.823 -2.281,634.917L-3.379,622.878C-3.379,622.878 3.571,623.761 12.026,628.04C20.212,632.181 26.36,640.035 34.513,639.878C42.645,639.722 54.089,642.421 51.759,625.366C49.856,611.444 42.727,634.259 41.244,634.148C18.095,632.413 19.942,616.057 -3.873,616.442L-5.017,595.601Z" style="fill:rgb(41,49,108);stroke:black;stroke-opacity:0;stroke-width:3.73px;"/>
        <path d="M-7.744,527.232C-5.367,522.85 27.758,525.111 24.058,564.235C21.51,591.187 -5.066,586.565 -5.535,587.62C-6.003,588.674 -7.744,527.232 -7.744,527.232Z" style="fill:rgb(41,49,108);stroke:black;stroke-opacity:0;stroke-width:3.73px;"/>
        <path d="M-1.569,638.223C-1.569,638.223 7.065,637.411 5.794,645.695C5.06,650.479 -1.865,650.455 -1.865,650.455C-1.865,650.455 -1.23,637.146 -1.569,638.223Z" style="fill:rgb(41,49,108);stroke:black;stroke-opacity:0;stroke-width:3.73px;"/>
        <path d="M22.371,533.367C22.414,531.416 42.008,538.931 65.734,534.695C81.932,531.803 82.34,516.678 84.058,518.445C87.642,522.129 67.56,545.535 72.406,548.661C75.989,550.973 126.85,565.632 107.015,593.254C104.899,596.202 82.837,597.686 65.471,587.288C49.558,577.761 22.315,535.859 22.371,533.367Z" style="fill:rgb(41,49,108);stroke:black;stroke-opacity:0;stroke-width:3.73px;"/>
        <path d="M40.853,572.991C41.067,571.897 64.25,593.669 62.622,595.8C62.113,596.466 57.564,591.886 55.023,590.751C52.3,589.534 50.075,591.981 48.773,590.349C46.411,587.389 40.541,574.593 40.853,572.991Z" style="fill:rgb(41,49,108);stroke:black;stroke-opacity:0;stroke-width:3.73px;"/>
        <path d="M72.905,632.835C75.504,633.509 80.754,645.197 81.753,647.313C82.564,649.029 84.907,661.16 84.103,661.267C81.844,661.567 78.12,653.873 76.269,649.628C72.553,641.104 71.735,632.531 72.905,632.835Z" style="fill:rgb(41,49,108);stroke:black;stroke-opacity:0;stroke-width:3.73px;"/>
        <path d="M114.941,615.025C115.119,613.849 121.666,607.356 131.65,615.566C141.912,624.005 140.681,642.868 139.642,643.245C138.524,643.649 137.436,629.894 130.583,622.62C124.309,615.96 114.763,616.2 114.941,615.025Z" style="fill:rgb(41,49,108);stroke:black;stroke-opacity:0;stroke-width:3.73px;"/>
        <path d="M123.238,640.618C123.903,639.2 130.853,645.401 132.148,655.795C132.919,661.978 134.494,679.357 132.662,677.485C131.195,675.984 127.764,667.407 127.314,658.1C126.881,649.136 122.383,642.442 123.238,640.618Z" style="fill:rgb(41,49,108);stroke:black;stroke-opacity:0;stroke-width:3.73px;"/>
    </g>
    <g transform="matrix(-1,-1.22465e-16,1.22465e-16,-1,999.86,998.284)">
        <path d="M-7.553,203.758C-7.553,203.758 37.047,226.491 53.038,237.95C69.241,249.561 71.252,269.384 72.277,271.117C72.699,271.829 91.554,265.584 93.145,260.217C94.949,254.127 79.48,249.154 79.48,249.154C79.48,249.154 127.336,247.882 122.148,303.468C115.969,369.661 86.873,389.694 85.206,387.369C84.162,385.914 107.173,369.675 88.818,367.325C88.084,367.231 97.697,358.011 101.727,348.092C105.834,337.984 105.298,327.707 104.187,326.822C103.076,325.938 99.506,345.416 95.063,342.784C92.924,341.518 108.612,275.569 91.158,278.692C76.942,281.236 89.536,328.289 88.176,328.86C87.686,329.066 71.597,298.009 59.384,282.958C39.87,258.909 23.699,243.786 22.895,244.963C21.862,246.475 29.544,258.951 40.255,271.94C51.038,285.017 63.019,294.642 64.554,297.158C64.855,297.651 64.608,306.58 66.573,316.977C68.496,327.146 72.516,338.376 72.746,341.958C73.376,351.809 68.176,362.699 64.566,344.017C64.264,342.458 65.546,336.016 63.189,336.049C53.525,336.183 25.364,320.731 20.028,324.22C18.501,325.219 18.305,331.742 19.76,331.876C37.7,333.532 63.428,340.015 59.548,373.108C55.667,406.202 38.502,420.601 35.925,421.889C32.787,423.456 29.453,422.3 20.111,411.356C12.773,402.761 -3.93,402.691 -3.93,402.691L-4.462,377.906C-4.462,377.906 3.236,382.013 14.327,378.051C23.764,374.679 31.521,364.967 39.403,364.174C50.751,363.034 40.675,380.647 52.838,376.05C57.222,374.393 55.514,357.706 41.14,357.543C29.358,357.409 23.369,366.474 11.595,371.805C1.966,376.165 -3.76,374.388 -3.76,374.388L-1.644,363.266C-1.644,363.266 19.069,366.988 17.871,350.023C16.847,335.517 -2.055,331.311 -2.055,331.311L-1.348,302.871C-1.348,302.871 6.94,301.907 14.728,304.087C22.16,306.167 29.024,313.891 29.085,311.032C29.475,292.831 -3.714,298.931 -3.714,298.931L-4.316,273.036C-4.316,273.036 6.212,270.933 17.896,276.907C30.498,283.35 51.716,308.177 53.529,307.061C55.341,305.945 38.488,281.182 28.772,270.212C13.645,253.134 -7.474,248.014 -7.474,248.014L-7.553,203.758Z" style="fill:rgb(41,49,108);stroke:black;stroke-opacity:0;stroke-width:3.73px;"/>
        <path d="M-5.117,338.492C-5.572,339.218 8.114,341.318 6.355,354.616C5.33,362.366 -6.718,361.166 -6.718,361.166C-6.718,361.166 -4.662,337.766 -5.117,338.492Z" style="fill:rgb(41,49,108);stroke:black;stroke-opacity:0;stroke-width:3.73px;"/>
        <g transform="matrix(1,0,0,1,-0.138192,-0.708103)">
            <path d="M107.78,380.896C106.789,379.475 122.991,360.966 131.868,341.036C136.963,329.597 132.58,321.417 133.73,320.12C134.681,319.048 148.019,331.411 137.818,349.566C132.423,359.168 108.772,382.318 107.78,380.896Z" style="fill:rgb(41,49,108);stroke:black;stroke-opacity:0;stroke-width:3.73px;"/>
        </g>
        <g transform="matrix(0.916978,0,0,0.342508,16.7233,255.145)">
            <path d="M107.78,380.896C108.422,376.362 112.745,358.741 119.645,343.388C124.745,332.039 132.616,319.544 133.409,320.873C134.931,323.427 136.919,350.034 126.718,368.188C121.323,377.79 106.716,388.424 107.78,380.896Z" style="fill:rgb(41,49,108);stroke:black;stroke-opacity:0;stroke-width:5.39px;"/>
        </g>
        <g transform="matrix(1.13964,0,0,0.431596,-82.3491,263.731)">
            <path d="M108.978,380.148C107.311,378.697 113.129,333.393 120.875,340.291C122.946,342.136 126.047,325.198 126.838,326.561C128.754,329.866 124.056,347.684 120.171,357.565C115.485,369.484 109.874,380.929 108.978,380.148Z" style="fill:rgb(41,49,108);stroke:black;stroke-opacity:0;stroke-width:4.33px;"/>
        </g>
        <g transform="matrix(2.11873,0,0,2.63526,10.1145,-484.691)">
            <path d="M-6.607,339.26C-7.062,339.986 8.326,338.08 6.291,354.212C5.008,364.392 -4.353,362.04 -6.552,359.897C-8.952,357.558 -6.152,338.534 -6.607,339.26Z" style="fill:rgb(41,49,108);stroke:black;stroke-opacity:0;stroke-width:1.56px;"/>
        </g>
        <path d="M84.093,481.034C81.191,481.496 86.474,469.983 66.279,465.583C43.875,460.702 24.521,467.863 23.903,466.526C23.137,464.867 38.102,441.763 56.052,419.196C67.808,404.415 102.741,401.382 106.331,405.675C112.64,413.218 112.267,426.994 102.118,436.795C85.413,452.928 71.502,445.154 71.881,450.603C72.403,458.12 79.648,466.738 83.152,472.773C85.39,476.625 85.349,480.834 84.093,481.034Z" style="fill:rgb(41,49,108);stroke:black;stroke-opacity:0;stroke-width:3.73px;"/>
        <path d="M20.048,523.898L16.627,510.589L20.048,523.898Z" style="fill:none;stroke:black;stroke-opacity:0;stroke-width:3.73px;"/>
        <path d="M20.109,523.825C17.071,519.927 4.52,463.779 55.463,470.399C83.853,474.087 83.594,513.483 68.1,525.316C52.479,537.244 23.637,528.35 20.109,523.825Z" style="fill:rgb(41,49,108);stroke:black;stroke-opacity:0;stroke-width:3.73px;"/>
        <path d="M38.603,508.33C32.252,504.53 28.515,488.893 47.413,485.798C60.647,483.63 65.481,497.747 62.092,502.712C57.33,509.686 50.034,515.171 38.603,508.33Z" style="fill:white;stroke:black;stroke-opacity:0;stroke-width:3.73px;"/>
        <path d="M54.615,494.26C55.838,495.374 56.503,502.915 52.121,504.779C47.294,506.832 43.134,503.303 44.78,498.093C46.627,492.25 53.391,493.146 54.615,494.26Z" style="fill:rgb(41,49,108);stroke:black;stroke-opacity:0;stroke-width:3.73px;"/>
        <path d="M-5.017,595.601C-5.017,595.601 4.112,595.639 9.416,592.377C19.942,585.904 30.794,574.043 33.078,576.375C38.598,582.011 57.908,604.619 57.392,632.706C56.761,667.021 22.464,660.544 18.243,662.85C15.577,664.307 16.227,677.216 18.423,676.371C23.044,674.592 45.049,663.99 59.356,664.05C65.455,664.075 59.511,646.783 67.436,644.155C70.839,643.026 68.854,659.265 65.368,674.444C64.514,678.163 63.569,681.818 62.592,685.139C60.178,693.342 62.757,700.418 61.33,701.674C58.335,704.308 47.96,713.948 38.827,724.839C27.21,738.692 18.42,753.284 20.53,755.384C21.76,756.608 42.811,732.127 60.744,710.306C76.894,690.655 83.362,666.639 85.465,668.689C85.817,669.032 70.65,719.188 90.523,720.402C103.926,721.221 90.416,661.745 94.641,655.761C95.82,654.092 100.008,670.961 102.967,669.902C105.168,669.115 102.675,655.6 97.236,645.795C93.024,638.202 85.503,634.083 85.393,632.12C85.294,630.337 93.946,633.857 93.696,627.477C93.418,620.368 75.808,606.81 82.578,609.141C106.323,617.317 124.452,686.044 119.204,711.267C110.864,751.346 77.66,749.565 76.502,749.64C74.529,749.768 95.033,743.084 89.189,736.864C86.781,734.301 71.303,724.698 69.797,731.07C61.279,767.115 37.093,762.43 -3.837,789.969C-15.238,797.64 -5.89,749.248 -5.89,749.248C22.962,739.62 53.297,692.939 50.83,691.438C49.205,690.448 40.434,703.996 26.616,713.287C12.109,723.041 -5.052,727.228 -5.791,727.358C-7.236,727.61 -4.557,700.838 -4.557,700.838C15.475,699.851 25.258,697.239 25.051,687.838C25.04,687.317 17.189,692.014 9.74,693.818C2.226,695.637 -3.9,692.829 -3.9,692.829L-8.95,666.653C7.118,668.108 14.471,654.094 15.727,644.717C17.353,632.589 -1.09,633.823 -2.281,634.917L-3.379,622.878C-3.379,622.878 3.571,623.761 12.026,628.04C20.212,632.181 26.36,640.035 34.513,639.878C42.645,639.722 54.089,642.421 51.759,625.366C49.856,611.444 42.727,634.259 41.244,634.148C18.095,632.413 19.942,616.057 -3.873,616.442L-5.017,595.601Z" style="fill:rgb(41,49,108);stroke:black;stroke-opacity:0;stroke-width:3.73px;"/>
        <path d="M-7.744,527.232C-5.367,522.85 27.758,525.111 24.058,564.235C21.51,591.187 -5.066,586.565 -5.535,587.62C-6.003,588.674 -7.744,527.232 -7.744,527.232Z" style="fill:rgb(41,49,108);stroke:black;stroke-opacity:0;stroke-width:3.73px;"/>
        <path d="M-1.569,638.223C-1.569,638.223 7.065,637.411 5.794,645.695C5.06,650.479 -1.865,650.455 -1.865,650.455C-1.865,650.455 -1.23,637.146 -1.569,638.223Z" style="fill:rgb(41,49,108);stroke:black;stroke-opacity:0;stroke-width:3.73px;"/>
        <path d="M22.371,533.367C22.414,531.416 42.008,538.931 65.734,534.695C81.932,531.803 82.34,516.678 84.058,518.445C87.642,522.129 67.56,545.535 72.406,548.661C75.989,550.973 126.85,565.632 107.015,593.254C104.899,596.202 82.837,597.686 65.471,587.288C49.558,577.761 22.315,535.859 22.371,533.367Z" style="fill:rgb(41,49,108);stroke:black;stroke-opacity:0;stroke-width:3.73px;"/>
        <path d="M40.853,572.991C41.067,571.897 64.25,593.669 62.622,595.8C62.113,596.466 57.564,591.886 55.023,590.751C52.3,589.534 50.075,591.981 48.773,590.349C46.411,587.389 40.541,574.593 40.853,572.991Z" style="fill:rgb(41,49,108);stroke:black;stroke-opacity:0;stroke-width:3.73px;"/>
        <path d="M72.905,632.835C75.504,633.509 80.754,645.197 81.753,647.313C82.564,649.029 84.907,661.16 84.103,661.267C81.844,661.567 78.12,653.873 76.269,649.628C72.553,641.104 71.735,632.531 72.905,632.835Z" style="fill:rgb(41,49,108);stroke:black;stroke-opacity:0;stroke-width:3.73px;"/>
        <path d="M114.941,615.025C115.119,613.849 121.666,607.356 131.65,615.566C141.912,624.005 140.681,642.868 139.642,643.245C138.524,643.649 137.436,629.894 130.583,622.62C124.309,615.96 114.763,616.2 114.941,615.025Z" style="fill:rgb(41,49,108);stroke:black;stroke-opacity:0;stroke-width:3.73px;"/>
        <path d="M123.238,640.618C123.903,639.2 130.853,645.401 132.148,655.795C132.919,661.978 134.494,679.357 132.662,677.485C131.195,675.984 127.764,667.407 127.314,658.1C126.881,649.136 122.383,642.442 123.238,640.618Z" style="fill:rgb(41,49,108);stroke:black;stroke-opacity:0;stroke-width:3.73px;"/>
    </g>
    <g transform="matrix(-1.83697e-16,-1,1,-1.83697e-16,0.268342,1001.81)">
        <path d="M-7.553,203.758C-7.553,203.758 37.047,226.491 53.038,237.95C69.241,249.561 71.252,269.384 72.277,271.117C72.699,271.829 91.554,265.584 93.145,260.217C94.949,254.127 79.48,249.154 79.48,249.154C79.48,249.154 127.336,247.882 122.148,303.468C115.969,369.661 86.873,389.694 85.206,387.369C84.162,385.914 107.173,369.675 88.818,367.325C88.084,367.231 97.697,358.011 101.727,348.092C105.834,337.984 105.298,327.707 104.187,326.822C103.076,325.938 99.506,345.416 95.063,342.784C92.924,341.518 108.612,275.569 91.158,278.692C76.942,281.236 89.536,328.289 88.176,328.86C87.686,329.066 71.597,298.009 59.384,282.958C39.87,258.909 23.699,243.786 22.895,244.963C21.862,246.475 29.544,258.951 40.255,271.94C51.038,285.017 63.019,294.642 64.554,297.158C64.855,297.651 64.608,306.58 66.573,316.977C68.496,327.146 72.516,338.376 72.746,341.958C73.376,351.809 68.176,362.699 64.566,344.017C64.264,342.458 65.546,336.016 63.189,336.049C53.525,336.183 25.364,320.731 20.028,324.22C18.501,325.219 18.305,331.742 19.76,331.876C37.7,333.532 63.428,340.015 59.548,373.108C55.667,406.202 38.502,420.601 35.925,421.889C32.787,423.456 29.453,422.3 20.111,411.356C12.773,402.761 -3.93,402.691 -3.93,402.691L-4.462,377.906C-4.462,377.906 3.236,382.013 14.327,378.051C23.764,374.679 31.521,364.967 39.403,364.174C50.751,363.034 40.675,380.647 52.838,376.05C57.222,374.393 55.514,357.706 41.14,357.543C29.358,357.409 23.369,366.474 11.595,371.805C1.966,376.165 -3.76,374.388 -3.76,374.388L-1.644,363.266C-1.644,363.266 19.069,366.988 17.871,350.023C16.847,335.517 -2.055,331.311 -2.055,331.311L-1.348,302.871C-1.348,302.871 6.94,301.907 14.728,304.087C22.16,306.167 29.024,313.891 29.085,311.032C29.475,292.831 -3.714,298.931 -3.714,298.931L-4.316,273.036C-4.316,273.036 6.212,270.933 17.896,276.907C30.498,283.35 51.716,308.177 53.529,307.061C55.341,305.945 38.488,281.182 28.772,270.212C13.645,253.134 -7.474,248.014 -7.474,248.014L-7.553,203.758Z" style="fill:rgb(41,49,108);stroke:black;stroke-opacity:0;stroke-width:3.73px;"/>
        <path d="M-5.117,338.492C-5.572,339.218 8.114,341.318 6.355,354.616C5.33,362.366 -6.718,361.166 -6.718,361.166C-6.718,361.166 -4.662,337.766 -5.117,338.492Z" style="fill:rgb(41,49,108);stroke:black;stroke-opacity:0;stroke-width:3.73px;"/>
        <g transform="matrix(1,0,0,1,-0.138192,-0.708103)">
            <path d="M107.78,380.896C106.789,379.475 122.991,360.966 131.868,341.036C136.963,329.597 132.58,321.417 133.73,320.12C134.681,319.048 148.019,331.411 137.818,349.566C132.423,359.168 108.772,382.318 107.78,380.896Z" style="fill:rgb(41,49,108);stroke:black;stroke-opacity:0;stroke-width:3.73px;"/>
        </g>
        <g transform="matrix(0.916978,0,0,0.342508,16.7233,255.145)">
            <path d="M107.78,380.896C108.422,376.362 112.745,358.741 119.645,343.388C124.745,332.039 132.616,319.544 133.409,320.873C134.931,323.427 136.919,350.034 126.718,368.188C121.323,377.79 106.716,388.424 107.78,380.896Z" style="fill:rgb(41,49,108);stroke:black;stroke-opacity:0;stroke-width:5.39px;"/>
        </g>
        <g transform="matrix(1.13964,0,0,0.431596,-82.3491,263.731)">
            <path d="M108.978,380.148C107.311,378.697 113.129,333.393 120.875,340.291C122.946,342.136 126.047,325.198 126.838,326.561C128.754,329.866 124.056,347.684 120.171,357.565C115.485,369.484 109.874,380.929 108.978,380.148Z" style="fill:rgb(41,49,108);stroke:black;stroke-opacity:0;stroke-width:4.33px;"/>
        </g>
        <g transform="matrix(2.11873,0,0,2.63526,10.1145,-484.691)">
            <path d="M-6.607,339.26C-7.062,339.986 8.326,338.08 6.291,354.212C5.008,364.392 -4.353,362.04 -6.552,359.897C-8.952,357.558 -6.152,338.534 -6.607,339.26Z" style="fill:rgb(41,49,108);stroke:black;stroke-opacity:0;stroke-width:1.56px;"/>
        </g>
        <path d="M84.093,481.034C81.191,481.496 86.474,469.983 66.279,465.583C43.875,460.702 24.521,467.863 23.903,466.526C23.137,464.867 38.102,441.763 56.052,419.196C67.808,404.415 102.741,401.382 106.331,405.675C112.64,413.218 112.267,426.994 102.118,436.795C85.413,452.928 71.502,445.154 71.881,450.603C72.403,458.12 79.648,466.738 83.152,472.773C85.39,476.625 85.349,480.834 84.093,481.034Z" style="fill:rgb(41,49,108);stroke:black;stroke-opacity:0;stroke-width:3.73px;"/>
        <path d="M20.048,523.898L16.627,510.589L20.048,523.898Z" style="fill:none;stroke:black;stroke-opacity:0;stroke-width:3.73px;"/>
        <path d="M20.109,523.825C17.071,519.927 4.52,463.779 55.463,470.399C83.853,474.087 83.594,513.483 68.1,525.316C52.479,537.244 23.637,528.35 20.109,523.825Z" style="fill:rgb(41,49,108);stroke:black;stroke-opacity:0;stroke-width:3.73px;"/>
        <path d="M38.603,508.33C32.252,504.53 28.515,488.893 47.413,485.798C60.647,483.63 65.481,497.747 62.092,502.712C57.33,509.686 50.034,515.171 38.603,508.33Z" style="fill:white;stroke:black;stroke-opacity:0;stroke-width:3.73px;"/>
        <path d="M54.615,494.26C55.838,495.374 56.503,502.915 52.121,504.779C47.294,506.832 43.134,503.303 44.78,498.093C46.627,492.25 53.391,493.146 54.615,494.26Z" style="fill:rgb(41,49,108);stroke:black;stroke-opacity:0;stroke-width:3.73px;"/>
        <path d="M-5.017,595.601C-5.017,595.601 4.112,595.639 9.416,592.377C19.942,585.904 30.794,574.043 33.078,576.375C38.598,582.011 57.908,604.619 57.392,632.706C56.761,667.021 22.464,660.544 18.243,662.85C15.577,664.307 16.227,677.216 18.423,676.371C23.044,674.592 45.049,663.99 59.356,664.05C65.455,664.075 59.511,646.783 67.436,644.155C70.839,643.026 68.854,659.265 65.368,674.444C64.514,678.163 63.569,681.818 62.592,685.139C60.178,693.342 62.757,700.418 61.33,701.674C58.335,704.308 47.96,713.948 38.827,724.839C27.21,738.692 18.42,753.284 20.53,755.384C21.76,756.608 42.811,732.127 60.744,710.306C76.894,690.655 83.362,666.639 85.465,668.689C85.817,669.032 70.65,719.188 90.523,720.402C103.926,721.221 90.416,661.745 94.641,655.761C95.82,654.092 100.008,670.961 102.967,669.902C105.168,669.115 102.675,655.6 97.236,645.795C93.024,638.202 85.503,634.083 85.393,632.12C85.294,630.337 93.946,633.857 93.696,627.477C93.418,620.368 75.808,606.81 82.578,609.141C106.323,617.317 124.452,686.044 119.204,711.267C110.864,751.346 77.66,749.565 76.502,749.64C74.529,749.768 95.033,743.084 89.189,736.864C86.781,734.301 71.303,724.698 69.797,731.07C61.279,767.115 37.093,762.43 -3.837,789.969C-15.238,797.64 -5.89,749.248 -5.89,749.248C22.962,739.62 53.297,692.939 50.83,691.438C49.205,690.448 40.434,703.996 26.616,713.287C12.109,723.041 -5.052,727.228 -5.791,727.358C-7.236,727.61 -4.557,700.838 -4.557,700.838C15.475,699.851 25.258,697.239 25.051,687.838C25.04,687.317 17.189,692.014 9.74,693.818C2.226,695.637 -3.9,692.829 -3.9,692.829L-8.95,666.653C7.118,668.108 14.471,654.094 15.727,644.717C17.353,632.589 -1.09,633.823 -2.281,634.917L-3.379,622.878C-3.379,622.878 3.571,623.761 12.026,628.04C20.212,632.181 26.36,640.035 34.513,639.878C42.645,639.722 54.089,642.421 51.759,625.366C49.856,611.444 42.727,634.259 41.244,634.148C18.095,632.413 19.942,616.057 -3.873,616.442L-5.017,595.601Z" style="fill:rgb(41,49,108);stroke:black;stroke-opacity:0;stroke-width:3.73px;"/>
        <path d="M-7.744,527.232C-5.367,522.85 27.758,525.111 24.058,564.235C21.51,591.187 -5.066,586.565 -5.535,587.62C-6.003,588.674 -7.744,527.232 -7.744,527.232Z" style="fill:rgb(41,49,108);stroke:black;stroke-opacity:0;stroke-width:3.73px;"/>
        <path d="M-1.569,638.223C-1.569,638.223 7.065,637.411 5.794,645.695C5.06,650.479 -1.865,650.455 -1.865,650.455C-1.865,650.455 -1.23,637.146 -1.569,638.223Z" style="fill:rgb(41,49,108);stroke:black;stroke-opacity:0;stroke-width:3.73px;"/>
        <path d="M22.371,533.367C22.414,531.416 42.008,538.931 65.734,534.695C81.932,531.803 82.34,516.678 84.058,518.445C87.642,522.129 67.56,545.535 72.406,548.661C75.989,550.973 126.85,565.632 107.015,593.254C104.899,596.202 82.837,597.686 65.471,587.288C49.558,577.761 22.315,535.859 22.371,533.367Z" style="fill:rgb(41,49,108);stroke:black;stroke-opacity:0;stroke-width:3.73px;"/>
        <path d="M40.853,572.991C41.067,571.897 64.25,593.669 62.622,595.8C62.113,596.466 57.564,591.886 55.023,590.751C52.3,589.534 50.075,591.981 48.773,590.349C46.411,587.389 40.541,574.593 40.853,572.991Z" style="fill:rgb(41,49,108);stroke:black;stroke-opacity:0;stroke-width:3.73px;"/>
        <path d="M72.905,632.835C75.504,633.509 80.754,645.197 81.753,647.313C82.564,649.029 84.907,661.16 84.103,661.267C81.844,661.567 78.12,653.873 76.269,649.628C72.553,641.104 71.735,632.531 72.905,632.835Z" style="fill:rgb(41,49,108);stroke:black;stroke-opacity:0;stroke-width:3.73px;"/>
        <path d="M114.941,615.025C115.119,613.849 121.666,607.356 131.65,615.566C141.912,624.005 140.681,642.868 139.642,643.245C138.524,643.649 137.436,629.894 130.583,622.62C124.309,615.96 114.763,616.2 114.941,615.025Z" style="fill:rgb(41,49,108);stroke:black;stroke-opacity:0;stroke-width:3.73px;"/>
        <path d="M123.238,640.618C123.903,639.2 130.853,645.401 132.148,655.795C132.919,661.978 134.494,679.357 132.662,677.485C131.195,675.984 127.764,667.407 127.314,658.1C126.881,649.136 122.383,642.442 123.238,640.618Z" style="fill:rgb(41,49,108);stroke:black;stroke-opacity:0;stroke-width:3.73px;"/>
    </g>
</svg>
