<?xml version="1.0" encoding="UTF-8" standalone="no"?>
<!DOCTYPE svg PUBLIC "-//W3C//DTD SVG 1.1//EN" "http://www.w3.org/Graphics/SVG/1.1/DTD/svg11.dtd">
<svg width="100%" height="100%" viewBox="0 0 1000 1000" version="1.1" xmlns="http://www.w3.org/2000/svg" xmlns:xlink="http://www.w3.org/1999/xlink" xml:space="preserve" xmlns:serif="http://www.serif.com/" style="fill-rule:evenodd;clip-rule:evenodd;stroke-linecap:round;stroke-linejoin:round;stroke-miterlimit:1.5;">
    <g>
        <g transform="matrix(1.0498,0,0,1.05208,-10.2415,-11.5741)">
            <path d="M247.732,251.637C221.318,234.494 163.539,211.607 122.092,203.355C153.605,157.912 130.454,146.907 124.655,108.028L247.732,251.637Z" style="fill:white;"/>
        </g>
        <g transform="matrix(0.998795,0,0,0.998795,6.76465,0.216533)">
            <path d="M104.421,75.479C104.421,75.479 98.162,63.482 96.171,57.054C93.793,49.372 90.151,29.391 90.151,29.391C90.151,29.391 78.758,49.019 70.921,55.616C63.084,62.214 43.128,68.979 43.128,68.979C43.128,68.979 59.98,73.838 66.975,77.411C73.598,80.794 85.1,90.418 85.1,90.418C112.387,109.054 116.593,101.543 104.421,75.479Z" style="fill:none;stroke:white;stroke-width:4.17px;"/>
        </g>
        <g transform="matrix(0.998795,0,0,0.998795,-0.998373,-0.337602)">
            <path d="M217.764,111.992C217.764,111.992 216.95,164.968 222.771,188.954C228.535,212.708 252.687,255.904 252.687,255.904C252.687,255.904 210.978,232.417 188.712,223.876C166.077,215.193 117.255,203.384 116.877,203.806C116.483,204.246 135.963,177.856 136.222,162.721C136.522,145.208 118.677,98.729 118.677,98.729C118.677,98.729 161.828,121.986 178.343,124.197C191.977,126.022 217.764,111.992 217.764,111.992Z" style="fill:none;stroke:white;stroke-width:4.17px;"/>
        </g>
        <g transform="matrix(0.894901,-0.173852,0.173852,0.894901,-174.549,95.2578)">
            <g transform="matrix(1.06327,0.204819,-0.207239,1.07583,241.695,-62.9668)">
                <path d="M151.992,80.908C151.25,81.696 168.441,88.684 176.211,78.763C180.85,72.841 179.071,44.807 179.071,44.807C179.071,44.807 242.349,47.033 215.278,93.515C210.022,102.54 193.152,108.406 171.639,106.852C159.851,106 140.123,90.603 140.123,90.603C140.123,90.603 152.602,80.26 151.992,80.908Z" style="fill:none;stroke:white;stroke-width:4.2px;"/>
            </g>
            <g transform="matrix(1.07583,0.207239,-0.207239,1.07583,239.934,-63.3059)">
                <path d="M179.959,46.086C179.959,46.086 194.246,71.784 185.659,81.972C172.807,97.218 150.343,82.519 150.72,82.243C150.72,82.243 169.636,89.426 176.144,78.62C181.113,70.368 179.959,46.086 179.959,46.086Z" style="fill:white;stroke:white;stroke-width:4.17px;"/>
            </g>
        </g>
        <g transform="matrix(0.980764,0.188926,-0.188926,0.980764,53.8581,-35.9645)">
            <path d="M115.835,66.189C115.835,66.189 106.469,42.222 110.781,34.342C115.728,25.302 134.666,31.584 134.325,31.847C134.012,32.088 121.581,33.486 118.547,40.881C115.388,48.581 121.838,61.698 121.838,61.698L115.835,66.189Z" style="fill:white;stroke:white;stroke-width:4.17px;"/>
        </g>
        <g transform="matrix(0.911632,0,0,0.911632,20.5955,21.7443)">
            <path d="M104.599,83.718L63.215,37.041L83.534,9.947L92.137,43.218L103.851,66.881L104.599,83.718Z" style="fill:white;"/>
        </g>
        <g transform="matrix(-0.155894,0.898203,0.898203,0.155894,90.2934,-202.509)">
            <g transform="matrix(1.06327,0.204819,-0.207239,1.07583,241.695,-62.9668)">
                <path d="M151.992,80.908C151.25,81.696 168.441,88.684 176.211,78.763C180.85,72.841 179.071,44.807 179.071,44.807C179.071,44.807 242.349,47.033 215.278,93.515C210.022,102.54 193.152,108.406 171.639,106.852C159.851,106 140.123,90.603 140.123,90.603C140.123,90.603 152.602,80.26 151.992,80.908Z" style="fill:none;stroke:white;stroke-width:4.2px;"/>
            </g>
            <g transform="matrix(1.07583,0.207239,-0.207239,1.07583,239.934,-63.3059)">
                <path d="M179.959,46.086C179.959,46.086 194.246,71.784 185.659,81.972C172.807,97.218 150.343,82.519 150.72,82.243C150.72,82.243 169.636,89.426 176.144,78.62C181.113,70.368 179.959,46.086 179.959,46.086Z" style="fill:white;stroke:white;stroke-width:4.17px;"/>
            </g>
        </g>
        <g transform="matrix(0.208531,0.976783,0.976783,-0.208531,-36.3279,28.4808)">
            <path d="M115.835,66.189C115.835,66.189 106.469,42.222 110.781,34.342C115.728,25.302 134.666,31.584 134.325,31.847C134.012,32.088 121.581,33.486 118.547,40.881C115.388,48.581 121.838,61.698 121.838,61.698L115.835,66.189Z" style="fill:white;stroke:white;stroke-width:4.17px;"/>
        </g>
        <g transform="matrix(0.911632,0,0,0.911632,22.2145,22.5568)">
            <g transform="matrix(0.261045,0.299171,-0.40076,0.347033,187.339,-211.771)">
                <path d="M311.069,350.71C311.069,350.71 312.955,433.659 393.642,461.28C405.887,465.471 420.218,478.144 425.549,483.404C427.787,485.612 427.867,490.631 425.626,492.837C420.499,497.88 406.772,509.393 394.787,513.667C317.454,541.241 313.707,627.039 313.707,627.039C313.707,627.039 327.491,646.042 436.019,645.977C543.371,645.912 565.585,628.188 565.585,628.188C565.585,628.188 566.503,544.329 482.728,513.719C466.957,507.957 456.883,497.755 451.581,492.812C449.312,490.696 449.666,485.81 451.743,483.505C456.234,478.521 467.764,466.22 478.529,462.91C559.904,437.891 564.555,348.653 564.555,348.653C564.555,348.653 548.186,332.699 440.266,333.956C326.503,335.281 311.069,350.71 311.069,350.71Z" style="fill:rgb(41,49,108);stroke:white;stroke-width:9.78px;"/>
            </g>
            <g transform="matrix(0.318641,0.36518,-0.44178,0.382553,184.038,-257.842)">
                <path d="M391.137,520.087C418.356,508.934 450.239,509.889 474.39,518.43C465.501,511.311 453.188,502.408 445.926,487.377C451.966,475.948 465.167,466.177 479.376,460.63C449.989,467.647 420.883,467.229 392.042,459.824C407.253,470.184 427.067,483.127 429.406,489.324L419.53,501.6L391.137,520.087Z" style="fill:white;"/>
            </g>
        </g>
    </g>
    <g transform="matrix(6.32627e-17,1.03316,-1.03316,6.32627e-17,1007.76,-6.95011)">
        <g transform="matrix(1.0498,0,0,1.05208,-10.2415,-11.5741)">
            <path d="M247.732,251.637C221.318,234.494 163.539,211.607 122.092,203.355C153.605,157.912 130.454,146.907 124.655,108.028L247.732,251.637Z" style="fill:white;"/>
        </g>
        <g transform="matrix(0.998795,0,0,0.998795,6.76465,0.216533)">
            <path d="M104.421,75.479C104.421,75.479 98.162,63.482 96.171,57.054C93.793,49.372 90.151,29.391 90.151,29.391C90.151,29.391 78.758,49.019 70.921,55.616C63.084,62.214 43.128,68.979 43.128,68.979C43.128,68.979 59.98,73.838 66.975,77.411C73.598,80.794 85.1,90.418 85.1,90.418C112.387,109.054 116.593,101.543 104.421,75.479Z" style="fill:none;stroke:white;stroke-width:4.04px;"/>
        </g>
        <g transform="matrix(0.998795,0,0,0.998795,-0.998373,-0.337602)">
            <path d="M217.764,111.992C217.764,111.992 216.95,164.968 222.771,188.954C228.535,212.708 252.687,255.904 252.687,255.904C252.687,255.904 210.978,232.417 188.712,223.876C166.077,215.193 117.255,203.384 116.877,203.806C116.483,204.246 135.963,177.856 136.222,162.721C136.522,145.208 118.677,98.729 118.677,98.729C118.677,98.729 161.828,121.986 178.343,124.197C191.977,126.022 217.764,111.992 217.764,111.992Z" style="fill:none;stroke:white;stroke-width:4.04px;"/>
        </g>
        <g transform="matrix(0.894901,-0.173852,0.173852,0.894901,-174.549,95.2578)">
            <g transform="matrix(1.06327,0.204819,-0.207239,1.07583,241.695,-62.9668)">
                <path d="M151.992,80.908C151.25,81.696 168.441,88.684 176.211,78.763C180.85,72.841 179.071,44.807 179.071,44.807C179.071,44.807 242.349,47.033 215.278,93.515C210.022,102.54 193.152,108.406 171.639,106.852C159.851,106 140.123,90.603 140.123,90.603C140.123,90.603 152.602,80.26 151.992,80.908Z" style="fill:none;stroke:white;stroke-width:4.06px;"/>
            </g>
            <g transform="matrix(1.07583,0.207239,-0.207239,1.07583,239.934,-63.3059)">
                <path d="M179.959,46.086C179.959,46.086 194.246,71.784 185.659,81.972C172.807,97.218 150.343,82.519 150.72,82.243C150.72,82.243 169.636,89.426 176.144,78.62C181.113,70.368 179.959,46.086 179.959,46.086Z" style="fill:white;stroke:white;stroke-width:4.04px;"/>
            </g>
        </g>
        <g transform="matrix(0.980764,0.188926,-0.188926,0.980764,53.8581,-35.9645)">
            <path d="M115.835,66.189C115.835,66.189 106.469,42.222 110.781,34.342C115.728,25.302 134.666,31.584 134.325,31.847C134.012,32.088 121.581,33.486 118.547,40.881C115.388,48.581 121.838,61.698 121.838,61.698L115.835,66.189Z" style="fill:white;stroke:white;stroke-width:4.04px;"/>
        </g>
        <g transform="matrix(0.911632,0,0,0.911632,20.5955,21.7443)">
            <path d="M104.599,83.718L63.215,37.041L83.534,9.947L92.137,43.218L103.851,66.881L104.599,83.718Z" style="fill:white;"/>
        </g>
        <g transform="matrix(-0.155894,0.898203,0.898203,0.155894,90.2934,-202.509)">
            <g transform="matrix(1.06327,0.204819,-0.207239,1.07583,241.695,-62.9668)">
                <path d="M151.992,80.908C151.25,81.696 168.441,88.684 176.211,78.763C180.85,72.841 179.071,44.807 179.071,44.807C179.071,44.807 242.349,47.033 215.278,93.515C210.022,102.54 193.152,108.406 171.639,106.852C159.851,106 140.123,90.603 140.123,90.603C140.123,90.603 152.602,80.26 151.992,80.908Z" style="fill:none;stroke:white;stroke-width:4.06px;"/>
            </g>
            <g transform="matrix(1.07583,0.207239,-0.207239,1.07583,239.934,-63.3059)">
                <path d="M179.959,46.086C179.959,46.086 194.246,71.784 185.659,81.972C172.807,97.218 150.343,82.519 150.72,82.243C150.72,82.243 169.636,89.426 176.144,78.62C181.113,70.368 179.959,46.086 179.959,46.086Z" style="fill:white;stroke:white;stroke-width:4.04px;"/>
            </g>
        </g>
        <g transform="matrix(0.208531,0.976783,0.976783,-0.208531,-36.3279,28.4808)">
            <path d="M115.835,66.189C115.835,66.189 106.469,42.222 110.781,34.342C115.728,25.302 134.666,31.584 134.325,31.847C134.012,32.088 121.581,33.486 118.547,40.881C115.388,48.581 121.838,61.698 121.838,61.698L115.835,66.189Z" style="fill:white;stroke:white;stroke-width:4.04px;"/>
        </g>
        <g transform="matrix(0.911632,0,0,0.911632,22.2145,22.5568)">
            <g transform="matrix(0.261045,0.299171,-0.40076,0.347033,187.339,-211.771)">
                <path d="M311.069,350.71C311.069,350.71 312.955,433.659 393.642,461.28C405.887,465.471 420.218,478.144 425.549,483.404C427.787,485.612 427.867,490.631 425.626,492.837C420.499,497.88 406.772,509.393 394.787,513.667C317.454,541.241 313.707,627.039 313.707,627.039C313.707,627.039 327.491,646.042 436.019,645.977C543.371,645.912 565.585,628.188 565.585,628.188C565.585,628.188 566.503,544.329 482.728,513.719C466.957,507.957 456.883,497.755 451.581,492.812C449.312,490.696 449.666,485.81 451.743,483.505C456.234,478.521 467.764,466.22 478.529,462.91C559.904,437.891 564.555,348.653 564.555,348.653C564.555,348.653 548.186,332.699 440.266,333.956C326.503,335.281 311.069,350.71 311.069,350.71Z" style="fill:rgb(41,49,108);stroke:white;stroke-width:9.46px;"/>
            </g>
            <g transform="matrix(0.318641,0.36518,-0.44178,0.382553,184.038,-257.842)">
                <path d="M391.137,520.087C418.356,508.934 450.239,509.889 474.39,518.43C465.501,511.311 453.188,502.408 445.926,487.377C451.966,475.948 465.167,466.177 479.376,460.63C449.989,467.647 420.883,467.229 392.042,459.824C407.253,470.184 427.067,483.127 429.406,489.324L419.53,501.6L391.137,520.087Z" style="fill:white;"/>
            </g>
        </g>
    </g>
    <g id="Layer2">
    </g>
    <g transform="matrix(-1.03316,-1.26525e-16,1.26525e-16,-1.03316,1005.27,1005.78)">
        <g id="Layer1">
            <g>
                <g transform="matrix(1.0498,0,0,1.05208,-10.2415,-11.5741)">
                    <path d="M247.732,251.637C221.318,234.494 163.539,211.607 122.092,203.355C153.605,157.912 130.454,146.907 124.655,108.028L247.732,251.637Z" style="fill:white;"/>
                </g>
                <g transform="matrix(0.998795,0,0,0.998795,6.76465,0.216533)">
                    <path d="M104.421,75.479C104.421,75.479 98.162,63.482 96.171,57.054C93.793,49.372 90.151,29.391 90.151,29.391C90.151,29.391 78.758,49.019 70.921,55.616C63.084,62.214 43.128,68.979 43.128,68.979C43.128,68.979 59.98,73.838 66.975,77.411C73.598,80.794 85.1,90.418 85.1,90.418C112.387,109.054 116.593,101.543 104.421,75.479Z" style="fill:none;stroke:white;stroke-width:4.04px;"/>
                </g>
                <g transform="matrix(0.998795,0,0,0.998795,-0.998373,-0.337602)">
                    <path d="M217.764,111.992C217.764,111.992 216.95,164.968 222.771,188.954C228.535,212.708 252.687,255.904 252.687,255.904C252.687,255.904 210.978,232.417 188.712,223.876C166.077,215.193 117.255,203.384 116.877,203.806C116.483,204.246 135.963,177.856 136.222,162.721C136.522,145.208 118.677,98.729 118.677,98.729C118.677,98.729 161.828,121.986 178.343,124.197C191.977,126.022 217.764,111.992 217.764,111.992Z" style="fill:none;stroke:white;stroke-width:4.04px;"/>
                </g>
                <g transform="matrix(0.894901,-0.173852,0.173852,0.894901,-174.549,95.2578)">
                    <g transform="matrix(1.06327,0.204819,-0.207239,1.07583,241.695,-62.9668)">
                        <path d="M151.992,80.908C151.25,81.696 168.441,88.684 176.211,78.763C180.85,72.841 179.071,44.807 179.071,44.807C179.071,44.807 242.349,47.033 215.278,93.515C210.022,102.54 193.152,108.406 171.639,106.852C159.851,106 140.123,90.603 140.123,90.603C140.123,90.603 152.602,80.26 151.992,80.908Z" style="fill:none;stroke:white;stroke-width:4.06px;"/>
                    </g>
                    <g transform="matrix(1.07583,0.207239,-0.207239,1.07583,239.934,-63.3059)">
                        <path d="M179.959,46.086C179.959,46.086 194.246,71.784 185.659,81.972C172.807,97.218 150.343,82.519 150.72,82.243C150.72,82.243 169.636,89.426 176.144,78.62C181.113,70.368 179.959,46.086 179.959,46.086Z" style="fill:white;stroke:white;stroke-width:4.04px;"/>
                    </g>
                </g>
                <g transform="matrix(0.980764,0.188926,-0.188926,0.980764,53.8581,-35.9645)">
                    <path d="M115.835,66.189C115.835,66.189 106.469,42.222 110.781,34.342C115.728,25.302 134.666,31.584 134.325,31.847C134.012,32.088 121.581,33.486 118.547,40.881C115.388,48.581 121.838,61.698 121.838,61.698L115.835,66.189Z" style="fill:white;stroke:white;stroke-width:4.04px;"/>
                </g>
                <g transform="matrix(0.911632,0,0,0.911632,20.5955,21.7443)">
                    <path d="M104.599,83.718L63.215,37.041L83.534,9.947L92.137,43.218L103.851,66.881L104.599,83.718Z" style="fill:white;"/>
                </g>
                <g transform="matrix(-0.155894,0.898203,0.898203,0.155894,90.2934,-202.509)">
                    <g transform="matrix(1.06327,0.204819,-0.207239,1.07583,241.695,-62.9668)">
                        <path d="M151.992,80.908C151.25,81.696 168.441,88.684 176.211,78.763C180.85,72.841 179.071,44.807 179.071,44.807C179.071,44.807 242.349,47.033 215.278,93.515C210.022,102.54 193.152,108.406 171.639,106.852C159.851,106 140.123,90.603 140.123,90.603C140.123,90.603 152.602,80.26 151.992,80.908Z" style="fill:none;stroke:white;stroke-width:4.06px;"/>
                    </g>
                    <g transform="matrix(1.07583,0.207239,-0.207239,1.07583,239.934,-63.3059)">
                        <path d="M179.959,46.086C179.959,46.086 194.246,71.784 185.659,81.972C172.807,97.218 150.343,82.519 150.72,82.243C150.72,82.243 169.636,89.426 176.144,78.62C181.113,70.368 179.959,46.086 179.959,46.086Z" style="fill:white;stroke:white;stroke-width:4.04px;"/>
                    </g>
                </g>
                <g transform="matrix(0.208531,0.976783,0.976783,-0.208531,-36.3279,28.4808)">
                    <path d="M115.835,66.189C115.835,66.189 106.469,42.222 110.781,34.342C115.728,25.302 134.666,31.584 134.325,31.847C134.012,32.088 121.581,33.486 118.547,40.881C115.388,48.581 121.838,61.698 121.838,61.698L115.835,66.189Z" style="fill:white;stroke:white;stroke-width:4.04px;"/>
                </g>
                <g transform="matrix(0.911632,0,0,0.911632,22.2145,22.5568)">
                    <g transform="matrix(0.261045,0.299171,-0.40076,0.347033,187.339,-211.771)">
                        <path d="M311.069,350.71C311.069,350.71 312.955,433.659 393.642,461.28C405.887,465.471 420.218,478.144 425.549,483.404C427.787,485.612 427.867,490.631 425.626,492.837C420.499,497.88 406.772,509.393 394.787,513.667C317.454,541.241 313.707,627.039 313.707,627.039C313.707,627.039 327.491,646.042 436.019,645.977C543.371,645.912 565.585,628.188 565.585,628.188C565.585,628.188 566.503,544.329 482.728,513.719C466.957,507.957 456.883,497.755 451.581,492.812C449.312,490.696 449.666,485.81 451.743,483.505C456.234,478.521 467.764,466.22 478.529,462.91C559.904,437.891 564.555,348.653 564.555,348.653C564.555,348.653 548.186,332.699 440.266,333.956C326.503,335.281 311.069,350.71 311.069,350.71Z" style="fill:rgb(41,49,108);stroke:white;stroke-width:9.46px;"/>
                    </g>
                    <g transform="matrix(0.318641,0.36518,-0.44178,0.382553,184.038,-257.842)">
                        <path d="M391.137,520.087C418.356,508.934 450.239,509.889 474.39,518.43C465.501,511.311 453.188,502.408 445.926,487.377C451.966,475.948 465.167,466.177 479.376,460.63C449.989,467.647 420.883,467.229 392.042,459.824C407.253,470.184 427.067,483.127 429.406,489.324L419.53,501.6L391.137,520.087Z" style="fill:white;"/>
                    </g>
                </g>
            </g>
        </g>
    </g>
    <g transform="matrix(6.32627e-17,-1.03316,1.03316,6.32627e-17,-4.85599,1000.29)">
        <g transform="matrix(1.0498,0,0,1.05208,-10.2415,-11.5741)">
            <path d="M247.732,251.637C221.318,234.494 163.539,211.607 122.092,203.355C153.605,157.912 130.454,146.907 124.655,108.028L247.732,251.637Z" style="fill:white;"/>
        </g>
        <g transform="matrix(0.998795,0,0,0.998795,6.76465,0.216533)">
            <path d="M104.421,75.479C104.421,75.479 98.162,63.482 96.171,57.054C93.793,49.372 90.151,29.391 90.151,29.391C90.151,29.391 78.758,49.019 70.921,55.616C63.084,62.214 43.128,68.979 43.128,68.979C43.128,68.979 59.98,73.838 66.975,77.411C73.598,80.794 85.1,90.418 85.1,90.418C112.387,109.054 116.593,101.543 104.421,75.479Z" style="fill:none;stroke:white;stroke-width:4.04px;"/>
        </g>
        <g transform="matrix(0.998795,0,0,0.998795,-0.998373,-0.337602)">
            <path d="M217.764,111.992C217.764,111.992 216.95,164.968 222.771,188.954C228.535,212.708 252.687,255.904 252.687,255.904C252.687,255.904 210.978,232.417 188.712,223.876C166.077,215.193 117.255,203.384 116.877,203.806C116.483,204.246 135.963,177.856 136.222,162.721C136.522,145.208 118.677,98.729 118.677,98.729C118.677,98.729 161.828,121.986 178.343,124.197C191.977,126.022 217.764,111.992 217.764,111.992Z" style="fill:none;stroke:white;stroke-width:4.04px;"/>
        </g>
        <g transform="matrix(0.894901,-0.173852,0.173852,0.894901,-174.549,95.2578)">
            <g transform="matrix(1.06327,0.204819,-0.207239,1.07583,241.695,-62.9668)">
                <path d="M151.992,80.908C151.25,81.696 168.441,88.684 176.211,78.763C180.85,72.841 179.071,44.807 179.071,44.807C179.071,44.807 242.349,47.033 215.278,93.515C210.022,102.54 193.152,108.406 171.639,106.852C159.851,106 140.123,90.603 140.123,90.603C140.123,90.603 152.602,80.26 151.992,80.908Z" style="fill:none;stroke:white;stroke-width:4.06px;"/>
            </g>
            <g transform="matrix(1.07583,0.207239,-0.207239,1.07583,239.934,-63.3059)">
                <path d="M179.959,46.086C179.959,46.086 194.246,71.784 185.659,81.972C172.807,97.218 150.343,82.519 150.72,82.243C150.72,82.243 169.636,89.426 176.144,78.62C181.113,70.368 179.959,46.086 179.959,46.086Z" style="fill:white;stroke:white;stroke-width:4.04px;"/>
            </g>
        </g>
        <g transform="matrix(0.980764,0.188926,-0.188926,0.980764,53.8581,-35.9645)">
            <path d="M115.835,66.189C115.835,66.189 106.469,42.222 110.781,34.342C115.728,25.302 134.666,31.584 134.325,31.847C134.012,32.088 121.581,33.486 118.547,40.881C115.388,48.581 121.838,61.698 121.838,61.698L115.835,66.189Z" style="fill:white;stroke:white;stroke-width:4.04px;"/>
        </g>
        <g transform="matrix(0.911632,0,0,0.911632,20.5955,21.7443)">
            <path d="M104.599,83.718L63.215,37.041L83.534,9.947L92.137,43.218L103.851,66.881L104.599,83.718Z" style="fill:white;"/>
        </g>
        <g transform="matrix(-0.155894,0.898203,0.898203,0.155894,90.2934,-202.509)">
            <g transform="matrix(1.06327,0.204819,-0.207239,1.07583,241.695,-62.9668)">
                <path d="M151.992,80.908C151.25,81.696 168.441,88.684 176.211,78.763C180.85,72.841 179.071,44.807 179.071,44.807C179.071,44.807 242.349,47.033 215.278,93.515C210.022,102.54 193.152,108.406 171.639,106.852C159.851,106 140.123,90.603 140.123,90.603C140.123,90.603 152.602,80.26 151.992,80.908Z" style="fill:none;stroke:white;stroke-width:4.06px;"/>
            </g>
            <g transform="matrix(1.07583,0.207239,-0.207239,1.07583,239.934,-63.3059)">
                <path d="M179.959,46.086C179.959,46.086 194.246,71.784 185.659,81.972C172.807,97.218 150.343,82.519 150.72,82.243C150.72,82.243 169.636,89.426 176.144,78.62C181.113,70.368 179.959,46.086 179.959,46.086Z" style="fill:white;stroke:white;stroke-width:4.04px;"/>
            </g>
        </g>
        <g transform="matrix(0.208531,0.976783,0.976783,-0.208531,-36.3279,28.4808)">
            <path d="M115.835,66.189C115.835,66.189 106.469,42.222 110.781,34.342C115.728,25.302 134.666,31.584 134.325,31.847C134.012,32.088 121.581,33.486 118.547,40.881C115.388,48.581 121.838,61.698 121.838,61.698L115.835,66.189Z" style="fill:white;stroke:white;stroke-width:4.04px;"/>
        </g>
        <g transform="matrix(0.911632,0,0,0.911632,22.2145,22.5568)">
            <g transform="matrix(0.261045,0.299171,-0.40076,0.347033,187.339,-211.771)">
                <path d="M311.069,350.71C311.069,350.71 312.955,433.659 393.642,461.28C405.887,465.471 420.218,478.144 425.549,483.404C427.787,485.612 427.867,490.631 425.626,492.837C420.499,497.88 406.772,509.393 394.787,513.667C317.454,541.241 313.707,627.039 313.707,627.039C313.707,627.039 327.491,646.042 436.019,645.977C543.371,645.912 565.585,628.188 565.585,628.188C565.585,628.188 566.503,544.329 482.728,513.719C466.957,507.957 456.883,497.755 451.581,492.812C449.312,490.696 449.666,485.81 451.743,483.505C456.234,478.521 467.764,466.22 478.529,462.91C559.904,437.891 564.555,348.653 564.555,348.653C564.555,348.653 548.186,332.699 440.266,333.956C326.503,335.281 311.069,350.71 311.069,350.71Z" style="fill:rgb(41,49,108);stroke:white;stroke-width:9.46px;"/>
            </g>
            <g transform="matrix(0.318641,0.36518,-0.44178,0.382553,184.038,-257.842)">
                <path d="M391.137,520.087C418.356,508.934 450.239,509.889 474.39,518.43C465.501,511.311 453.188,502.408 445.926,487.377C451.966,475.948 465.167,466.177 479.376,460.63C449.989,467.647 420.883,467.229 392.042,459.824C407.253,470.184 427.067,483.127 429.406,489.324L419.53,501.6L391.137,520.087Z" style="fill:white;"/>
            </g>
        </g>
    </g>
    <g>
        <path d="M233.382,259.277L234.088,736.473" style="fill:none;stroke:white;stroke-width:13.53px;"/>
        <g transform="matrix(1,0,0,1,6.48294,2.94304)">
            <path d="M206.836,243.22L206.839,743.981" style="fill:none;stroke:white;stroke-width:4.4px;"/>
        </g>
    </g>
    <g transform="matrix(6.12323e-17,1,-1,6.12323e-17,995.996,3.29848)">
        <path d="M233.382,259.277L234.088,736.473" style="fill:none;stroke:white;stroke-width:13.53px;"/>
        <g transform="matrix(1,0,0,1,6.48294,2.94304)">
            <path d="M206.836,243.22L206.839,743.981" style="fill:none;stroke:white;stroke-width:4.4px;"/>
        </g>
    </g>
    <g transform="matrix(-1,1.22465e-16,-1.22465e-16,-1,999.852,994.854)">
        <path d="M233.382,259.277L234.088,736.473" style="fill:none;stroke:white;stroke-width:13.53px;"/>
        <g transform="matrix(1,0,0,1,6.48294,2.94304)">
            <path d="M206.836,243.22L206.839,743.981" style="fill:none;stroke:white;stroke-width:4.4px;"/>
        </g>
    </g>
    <g transform="matrix(6.12323e-17,-1,1,6.12323e-17,3.8311,997.993)">
        <path d="M233.382,259.277L234.088,736.473" style="fill:none;stroke:white;stroke-width:13.53px;"/>
        <g transform="matrix(1,0,0,1,6.48294,2.94304)">
            <path d="M206.836,243.22L206.839,743.981" style="fill:none;stroke:white;stroke-width:4.4px;"/>
        </g>
    </g>
</svg>
