<?xml version="1.0" encoding="UTF-8" standalone="no"?>
<!DOCTYPE svg PUBLIC "-//W3C//DTD SVG 1.1//EN" "http://www.w3.org/Graphics/SVG/1.1/DTD/svg11.dtd">
<svg width="100%" height="100%" viewBox="0 0 1000 1000" version="1.1" xmlns="http://www.w3.org/2000/svg" xmlns:xlink="http://www.w3.org/1999/xlink" xml:space="preserve" xmlns:serif="http://www.serif.com/" style="fill-rule:evenodd;clip-rule:evenodd;stroke-linecap:round;stroke-linejoin:round;stroke-miterlimit:1.5;">
    <g>
        <g transform="matrix(1,0,0,1,-0.456249,-1.63818)">
            <ellipse cx="500.456" cy="501.638" rx="266.615" ry="260.055" style="fill:none;stroke:rgb(41,49,109);stroke-width:12.5px;"/>
        </g>
        <g transform="matrix(1,0,0,1,6.45035,-5.05081)">
            <circle cx="493.55" cy="505.051" r="286.447" style="fill:none;stroke:rgb(41,49,109);stroke-width:4.17px;"/>
        </g>
    </g>
    <g transform="matrix(1.25961,0,0,1.25961,-0.323948,-1.00433)">
        <g transform="matrix(0.793896,0,0,0.793896,0.257181,0.797337)">
            <path d="M267.717,307.444L319.895,334.946L332.566,321.975L303.021,274.329L267.717,307.444Z" style="fill:white;stroke:white;stroke-width:4.17px;"/>
        </g>
        <g transform="matrix(0.999837,-0.0180453,0.0180453,0.999837,-4.60971,2.60656)">
            <g transform="matrix(1.0498,0,0,1.05208,25.1259,31.5062)">
                <path d="M225.072,224.586C198.657,205.188 185.093,188.761 132.99,202.893C145.425,150.235 143.711,146.826 115.866,102.165L225.072,224.586Z" style="fill:rgb(41,49,109);stroke:rgb(41,49,109);stroke-width:3.15px;"/>
            </g>
            <g transform="matrix(0.802168,0,0,0.748202,48.6868,63.7903)">
                <path d="M245.569,143.807C245.569,143.807 226.812,182.032 230.869,201.438C235.572,223.933 273.784,278.777 273.784,278.777C273.784,278.777 226.758,243.651 205.141,237.863C185.379,232.571 144.458,243.627 144.08,244.049C143.686,244.489 155.456,186.371 151.805,163.627C148.455,142.763 122.171,107.585 122.171,107.585C122.171,107.585 119.763,91.143 130.972,102.288C142.61,113.861 164.579,144.248 175.352,148.076C196.501,155.589 245.569,143.807 245.569,143.807Z" style="fill:none;stroke:rgb(41,49,109);stroke-width:4.26px;"/>
            </g>
        </g>
        <g transform="matrix(0.997932,-0.0642853,0.0642853,0.997932,-11.5939,7.41329)">
            <g transform="matrix(1.59064,0,0,1.59064,-27.5717,-17.7326)">
                <path d="M102.308,76.339C102.308,76.339 97.862,63.584 96.171,57.054C94.145,49.229 90.151,29.391 90.151,29.391C90.151,29.391 78.758,49.019 70.921,55.616C63.084,62.214 43.128,68.979 43.128,68.979C43.128,68.979 59.223,74.232 66.975,77.411C74.697,80.578 89.639,88.052 89.639,88.052C116.926,106.688 114.48,102.403 102.308,76.339Z" style="fill:none;stroke:rgb(41,49,109);stroke-width:2.08px;"/>
            </g>
            <g transform="matrix(1.45183,0,0,1.45183,-5.54521,16.5517)">
                <path d="M104.599,83.718L63.215,37.041L83.534,9.947L92.432,48.17L102.529,71.693L104.599,83.718Z" style="fill:rgb(41,49,109);stroke:rgb(41,49,109);stroke-width:2.28px;"/>
            </g>
        </g>
        <g transform="matrix(1.08394,0.275046,-0.384078,1.51363,-132,-79.2019)">
            <g transform="matrix(1.06327,0.204819,-0.207239,1.07583,241.695,-62.9668)">
                <path d="M151.992,80.908C151.25,81.696 168.441,88.684 176.211,78.763C180.85,72.841 179.071,44.807 179.071,44.807C179.071,44.807 242.349,47.033 215.278,93.515C210.022,102.54 193.152,108.406 171.639,106.852C159.851,106 140.123,90.603 140.123,90.603C140.123,90.603 152.602,80.26 151.992,80.908Z" style="fill:none;stroke:rgb(41,49,109);stroke-width:2.11px;"/>
            </g>
            <g transform="matrix(1.07583,0.207239,-0.207239,1.07583,239.934,-63.3059)">
                <path d="M179.959,46.086C179.959,46.086 194.246,71.784 185.659,81.972C172.807,97.218 150.343,82.519 150.72,82.243C150.72,82.243 169.636,89.426 176.144,78.62C181.113,70.368 179.959,46.086 179.959,46.086Z" style="fill:rgb(41,49,109);stroke:rgb(41,49,109);stroke-width:2.1px;"/>
            </g>
        </g>
        <g transform="matrix(0.0620055,1.11658,1.5592,-0.0865851,8.06194,-171.442)">
            <g transform="matrix(1.06327,0.204819,-0.207239,1.07583,241.695,-62.9668)">
                <path d="M151.992,80.908C151.25,81.696 168.441,88.684 176.211,78.763C180.85,72.841 179.071,44.807 179.071,44.807C179.071,44.807 242.349,47.033 215.278,93.515C210.022,102.54 193.152,108.406 171.639,106.852C159.851,106 140.123,90.603 140.123,90.603C140.123,90.603 152.602,80.26 151.992,80.908Z" style="fill:none;stroke:rgb(41,49,109);stroke-width:2.11px;"/>
            </g>
            <g transform="matrix(1.07583,0.207239,-0.207239,1.07583,239.934,-63.3059)">
                <path d="M179.959,46.086C179.959,46.086 194.246,71.784 185.659,81.972C172.807,97.218 150.343,82.519 150.72,82.243C150.72,82.243 169.636,89.426 176.144,78.62C181.113,70.368 179.959,46.086 179.959,46.086Z" style="fill:rgb(41,49,109);stroke:rgb(41,49,109);stroke-width:2.1px;"/>
            </g>
        </g>
        <g transform="matrix(1.19181,-0.80905,0.80905,1.19181,-37.077,80.7763)">
            <path d="M115.835,66.189C115.835,66.189 106.469,42.222 110.781,34.342C115.728,25.302 134.666,31.584 134.325,31.847C134.012,32.088 121.581,33.486 118.547,40.881C115.388,48.581 121.838,61.698 121.838,61.698L115.835,66.189Z" style="fill:rgb(41,49,109);stroke:rgb(41,49,109);stroke-width:2.3px;"/>
        </g>
        <g transform="matrix(-1.02068,1.01645,1.01645,1.02068,110.455,-27.5587)">
            <path d="M115.835,66.189C115.835,66.189 106.469,42.222 110.781,34.342C115.728,25.302 134.666,31.584 134.325,31.847C134.012,32.088 121.581,33.486 118.547,40.881C115.388,48.581 121.838,61.698 121.838,61.698L115.835,66.189Z" style="fill:rgb(41,49,109);stroke:rgb(41,49,109);stroke-width:2.3px;"/>
        </g>
        <g transform="matrix(1.5559,-0.110488,0.110488,1.5559,-28.368,14.437)">
            <g transform="matrix(0.261045,0.299171,-0.40076,0.347033,187.339,-211.771)">
                <path d="M311.069,350.71C311.069,350.71 312.955,433.659 393.642,461.28C405.887,465.471 420.218,478.144 425.549,483.404C427.787,485.612 427.867,490.631 425.626,492.837C420.499,497.88 406.772,509.393 394.787,513.667C317.454,541.241 313.707,627.039 313.707,627.039C313.707,627.039 327.491,646.042 436.019,645.977C543.371,645.912 565.585,628.188 565.585,628.188C565.585,628.188 566.503,544.329 482.728,513.719C466.957,507.957 456.883,497.755 451.581,492.812C449.312,490.696 449.666,485.81 451.743,483.505C456.234,478.521 467.764,466.22 478.529,462.91C559.904,437.891 564.555,348.653 564.555,348.653C564.555,348.653 548.186,332.699 440.266,333.956C326.503,335.281 311.069,350.71 311.069,350.71Z" style="fill:white;stroke:rgb(41,49,109);stroke-width:4.54px;"/>
            </g>
            <g transform="matrix(0.318641,0.36518,-0.44178,0.382553,184.038,-257.842)">
                <path d="M389.761,520.285C416.981,509.132 453.718,509.374 477.87,517.915C468.98,510.796 453.188,502.408 445.926,487.377C451.966,475.948 466.733,466.059 480.942,460.511C451.555,467.528 418.812,467.766 389.971,460.361C405.182,470.721 424.292,482.353 426.632,488.55L419.53,501.6L389.761,520.285Z" style="fill:rgb(41,49,109);"/>
            </g>
        </g>
    </g>
    <g transform="matrix(7.7129e-17,1.25961,-1.25961,7.7129e-17,1002.46,1.7443)">
        <g transform="matrix(0.793896,0,0,0.793896,0.257181,0.797337)">
            <path d="M267.717,307.444L319.895,334.946L332.566,321.975L303.021,274.329L267.717,307.444Z" style="fill:white;stroke:white;stroke-width:4.17px;"/>
        </g>
        <g transform="matrix(0.999837,-0.0180453,0.0180453,0.999837,-4.60971,2.60656)">
            <g transform="matrix(1.0498,0,0,1.05208,25.1259,31.5062)">
                <path d="M225.072,224.586C198.657,205.188 185.093,188.761 132.99,202.893C145.425,150.235 143.711,146.826 115.866,102.165L225.072,224.586Z" style="fill:rgb(41,49,109);stroke:rgb(41,49,109);stroke-width:3.15px;"/>
            </g>
            <g transform="matrix(0.802168,0,0,0.748202,48.6868,63.7903)">
                <path d="M245.569,143.807C245.569,143.807 226.812,182.032 230.869,201.438C235.572,223.933 273.784,278.777 273.784,278.777C273.784,278.777 226.758,243.651 205.141,237.863C185.379,232.571 144.458,243.627 144.08,244.049C143.686,244.489 155.456,186.371 151.805,163.627C148.455,142.763 122.171,107.585 122.171,107.585C122.171,107.585 119.763,91.143 130.972,102.288C142.61,113.861 164.579,144.248 175.352,148.076C196.501,155.589 245.569,143.807 245.569,143.807Z" style="fill:none;stroke:rgb(41,49,109);stroke-width:4.26px;"/>
            </g>
        </g>
        <g transform="matrix(0.997932,-0.0642853,0.0642853,0.997932,-11.5939,7.41329)">
            <g transform="matrix(1.59064,0,0,1.59064,-27.5717,-17.7326)">
                <path d="M102.308,76.339C102.308,76.339 97.862,63.584 96.171,57.054C94.145,49.229 90.151,29.391 90.151,29.391C90.151,29.391 78.758,49.019 70.921,55.616C63.084,62.214 43.128,68.979 43.128,68.979C43.128,68.979 59.223,74.232 66.975,77.411C74.697,80.578 89.639,88.052 89.639,88.052C116.926,106.688 114.48,102.403 102.308,76.339Z" style="fill:none;stroke:rgb(41,49,109);stroke-width:2.08px;"/>
            </g>
            <g transform="matrix(1.45183,0,0,1.45183,-5.54521,16.5517)">
                <path d="M104.599,83.718L63.215,37.041L83.534,9.947L92.432,48.17L102.529,71.693L104.599,83.718Z" style="fill:rgb(41,49,109);stroke:rgb(41,49,109);stroke-width:2.28px;"/>
            </g>
        </g>
        <g transform="matrix(1.08394,0.275046,-0.384078,1.51363,-132,-79.2019)">
            <g transform="matrix(1.06327,0.204819,-0.207239,1.07583,241.695,-62.9668)">
                <path d="M151.992,80.908C151.25,81.696 168.441,88.684 176.211,78.763C180.85,72.841 179.071,44.807 179.071,44.807C179.071,44.807 242.349,47.033 215.278,93.515C210.022,102.54 193.152,108.406 171.639,106.852C159.851,106 140.123,90.603 140.123,90.603C140.123,90.603 152.602,80.26 151.992,80.908Z" style="fill:none;stroke:rgb(41,49,109);stroke-width:2.11px;"/>
            </g>
            <g transform="matrix(1.07583,0.207239,-0.207239,1.07583,239.934,-63.3059)">
                <path d="M179.959,46.086C179.959,46.086 194.246,71.784 185.659,81.972C172.807,97.218 150.343,82.519 150.72,82.243C150.72,82.243 169.636,89.426 176.144,78.62C181.113,70.368 179.959,46.086 179.959,46.086Z" style="fill:rgb(41,49,109);stroke:rgb(41,49,109);stroke-width:2.1px;"/>
            </g>
        </g>
        <g transform="matrix(0.0620055,1.11658,1.5592,-0.0865851,8.06194,-171.442)">
            <g transform="matrix(1.06327,0.204819,-0.207239,1.07583,241.695,-62.9668)">
                <path d="M151.992,80.908C151.25,81.696 168.441,88.684 176.211,78.763C180.85,72.841 179.071,44.807 179.071,44.807C179.071,44.807 242.349,47.033 215.278,93.515C210.022,102.54 193.152,108.406 171.639,106.852C159.851,106 140.123,90.603 140.123,90.603C140.123,90.603 152.602,80.26 151.992,80.908Z" style="fill:none;stroke:rgb(41,49,109);stroke-width:2.11px;"/>
            </g>
            <g transform="matrix(1.07583,0.207239,-0.207239,1.07583,239.934,-63.3059)">
                <path d="M179.959,46.086C179.959,46.086 194.246,71.784 185.659,81.972C172.807,97.218 150.343,82.519 150.72,82.243C150.72,82.243 169.636,89.426 176.144,78.62C181.113,70.368 179.959,46.086 179.959,46.086Z" style="fill:rgb(41,49,109);stroke:rgb(41,49,109);stroke-width:2.1px;"/>
            </g>
        </g>
        <g transform="matrix(1.19181,-0.80905,0.80905,1.19181,-37.077,80.7763)">
            <path d="M115.835,66.189C115.835,66.189 106.469,42.222 110.781,34.342C115.728,25.302 134.666,31.584 134.325,31.847C134.012,32.088 121.581,33.486 118.547,40.881C115.388,48.581 121.838,61.698 121.838,61.698L115.835,66.189Z" style="fill:rgb(41,49,109);stroke:rgb(41,49,109);stroke-width:2.3px;"/>
        </g>
        <g transform="matrix(-1.02068,1.01645,1.01645,1.02068,110.455,-27.5587)">
            <path d="M115.835,66.189C115.835,66.189 106.469,42.222 110.781,34.342C115.728,25.302 134.666,31.584 134.325,31.847C134.012,32.088 121.581,33.486 118.547,40.881C115.388,48.581 121.838,61.698 121.838,61.698L115.835,66.189Z" style="fill:rgb(41,49,109);stroke:rgb(41,49,109);stroke-width:2.3px;"/>
        </g>
        <g transform="matrix(1.5559,-0.110488,0.110488,1.5559,-28.368,14.437)">
            <g transform="matrix(0.261045,0.299171,-0.40076,0.347033,187.339,-211.771)">
                <path d="M311.069,350.71C311.069,350.71 312.955,433.659 393.642,461.28C405.887,465.471 420.218,478.144 425.549,483.404C427.787,485.612 427.867,490.631 425.626,492.837C420.499,497.88 406.772,509.393 394.787,513.667C317.454,541.241 313.707,627.039 313.707,627.039C313.707,627.039 327.491,646.042 436.019,645.977C543.371,645.912 565.585,628.188 565.585,628.188C565.585,628.188 566.503,544.329 482.728,513.719C466.957,507.957 456.883,497.755 451.581,492.812C449.312,490.696 449.666,485.81 451.743,483.505C456.234,478.521 467.764,466.22 478.529,462.91C559.904,437.891 564.555,348.653 564.555,348.653C564.555,348.653 548.186,332.699 440.266,333.956C326.503,335.281 311.069,350.71 311.069,350.71Z" style="fill:white;stroke:rgb(41,49,109);stroke-width:4.54px;"/>
            </g>
            <g transform="matrix(0.318641,0.36518,-0.44178,0.382553,184.038,-257.842)">
                <path d="M389.761,520.285C416.981,509.132 453.718,509.374 477.87,517.915C468.98,510.796 453.188,502.408 445.926,487.377C451.966,475.948 466.733,466.059 480.942,460.511C451.555,467.528 418.812,467.766 389.971,460.361C405.182,470.721 424.292,482.353 426.632,488.55L419.53,501.6L389.761,520.285Z" style="fill:rgb(41,49,109);"/>
            </g>
        </g>
    </g>
    <g transform="matrix(-1.25961,1.54258e-16,-1.54258e-16,-1.25961,997.855,1003.23)">
        <g transform="matrix(0.793896,0,0,0.793896,0.257181,0.797337)">
            <path d="M267.717,307.444L319.895,334.946L332.566,321.975L303.021,274.329L267.717,307.444Z" style="fill:white;stroke:white;stroke-width:4.17px;"/>
        </g>
        <g transform="matrix(0.999837,-0.0180453,0.0180453,0.999837,-4.60971,2.60656)">
            <g transform="matrix(1.0498,0,0,1.05208,25.1259,31.5062)">
                <path d="M225.072,224.586C198.657,205.188 185.093,188.761 132.99,202.893C145.425,150.235 143.711,146.826 115.866,102.165L225.072,224.586Z" style="fill:rgb(41,49,109);stroke:rgb(41,49,109);stroke-width:3.15px;"/>
            </g>
            <g transform="matrix(0.802168,0,0,0.748202,48.6868,63.7903)">
                <path d="M245.569,143.807C245.569,143.807 226.812,182.032 230.869,201.438C235.572,223.933 273.784,278.777 273.784,278.777C273.784,278.777 226.758,243.651 205.141,237.863C185.379,232.571 144.458,243.627 144.08,244.049C143.686,244.489 155.456,186.371 151.805,163.627C148.455,142.763 122.171,107.585 122.171,107.585C122.171,107.585 119.763,91.143 130.972,102.288C142.61,113.861 164.579,144.248 175.352,148.076C196.501,155.589 245.569,143.807 245.569,143.807Z" style="fill:none;stroke:rgb(41,49,109);stroke-width:4.26px;"/>
            </g>
        </g>
        <g transform="matrix(0.997932,-0.0642853,0.0642853,0.997932,-11.5939,7.41329)">
            <g transform="matrix(1.59064,0,0,1.59064,-27.5717,-17.7326)">
                <path d="M102.308,76.339C102.308,76.339 97.862,63.584 96.171,57.054C94.145,49.229 90.151,29.391 90.151,29.391C90.151,29.391 78.758,49.019 70.921,55.616C63.084,62.214 43.128,68.979 43.128,68.979C43.128,68.979 59.223,74.232 66.975,77.411C74.697,80.578 89.639,88.052 89.639,88.052C116.926,106.688 114.48,102.403 102.308,76.339Z" style="fill:none;stroke:rgb(41,49,109);stroke-width:2.08px;"/>
            </g>
            <g transform="matrix(1.45183,0,0,1.45183,-5.54521,16.5517)">
                <path d="M104.599,83.718L63.215,37.041L83.534,9.947L92.432,48.17L102.529,71.693L104.599,83.718Z" style="fill:rgb(41,49,109);stroke:rgb(41,49,109);stroke-width:2.28px;"/>
            </g>
        </g>
        <g transform="matrix(1.08394,0.275046,-0.384078,1.51363,-132,-79.2019)">
            <g transform="matrix(1.06327,0.204819,-0.207239,1.07583,241.695,-62.9668)">
                <path d="M151.992,80.908C151.25,81.696 168.441,88.684 176.211,78.763C180.85,72.841 179.071,44.807 179.071,44.807C179.071,44.807 242.349,47.033 215.278,93.515C210.022,102.54 193.152,108.406 171.639,106.852C159.851,106 140.123,90.603 140.123,90.603C140.123,90.603 152.602,80.26 151.992,80.908Z" style="fill:none;stroke:rgb(41,49,109);stroke-width:2.11px;"/>
            </g>
            <g transform="matrix(1.07583,0.207239,-0.207239,1.07583,239.934,-63.3059)">
                <path d="M179.959,46.086C179.959,46.086 194.246,71.784 185.659,81.972C172.807,97.218 150.343,82.519 150.72,82.243C150.72,82.243 169.636,89.426 176.144,78.62C181.113,70.368 179.959,46.086 179.959,46.086Z" style="fill:rgb(41,49,109);stroke:rgb(41,49,109);stroke-width:2.1px;"/>
            </g>
        </g>
        <g transform="matrix(0.0620055,1.11658,1.5592,-0.0865851,8.06194,-171.442)">
            <g transform="matrix(1.06327,0.204819,-0.207239,1.07583,241.695,-62.9668)">
                <path d="M151.992,80.908C151.25,81.696 168.441,88.684 176.211,78.763C180.85,72.841 179.071,44.807 179.071,44.807C179.071,44.807 242.349,47.033 215.278,93.515C210.022,102.54 193.152,108.406 171.639,106.852C159.851,106 140.123,90.603 140.123,90.603C140.123,90.603 152.602,80.26 151.992,80.908Z" style="fill:none;stroke:rgb(41,49,109);stroke-width:2.11px;"/>
            </g>
            <g transform="matrix(1.07583,0.207239,-0.207239,1.07583,239.934,-63.3059)">
                <path d="M179.959,46.086C179.959,46.086 194.246,71.784 185.659,81.972C172.807,97.218 150.343,82.519 150.72,82.243C150.72,82.243 169.636,89.426 176.144,78.62C181.113,70.368 179.959,46.086 179.959,46.086Z" style="fill:rgb(41,49,109);stroke:rgb(41,49,109);stroke-width:2.1px;"/>
            </g>
        </g>
        <g transform="matrix(1.19181,-0.80905,0.80905,1.19181,-37.077,80.7763)">
            <path d="M115.835,66.189C115.835,66.189 106.469,42.222 110.781,34.342C115.728,25.302 134.666,31.584 134.325,31.847C134.012,32.088 121.581,33.486 118.547,40.881C115.388,48.581 121.838,61.698 121.838,61.698L115.835,66.189Z" style="fill:rgb(41,49,109);stroke:rgb(41,49,109);stroke-width:2.3px;"/>
        </g>
        <g transform="matrix(-1.02068,1.01645,1.01645,1.02068,110.455,-27.5587)">
            <path d="M115.835,66.189C115.835,66.189 106.469,42.222 110.781,34.342C115.728,25.302 134.666,31.584 134.325,31.847C134.012,32.088 121.581,33.486 118.547,40.881C115.388,48.581 121.838,61.698 121.838,61.698L115.835,66.189Z" style="fill:rgb(41,49,109);stroke:rgb(41,49,109);stroke-width:2.3px;"/>
        </g>
        <g transform="matrix(1.5559,-0.110488,0.110488,1.5559,-28.368,14.437)">
            <g transform="matrix(0.261045,0.299171,-0.40076,0.347033,187.339,-211.771)">
                <path d="M311.069,350.71C311.069,350.71 312.955,433.659 393.642,461.28C405.887,465.471 420.218,478.144 425.549,483.404C427.787,485.612 427.867,490.631 425.626,492.837C420.499,497.88 406.772,509.393 394.787,513.667C317.454,541.241 313.707,627.039 313.707,627.039C313.707,627.039 327.491,646.042 436.019,645.977C543.371,645.912 565.585,628.188 565.585,628.188C565.585,628.188 566.503,544.329 482.728,513.719C466.957,507.957 456.883,497.755 451.581,492.812C449.312,490.696 449.666,485.81 451.743,483.505C456.234,478.521 467.764,466.22 478.529,462.91C559.904,437.891 564.555,348.653 564.555,348.653C564.555,348.653 548.186,332.699 440.266,333.956C326.503,335.281 311.069,350.71 311.069,350.71Z" style="fill:white;stroke:rgb(41,49,109);stroke-width:4.54px;"/>
            </g>
            <g transform="matrix(0.318641,0.36518,-0.44178,0.382553,184.038,-257.842)">
                <path d="M389.761,520.285C416.981,509.132 453.718,509.374 477.87,517.915C468.98,510.796 453.188,502.408 445.926,487.377C451.966,475.948 466.733,466.059 480.942,460.511C451.555,467.528 418.812,467.766 389.971,460.361C405.182,470.721 424.292,482.353 426.632,488.55L419.53,501.6L389.761,520.285Z" style="fill:rgb(41,49,109);"/>
            </g>
        </g>
    </g>
    <g transform="matrix(7.7129e-17,-1.25961,1.25961,7.7129e-17,0.332628,998.326)">
        <g transform="matrix(0.793896,0,0,0.793896,0.257181,0.797337)">
            <path d="M267.717,307.444L319.895,334.946L332.566,321.975L303.021,274.329L267.717,307.444Z" style="fill:white;stroke:white;stroke-width:4.17px;"/>
        </g>
        <g transform="matrix(0.999837,-0.0180453,0.0180453,0.999837,-4.60971,2.60656)">
            <g transform="matrix(1.0498,0,0,1.05208,25.1259,31.5062)">
                <path d="M225.072,224.586C198.657,205.188 185.093,188.761 132.99,202.893C145.425,150.235 143.711,146.826 115.866,102.165L225.072,224.586Z" style="fill:rgb(41,49,109);stroke:rgb(41,49,109);stroke-width:3.15px;"/>
            </g>
            <g transform="matrix(0.802168,0,0,0.748202,48.6868,63.7903)">
                <path d="M245.569,143.807C245.569,143.807 226.812,182.032 230.869,201.438C235.572,223.933 273.784,278.777 273.784,278.777C273.784,278.777 226.758,243.651 205.141,237.863C185.379,232.571 144.458,243.627 144.08,244.049C143.686,244.489 155.456,186.371 151.805,163.627C148.455,142.763 122.171,107.585 122.171,107.585C122.171,107.585 119.763,91.143 130.972,102.288C142.61,113.861 164.579,144.248 175.352,148.076C196.501,155.589 245.569,143.807 245.569,143.807Z" style="fill:none;stroke:rgb(41,49,109);stroke-width:4.26px;"/>
            </g>
        </g>
        <g transform="matrix(0.997932,-0.0642853,0.0642853,0.997932,-11.5939,7.41329)">
            <g transform="matrix(1.59064,0,0,1.59064,-27.5717,-17.7326)">
                <path d="M102.308,76.339C102.308,76.339 97.862,63.584 96.171,57.054C94.145,49.229 90.151,29.391 90.151,29.391C90.151,29.391 78.758,49.019 70.921,55.616C63.084,62.214 43.128,68.979 43.128,68.979C43.128,68.979 59.223,74.232 66.975,77.411C74.697,80.578 89.639,88.052 89.639,88.052C116.926,106.688 114.48,102.403 102.308,76.339Z" style="fill:none;stroke:rgb(41,49,109);stroke-width:2.08px;"/>
            </g>
            <g transform="matrix(1.45183,0,0,1.45183,-5.54521,16.5517)">
                <path d="M104.599,83.718L63.215,37.041L83.534,9.947L92.432,48.17L102.529,71.693L104.599,83.718Z" style="fill:rgb(41,49,109);stroke:rgb(41,49,109);stroke-width:2.28px;"/>
            </g>
        </g>
        <g transform="matrix(1.08394,0.275046,-0.384078,1.51363,-132,-79.2019)">
            <g transform="matrix(1.06327,0.204819,-0.207239,1.07583,241.695,-62.9668)">
                <path d="M151.992,80.908C151.25,81.696 168.441,88.684 176.211,78.763C180.85,72.841 179.071,44.807 179.071,44.807C179.071,44.807 242.349,47.033 215.278,93.515C210.022,102.54 193.152,108.406 171.639,106.852C159.851,106 140.123,90.603 140.123,90.603C140.123,90.603 152.602,80.26 151.992,80.908Z" style="fill:none;stroke:rgb(41,49,109);stroke-width:2.11px;"/>
            </g>
            <g transform="matrix(1.07583,0.207239,-0.207239,1.07583,239.934,-63.3059)">
                <path d="M179.959,46.086C179.959,46.086 194.246,71.784 185.659,81.972C172.807,97.218 150.343,82.519 150.72,82.243C150.72,82.243 169.636,89.426 176.144,78.62C181.113,70.368 179.959,46.086 179.959,46.086Z" style="fill:rgb(41,49,109);stroke:rgb(41,49,109);stroke-width:2.1px;"/>
            </g>
        </g>
        <g transform="matrix(0.0620055,1.11658,1.5592,-0.0865851,8.06194,-171.442)">
            <g transform="matrix(1.06327,0.204819,-0.207239,1.07583,241.695,-62.9668)">
                <path d="M151.992,80.908C151.25,81.696 168.441,88.684 176.211,78.763C180.85,72.841 179.071,44.807 179.071,44.807C179.071,44.807 242.349,47.033 215.278,93.515C210.022,102.54 193.152,108.406 171.639,106.852C159.851,106 140.123,90.603 140.123,90.603C140.123,90.603 152.602,80.26 151.992,80.908Z" style="fill:none;stroke:rgb(41,49,109);stroke-width:2.11px;"/>
            </g>
            <g transform="matrix(1.07583,0.207239,-0.207239,1.07583,239.934,-63.3059)">
                <path d="M179.959,46.086C179.959,46.086 194.246,71.784 185.659,81.972C172.807,97.218 150.343,82.519 150.72,82.243C150.72,82.243 169.636,89.426 176.144,78.62C181.113,70.368 179.959,46.086 179.959,46.086Z" style="fill:rgb(41,49,109);stroke:rgb(41,49,109);stroke-width:2.1px;"/>
            </g>
        </g>
        <g transform="matrix(1.19181,-0.80905,0.80905,1.19181,-37.077,80.7763)">
            <path d="M115.835,66.189C115.835,66.189 106.469,42.222 110.781,34.342C115.728,25.302 134.666,31.584 134.325,31.847C134.012,32.088 121.581,33.486 118.547,40.881C115.388,48.581 121.838,61.698 121.838,61.698L115.835,66.189Z" style="fill:rgb(41,49,109);stroke:rgb(41,49,109);stroke-width:2.3px;"/>
        </g>
        <g transform="matrix(-1.02068,1.01645,1.01645,1.02068,110.455,-27.5587)">
            <path d="M115.835,66.189C115.835,66.189 106.469,42.222 110.781,34.342C115.728,25.302 134.666,31.584 134.325,31.847C134.012,32.088 121.581,33.486 118.547,40.881C115.388,48.581 121.838,61.698 121.838,61.698L115.835,66.189Z" style="fill:rgb(41,49,109);stroke:rgb(41,49,109);stroke-width:2.3px;"/>
        </g>
        <g transform="matrix(1.5559,-0.110488,0.110488,1.5559,-28.368,14.437)">
            <g transform="matrix(0.261045,0.299171,-0.40076,0.347033,187.339,-211.771)">
                <path d="M311.069,350.71C311.069,350.71 312.955,433.659 393.642,461.28C405.887,465.471 420.218,478.144 425.549,483.404C427.787,485.612 427.867,490.631 425.626,492.837C420.499,497.88 406.772,509.393 394.787,513.667C317.454,541.241 313.707,627.039 313.707,627.039C313.707,627.039 327.491,646.042 436.019,645.977C543.371,645.912 565.585,628.188 565.585,628.188C565.585,628.188 566.503,544.329 482.728,513.719C466.957,507.957 456.883,497.755 451.581,492.812C449.312,490.696 449.666,485.81 451.743,483.505C456.234,478.521 467.764,466.22 478.529,462.91C559.904,437.891 564.555,348.653 564.555,348.653C564.555,348.653 548.186,332.699 440.266,333.956C326.503,335.281 311.069,350.71 311.069,350.71Z" style="fill:white;stroke:rgb(41,49,109);stroke-width:4.54px;"/>
            </g>
            <g transform="matrix(0.318641,0.36518,-0.44178,0.382553,184.038,-257.842)">
                <path d="M389.761,520.285C416.981,509.132 453.718,509.374 477.87,517.915C468.98,510.796 453.188,502.408 445.926,487.377C451.966,475.948 466.733,466.059 480.942,460.511C451.555,467.528 418.812,467.766 389.971,460.361C405.182,470.721 424.292,482.353 426.632,488.55L419.53,501.6L389.761,520.285Z" style="fill:rgb(41,49,109);"/>
            </g>
        </g>
    </g>
</svg>
