<?xml version="1.0" encoding="UTF-8" standalone="no"?>
<!DOCTYPE svg PUBLIC "-//W3C//DTD SVG 1.1//EN" "http://www.w3.org/Graphics/SVG/1.1/DTD/svg11.dtd">
<svg width="100%" height="100%" viewBox="0 0 1000 1000" version="1.1" xmlns="http://www.w3.org/2000/svg" xmlns:xlink="http://www.w3.org/1999/xlink" xml:space="preserve" xmlns:serif="http://www.serif.com/" style="fill-rule:evenodd;clip-rule:evenodd;stroke-linecap:round;stroke-linejoin:round;stroke-miterlimit:1.5;">
    <g id="Layer1">
        <rect x="-70.947" y="-64.665" width="1147.06" height="1138.13" style="fill:rgb(235,235,235);"/>
    </g>
    <g transform="matrix(1.30655,0,0,1.30655,-126.174,-141.477)">
        <path d="M840.727,348.584L840.727,638.517C840.727,758.53 743.291,855.966 623.277,855.966L333.345,855.966C213.331,855.966 115.896,758.53 115.896,638.517L115.896,348.584C115.896,228.571 213.331,131.135 333.345,131.135L623.277,131.135C743.291,131.135 840.727,228.571 840.727,348.584Z" style="fill:none;stroke:rgb(41,49,108);stroke-width:6.38px;"/>
    </g>
    <g transform="matrix(1.33993,0,0,1.33993,-142.141,-157.953)">
        <path d="M840.727,348.584L840.727,638.517C840.727,758.53 743.291,855.966 623.277,855.966L333.345,855.966C213.331,855.966 115.896,758.53 115.896,638.517L115.896,348.584C115.896,228.571 213.331,131.135 333.345,131.135L623.277,131.135C743.291,131.135 840.727,228.571 840.727,348.584Z" style="fill:none;stroke:rgb(41,49,108);stroke-width:3.11px;"/>
    </g>
    <g transform="matrix(1.15228,1.15228,-1.15228,1.15228,541.24,-325.765)">
        <path d="M321.987,651.155L447.967,518.851C447.967,518.851 519.016,419.137 539.358,398.48C552.232,385.406 621.549,341.498 621.637,341.48C631.168,339.456 647.336,358.565 647.774,366.636C647.79,366.941 607.564,430.676 589.593,449.899C577.454,462.883 465.981,540.153 465.981,540.153L332.65,664.119C332.65,664.119 336.195,668.978 328.33,676.145C321.998,681.915 321.922,681.239 312.861,672.293C304.168,663.71 301.92,660.921 309.953,653.656C315.122,648.981 321.987,651.155 321.987,651.155Z" style="fill:none;stroke:white;stroke-width:4.33px;"/>
        <path d="M321.987,651.155L447.967,518.851C447.967,518.851 519.016,419.137 539.358,398.48C552.232,385.406 621.549,341.498 621.637,341.48C631.168,339.456 647.336,358.565 647.774,366.636C647.79,366.941 607.564,430.676 589.593,449.899C577.454,462.883 465.981,540.153 465.981,540.153L332.65,664.119C332.65,664.119 336.195,668.978 328.33,676.145C321.998,681.915 321.922,681.239 312.861,672.293C304.168,663.71 301.92,660.921 309.953,653.656C315.122,648.981 321.987,651.155 321.987,651.155Z" style="fill:rgb(41,49,108);"/>
    </g>
    <g transform="matrix(-1.22633,-1.07313,0.974248,-1.11333,584.622,1266.8)">
        <path d="M321.987,651.155L447.967,518.851C447.967,518.851 519.016,419.137 539.358,398.48C552.232,385.406 621.549,341.498 621.637,341.48C631.168,339.456 647.336,358.565 647.774,366.636C647.79,366.941 607.564,430.676 589.593,449.899C577.454,462.883 465.981,540.153 465.981,540.153L332.65,664.119C332.65,664.119 336.195,668.978 328.33,676.145C321.998,681.915 321.922,681.239 312.861,672.293C304.168,663.71 301.92,660.921 309.953,653.656C315.122,648.981 321.987,651.155 321.987,651.155Z" style="fill:none;stroke:white;stroke-width:4.53px;"/>
        <path d="M321.987,651.155L447.967,518.851C447.967,518.851 519.016,419.137 539.358,398.48C552.232,385.406 621.549,341.498 621.637,341.48C631.168,339.456 647.336,358.565 647.774,366.636C647.79,366.941 607.564,430.676 589.593,449.899C577.454,462.883 465.981,540.153 465.981,540.153L332.65,664.119C332.65,664.119 336.195,668.978 328.33,676.145C321.998,681.915 321.922,681.239 312.861,672.293C304.168,663.71 301.92,660.921 309.953,653.656C315.122,648.981 321.987,651.155 321.987,651.155Z" style="fill:rgb(41,49,108);"/>
    </g>
    <g transform="matrix(1.24258,0,0,1.24258,-232.382,220.515)">
        <g transform="matrix(372.911,0,0,372.911,858.086,314.608)">
        </g>
        <text x="211.458px" y="314.608px" style="font-family:'PhoenixScriptFLF';font-weight:500;font-size:372.911px;fill:rgb(41,49,108);">NJF</text>
    </g>
</svg>
