<?xml version="1.0" encoding="UTF-8" standalone="no"?>
<!DOCTYPE svg PUBLIC "-//W3C//DTD SVG 1.1//EN" "http://www.w3.org/Graphics/SVG/1.1/DTD/svg11.dtd">
<svg width="100%" height="100%" viewBox="0 0 1500 1000" version="1.1" xmlns="http://www.w3.org/2000/svg" xmlns:xlink="http://www.w3.org/1999/xlink" xml:space="preserve" xmlns:serif="http://www.serif.com/" style="fill-rule:evenodd;clip-rule:evenodd;stroke-linejoin:round;stroke-miterlimit:2;">
    <g transform="matrix(5.47692,0,0,5.47692,4,305.027)">
        <path d="M112.765,48.606C67.312,40.221 45.598,44.276 6.629,53.982L0,13.594C39.27,3.815 64.628,-1.445 117.141,8.245L112.765,48.606Z" style="fill:rgb(218,33,40);fill-rule:nonzero;"/>
        <path d="M246.351,21.753C247.807,18.406 258.59,3.617 265.687,0.428C235.843,0.027 214.044,8.378 192.9,16.06C169.894,24.42 147.402,32.407 117.465,29.478L117.464,29.489L115.361,48.887L115.251,49.893L114.494,50.562L92.712,67.234C108.104,70.573 124.534,71.4 136.369,70.838C160.579,69.684 186.561,61.705 206.193,54.57C225.702,47.484 249.677,40.895 272.468,41.205C265.65,29.674 253.561,24.811 246.351,21.753Z" style="fill:rgb(218,33,40);fill-rule:nonzero;"/>
        <path d="M29.403,34.898C29.82,37.072 29.701,38.943 29.048,40.513C28.313,42.296 26.953,43.378 24.969,43.758C22.653,44.204 20.856,43.519 19.578,41.708C18.701,40.457 17.992,38.424 17.453,35.613L14.826,21.936C14.586,20.683 14.687,19.366 15.132,17.982C15.804,15.87 17.191,14.612 19.294,14.207C21.538,13.776 23.308,14.318 24.602,15.833C25.631,16.982 26.492,19.426 27.186,23.162L22.537,24.019C22.288,22.72 22.084,21.656 21.924,20.83C21.546,19.628 20.907,19.164 20.003,19.435C19.206,19.491 19.211,21.621 20.019,25.825L21.951,35.889C22.078,36.55 22.292,37.157 22.595,37.711C23.014,38.489 23.483,38.827 24.002,38.727C24.924,38.55 25.146,37.222 24.67,34.741C24.616,34.458 24.478,33.676 24.256,32.396C26.028,32.056 27.53,31.78 28.764,31.566C28.981,32.578 29.194,33.689 29.403,34.898Z" style="fill:white;fill-rule:nonzero;"/>
        <path d="M37.939,40.379L32.894,41.043C31.651,33.01 30.227,24.079 28.624,14.25C28.585,14.013 30.247,13.746 33.611,13.448C34.721,20.36 36.164,29.336 37.939,40.379Z" style="fill:white;fill-rule:nonzero;"/>
        <path d="M44.73,17.489C44.539,15.913 43.923,15.224 42.881,15.423C42.645,15.476 42.467,15.51 42.348,15.524C42.133,15.549 42.05,15.767 42.099,16.171L42.86,22.476C42.942,23.145 43.15,23.471 43.488,23.455C43.609,23.464 43.753,23.447 43.918,23.403C44.442,23.339 44.769,23.034 44.897,22.485C45.092,21.686 45.036,20.021 44.73,17.489ZM52.247,38.497L47.491,39.144L44.106,28.577C43.933,28.55 43.79,28.567 43.677,28.629C43.518,28.72 43.467,28.993 43.521,29.447C43.975,33.196 44.36,36.494 44.679,39.338L40.167,39.884L36.712,11.589L42.841,10.886C44.322,10.707 45.613,10.866 46.716,11.362C47.921,11.919 48.593,12.77 48.732,13.917L49.549,20.978C49.69,22.148 49.465,23.193 48.873,24.112C48.467,24.767 47.98,25.238 47.409,25.524C47.225,25.62 47.139,25.703 47.147,25.774C47.154,25.822 48.853,30.063 52.247,38.497Z" style="fill:white;fill-rule:nonzero;"/>
        <path d="M64.946,30.798C65.088,33.007 64.737,34.85 63.892,36.326C62.939,38.002 61.455,38.907 59.439,39.036C57.086,39.187 55.389,38.284 54.346,36.326C53.633,34.974 53.185,32.871 53,30.013L52.104,16.115C52.022,14.843 52.288,13.548 52.903,12.232C53.833,10.219 55.366,9.143 57.503,9.006C59.784,8.859 61.471,9.618 62.567,11.283C63.444,12.552 63.993,15.084 64.214,18.878L59.495,19.145C59.41,17.826 59.34,16.746 59.286,15.906C59.062,14.667 58.483,14.125 57.554,14.281C56.756,14.237 56.494,16.35 56.769,20.623L57.428,30.849C57.472,31.521 57.609,32.152 57.84,32.739C58.158,33.562 58.58,33.956 59.109,33.923C60.045,33.862 60.432,32.571 60.27,30.05C60.251,29.763 60.212,28.97 60.152,27.672C61.953,27.557 63.478,27.47 64.727,27.414C64.818,28.444 64.891,29.573 64.946,30.798Z" style="fill:white;fill-rule:nonzero;"/>
        <path d="M79.84,9.735L79.714,32.069C79.711,33.464 79.408,34.689 78.805,35.747C77.766,37.573 75.996,38.482 73.494,38.476C70.68,38.469 68.853,37.792 68.014,36.443C67.439,35.575 67.154,33.903 67.161,31.425L67.211,9.705L72.155,9.572C72.153,10.39 72.144,14.131 72.128,20.793C72.089,27.456 72.069,30.704 72.069,30.535C72.064,32.411 72.555,33.35 73.542,33.353C74.408,33.354 74.843,32.417 74.847,30.542L74.896,9.758L79.84,9.735Z" style="fill:white;fill-rule:nonzero;"/>
        <path d="M94.28,32.509C94.136,34.621 93.483,36.251 92.32,37.402C91.157,38.553 89.591,39.062 87.624,38.928C85.919,38.811 84.512,38.052 83.402,36.651C82.227,35.149 81.74,33.27 81.941,31.019C81.967,30.635 82.022,30.011 82.105,29.149L86.926,29.513L86.807,31.277C86.688,33.005 87.098,33.901 88.034,33.964C88.777,34.015 89.213,33.454 89.341,32.282L89.55,30.271C89.616,29.673 89.054,28.706 87.867,27.371C85.874,25.114 84.78,23.846 84.582,23.567C83.411,21.993 82.867,20.594 82.951,19.37L83.159,16.31C83.308,14.126 83.942,12.421 85.063,11.196C86.263,9.855 87.92,9.232 90.036,9.328C91.765,9.422 93.104,10.115 94.053,11.41C94.934,12.627 95.31,14.184 95.182,16.079L94.939,19.642L90.149,19.353C90.162,18.8 90.252,17.841 90.418,16.479C90.475,15.976 90.418,15.472 90.249,14.966C90.078,14.46 89.825,14.196 89.489,14.173C88.553,14.109 88.032,14.868 87.923,16.453L87.796,18.325C87.745,19.069 88.309,20.168 89.488,21.623C90.601,22.976 91.715,24.331 92.828,25.683C93.992,27.354 94.533,28.802 94.45,30.025L94.28,32.509Z" style="fill:white;fill-rule:nonzero;"/>
        <path d="M104.683,30.723C103.076,30.583 100.785,30.293 97.809,29.85L98.439,24.438C100.604,24.763 102.911,25.031 105.356,25.243L104.683,30.723Z" style="fill:white;fill-rule:nonzero;"/>
        <path d="M134.373,66.397C131.067,66.747 128.052,66.887 125.325,66.817C125.06,66.807 124.915,66.587 124.892,66.155L123.328,38.018C123.314,37.754 123.438,37.615 123.702,37.601C125.551,37.477 128.542,37.325 132.676,37.149L133.089,42.114C132.128,42.166 130.748,42.241 128.946,42.338C128.586,42.359 128.412,42.5 128.427,42.764C128.435,42.885 128.466,43.738 128.531,45.324C128.58,46.67 128.634,47.68 128.695,48.35C128.709,48.615 128.86,48.763 129.151,48.795C129.66,48.84 130.778,48.792 132.504,48.649L132.818,54.414L129.575,54.59C129.334,54.603 129.201,54.791 129.172,55.155C129.106,56.169 129.187,58.08 129.412,60.886C129.429,61.199 129.654,61.367 130.09,61.392C131.026,61.316 132.345,61.22 134.049,61.105L134.373,66.397Z" style="fill:white;fill-rule:nonzero;"/>
        <path d="M152.209,63.181C152.424,63.542 152.543,63.806 152.564,63.972L146.661,64.174C146.17,62.975 145.44,61.226 144.47,58.923C144.191,58.255 144.017,57.926 143.944,57.935C143.85,57.948 143.758,58.371 143.669,59.208C143.635,60.277 143.476,61.983 143.188,64.323C143.082,64.822 143.022,65.107 143.006,65.183L137.463,65.629C137.451,65.534 137.463,65.436 137.498,65.333C138.543,61.517 139.646,56.747 140.814,51.022C140.906,50.598 140.758,49.998 140.368,49.222C140.139,48.744 138.367,45.003 135.057,38.002C134.954,37.773 136.586,37.542 139.952,37.311C140.154,37.77 140.805,39.361 141.902,42.083C142.149,42.706 142.334,43.01 142.453,42.996C142.549,42.983 142.632,42.779 142.702,42.381C142.865,40.979 143.105,39.142 143.424,36.871L148.703,36.057C148.409,37.744 147.354,41.961 145.541,48.714C145.375,49.316 145.398,49.883 145.611,50.415C146.743,53.229 148.942,57.486 152.209,63.181Z" style="fill:white;fill-rule:nonzero;"/>
        <path d="M158.652,42.583C158.344,41.002 158.033,39.874 157.72,39.204C157.466,38.692 157.194,38.405 156.91,38.34C156.646,38.373 156.396,38.4 156.155,38.426C156.062,38.448 155.879,38.46 155.609,38.467C155.512,38.463 155.439,38.529 155.393,38.662C155.348,38.794 155.352,38.928 155.405,39.064C155.775,40.829 156.327,43.381 157.054,46.717C157.099,46.93 157.248,47.059 157.503,47.103C157.632,47.126 157.781,47.081 157.955,46.971C158.51,46.804 158.839,46.551 158.938,46.211C159.107,45.61 159.012,44.401 158.652,42.583ZM163.695,45.688C164.057,47.406 163.584,48.895 162.277,50.153C161.314,51.069 160.197,51.662 158.927,51.929C158.62,51.993 158.503,52.191 158.571,52.52C159.023,54.661 159.677,57.879 160.532,62.172L155.971,63.281L150.024,35.405C149.97,35.146 150.14,34.962 150.536,34.855C151.49,34.604 153.057,34.286 155.239,33.9C156.627,33.607 157.984,33.752 159.313,34.333C160.767,34.937 161.632,35.896 161.91,37.215L163.695,45.688Z" style="fill:white;fill-rule:nonzero;"/>
        <path d="M179.35,58.098C176.196,59.153 173.283,59.941 170.607,60.465C170.346,60.512 170.157,60.328 170.04,59.911L162.428,32.779C162.356,32.524 162.449,32.361 162.704,32.29C164.48,31.769 167.367,30.976 171.366,29.909L172.845,34.666C171.917,34.925 170.586,35.296 168.848,35.782C168.5,35.878 168.361,36.055 168.434,36.31C168.466,36.425 168.683,37.251 169.088,38.787C169.426,40.091 169.698,41.064 169.902,41.707C169.973,41.961 170.154,42.073 170.444,42.041C170.951,41.974 172.033,41.685 173.687,41.174L175.24,46.734L172.112,47.607C171.88,47.671 171.789,47.885 171.84,48.245C171.997,49.25 172.486,51.099 173.314,53.791C173.397,54.091 173.654,54.207 174.084,54.137C174.982,53.862 176.25,53.482 177.888,52.999L179.35,58.098Z" style="fill:white;fill-rule:nonzero;"/>
        <path d="M182.257,33.285C181.76,31.776 181.02,31.223 180.036,31.624C179.815,31.723 179.647,31.791 179.534,31.829C179.329,31.896 179.29,32.125 179.418,32.512L181.411,38.542C181.623,39.181 181.892,39.461 182.219,39.377C182.342,39.362 182.478,39.317 182.631,39.241C183.133,39.077 183.392,38.711 183.409,38.147C183.442,37.327 183.058,35.707 182.257,33.285ZM193.779,52.391L189.246,53.965L183.84,44.276C183.662,44.284 183.527,44.329 183.428,44.413C183.29,44.533 183.294,44.811 183.437,45.245C184.622,48.831 185.652,51.987 186.528,54.711L182.212,56.138L173.231,29.085L179.1,27.183C180.517,26.716 181.814,26.616 182.992,26.885C184.284,27.194 185.111,27.895 185.475,28.991L187.671,35.751C188.041,36.87 188.026,37.94 187.629,38.957C187.359,39.68 186.975,40.237 186.473,40.632C186.312,40.76 186.243,40.86 186.267,40.928C186.281,40.973 188.785,44.795 193.779,52.391Z" style="fill:white;fill-rule:nonzero;"/>
        <path d="M198.078,25.979C197.918,26.035 197.574,26.142 197.043,26.3C196.543,26.474 196.134,26.615 195.816,26.726C195.339,26.892 195.16,27.145 195.277,27.486L202.978,49.448L198.263,51.047L190.596,29.073C190.485,28.755 190.294,28.643 190.021,28.738L187.499,29.613L185.982,25.021C188.793,24.021 192.302,22.803 196.514,21.366L198.078,25.979Z" style="fill:white;fill-rule:nonzero;"/>
        <path d="M212.303,47.036C211.824,47.197 211.087,47.456 210.09,47.815C209.231,48.127 208.391,48.421 207.57,48.697L205.955,43.187C208.273,42.386 209.742,41.882 210.356,41.676L212.303,47.036Z" style="fill:white;fill-rule:nonzero;"/>
        <path d="M220.569,14.754L227.964,41.311L223.187,42.975C221.432,39.724 219.419,36.046 217.147,31.942C216.956,31.622 216.766,31.487 216.582,31.541C216.442,31.58 216.442,31.843 216.582,32.329C216.721,32.814 217.188,34.457 217.987,37.254C218.758,40.038 219.364,42.204 219.806,43.752L215.267,45.2C214.249,41.987 212.832,37.114 211.017,30.578C209.26,24.25 208.195,20.214 207.823,18.47L213.008,16.914C215.762,22.182 217.601,25.558 218.526,27.045C218.89,27.617 219.128,27.887 219.243,27.853C219.406,27.808 219.362,27.432 219.109,26.729C218.482,24.881 217.42,21.333 215.92,16.083L220.569,14.754Z" style="fill:white;fill-rule:nonzero;"/>
        <path d="M239.514,39.692C239.656,39.664 238.104,40 234.861,40.705C232.89,41.151 231.506,41.406 230.709,41.467C230.346,41.492 230.11,41.245 230.006,40.726C227.473,28.771 225.62,19.771 224.451,13.725C227.724,12.918 229.384,12.632 229.431,12.868C229.711,13.892 230.367,17.083 231.398,22.446C232.526,28.28 233.354,32.321 233.882,34.57C234.014,35.108 234.342,35.336 234.866,35.255L238.543,34.514L239.514,39.692Z" style="fill:white;fill-rule:nonzero;"/>
        <path d="M87.489,47.378L89.572,66.528L110.303,50.783C105.169,49.857 93.613,47.746 87.489,47.378Z" style="fill:rgb(30,95,131);fill-rule:nonzero;"/>
    </g>
</svg>
